<?xml version="1.0" encoding="UTF-8" standalone="no"?>
<!-- Uploaded to: SVG Repo, www.svgrepo.com, Generator: SVG Repo Mixer Tools -->

<svg
   height="800px"
   width="800px"
   version="1.1"
   id="Layer_1"
   viewBox="0 0 464 464"
   xml:space="preserve"
   sodipodi:docname="girl-svgrepo-com(23).svg"
   inkscape:version="1.4 (e7c3feb1, 2024-10-09)"
   xmlns:inkscape="http://www.inkscape.org/namespaces/inkscape"
   xmlns:sodipodi="http://sodipodi.sourceforge.net/DTD/sodipodi-0.dtd"
   xmlns="http://www.w3.org/2000/svg"
   xmlns:svg="http://www.w3.org/2000/svg"><defs
   id="defs17">
	
	
	
	
	
	
	
	
	
	
	
	
	
	
	

		
	
		
	
		
	
		
	
		
		
	
		
	
		
	
		
	
		
	
		
	
			
		</defs><sodipodi:namedview
   id="namedview17"
   pagecolor="#ffffff"
   bordercolor="#000000"
   borderopacity="0.25"
   inkscape:showpageshadow="2"
   inkscape:pageopacity="0.0"
   inkscape:pagecheckerboard="0"
   inkscape:deskcolor="#d1d1d1"
   inkscape:zoom="0.0325"
   inkscape:cx="400"
   inkscape:cy="384.61538"
   inkscape:window-width="1104"
   inkscape:window-height="250"
   inkscape:window-x="43"
   inkscape:window-y="25"
   inkscape:window-maximized="0"
   inkscape:current-layer="Layer_1" />
<path
   style="fill:#5e342e"
   d="m 232,256 h -86.633 c -7.551,26.392 -19.396,55.126 -23.715,79.353 L 232,320 Z"
   id="path1" /><path
   style="fill:#6e4439"
   d="M 318.634,256 H 232.001 232 v 64 l 110.349,15.353 C 338.029,311.126 326.185,282.392 318.634,256 Z"
   id="path2" /><path
   style="fill:#c38762"
   d="m 383.388,413.991 -1.526,-5.227 c -0.737,-2.525 -3.197,-4.073 -5.727,-3.751 l -5.334,-40.002 c -1.752,-13.142 -9.902,-24.561 -21.76,-30.49 l -17.232,-8.616 c -2.567,-1.284 -5.51,-0.145 -6.766,2.29 L 290.94,315.647 C 284.406,313.469 280,307.355 280,300.468 v -25.802 l 34.461,-14.359 C 332.349,252.855 344,235.378 344,216 v -8 c 13.255,0 24,-10.745 24,-24 0,-7.158 -3.138,-13.58 -8.108,-17.978 0.106,0.02 0.179,0.033 0.179,0.033 36.667,-116 -62,-166.055 -88,-166.055 -26,0 -40,8 -40,8 0,0 -14,-8 -40,-8 -26,0 -124.667,50.055 -88,166.055 C 99.122,170.451 96,176.86 96,184 c 0,13.255 10.745,24 24,24 v 8 c 0,19.377 11.651,36.854 29.538,44.308 L 184,274.667 v 25.801 c 0,6.887 -4.407,13.001 -10.94,15.179 l -34.101,12.547 c -1.242,-2.438 -4.179,-3.583 -6.742,-2.302 l -15.714,7.857 c -13.41,6.705 -21.552,18.121 -23.304,31.262 l -5.334,40.002 c -2.53,-0.322 -4.989,1.226 -5.727,3.751 l -1.526,5.227 c -0.817,2.799 0.79,5.73 3.588,6.546 L 96,423.979 V 448 c 0,8.836 7.164,16 16,16 h 32 176 32 c 8.836,0 16,-7.164 16,-16 v -24.021 l 11.799,-3.442 c 2.799,-0.816 4.406,-3.747 3.589,-6.546 z"
   id="path3" /><path
   style="fill:#a46d4d"
   d="m 280,274 h -96 v 26.468 c 0,5.693 -3.017,10.852 -7.752,13.701 C 243.173,325.73 280,274 280,274 Z"
   id="path4" /><path
   style="fill:#ffa64e"
   d="m 377.192,412.936 -6.39,-47.925 c -1.752,-13.142 -9.902,-24.561 -21.76,-30.49 l -17.232,-8.616 c -2.919,-1.46 -6.327,0.212 -7.184,3.362 -11.09,40.761 -48.352,70.736 -92.627,70.736 -44.285,0 -81.555,-29.99 -92.635,-70.767 -0.852,-3.134 -4.242,-4.797 -7.146,-3.345 l -15.714,7.857 c -13.41,6.705 -21.552,18.121 -23.304,31.262 l -6.512,48.836 C 107.822,421.124 144,432 144,432 v 32 h 176 v -32 z"
   id="path5" /><path
   style="fill:#d29771"
   d="m 344,160 v -16 c 0,-22.091 -17.909,-40 -40,-40 H 160 c -22.091,0 -40,17.909 -40,40 v 16 c -13.255,0 -24,10.745 -24,24 0,13.255 10.745,24 24,24 v 8 c 0,19.377 11.651,36.854 29.538,44.308 l 51.691,21.538 c 9.75,4.063 20.208,6.154 30.77,6.154 v 0 c 10.562,0 21.019,-2.092 30.769,-6.154 l 51.694,-21.539 C 332.349,252.855 344,235.378 344,216 v -8 c 13.255,0 24,-10.745 24,-24 0,-13.255 -10.745,-24 -24,-24 z"
   id="path6" /><path
   style="fill:#623f33"
   d="m 176,192 v 0 c -4.4,0 -8,-3.6 -8,-8 v -8 c 0,-4.4 3.6,-8 8,-8 v 0 c 4.4,0 8,3.6 8,8 v 8 c 0,4.4 -3.6,8 -8,8 z"
   id="path7" /><path
   style="fill:#623f33"
   d="m 288,192 v 0 c -4.4,0 -8,-3.6 -8,-8 v -8 c 0,-4.4 3.6,-8 8,-8 v 0 c 4.4,0 8,3.6 8,8 v 8 c 0,4.4 -3.6,8 -8,8 z"
   id="path8" /><path
   style="fill:#a46d4d"
   d="m 232,248.219 c -14.223,0 -27.527,-3.5 -36.5,-9.605 -3.652,-2.484 -4.602,-7.461 -2.113,-11.113 2.48,-3.648 7.461,-4.598 11.113,-2.113 6.289,4.277 16.57,6.832 27.5,6.832 10.93,0 21.211,-2.555 27.5,-6.832 3.66,-2.492 8.629,-1.539 11.113,2.113 2.488,3.652 1.539,8.629 -2.113,11.113 -8.972,6.105 -22.277,9.605 -36.5,9.605 z"
   id="path9" /><path
   style="fill:#ff8c51"
   d="m 143.802,429.556 c -0.489,-9.513 -3.665,-18.705 -9.402,-26.355 L 96.843,353.125 c -1.813,3.734 -3.087,7.708 -3.645,11.887 l -6.341,47.561 z"
   id="path10" /><path
   style="fill:#f77447"
   d="m 80.612,413.991 c -0.817,2.799 0.79,5.73 3.588,6.546 L 144,437.981 V 432 c 0,-3.779 -0.594,-7.481 -1.461,-11.113 l -53.856,-15.71 c -2.798,-0.816 -5.728,0.79 -6.544,3.588 z"
   id="path11" /><path
   style="fill:#ff8c51"
   d="m 320.198,429.556 c 0.489,-9.513 3.665,-18.705 9.402,-26.355 l 37.557,-50.076 c 1.813,3.734 3.087,7.708 3.645,11.887 l 6.341,47.561 z"
   id="path12" /><path
   style="fill:#f77447"
   d="m 383.388,413.991 c 0.817,2.799 -0.79,5.73 -3.588,6.546 L 320,437.981 V 432 c 0,-3.779 0.594,-7.481 1.461,-11.113 l 53.856,-15.71 c 2.798,-0.816 5.728,0.79 6.544,3.588 z"
   id="path13" /><path
   style="fill:#c38762"
   d="m 230,85 c -7,53 -110,75 -110,75 -13.255,0 -24,10.745 -24,24 0,13.255 10.745,24 24,24 v 8 c 0,19.378 11.651,36.855 29.538,44.308 l 51.69,21.538 c 2.53,1.054 5.112,1.962 7.727,2.749 -22.844,-16.711 -38.05,-31.32 -46.96,-40.872 C 155.513,236.773 152,227.602 152,218.098 V 173.412 C 174.838,165.448 238.25,134 240.071,96 240.072,95.991 230,85 230,85 Z"
   id="path14" /><path
   style="fill:#6e4439"
   d="m 272.071,0 c -26,0 -40,8 -40,8 0,0 -14,-8 -40,-8 -26,0 -124.667,50.055 -88,166.055 0,0 128,-22.722 128,-78.055 0,55.333 128,78.055 128,78.055 C 396.738,50.055 298.071,0 272.071,0 Z"
   id="path15" /><path
   style="fill:#5e342e"
   d="M 232.071,8.004 V 8 c 0,0 -14,-8 -40,-8 -26,0 -124.667,50.055 -88,166.055 0,0 15.495,-2.757 35.69,-8.67 C 117.16,53.368 207.263,8.084 232.071,8.004 Z"
   id="path16" />
</svg>
