<?xml version="1.0" encoding="UTF-8" standalone="no"?>
<!-- Uploaded to: SVG Repo, www.svgrepo.com, Generator: SVG Repo Mixer Tools -->

<svg
   height="800px"
   width="800px"
   version="1.1"
   id="Layer_1"
   viewBox="0 0 464 464"
   xml:space="preserve"
   sodipodi:docname="girl-svgrepo-com(4).svg"
   inkscape:version="1.4 (e7c3feb1, 2024-10-09)"
   xmlns:inkscape="http://www.inkscape.org/namespaces/inkscape"
   xmlns:sodipodi="http://sodipodi.sourceforge.net/DTD/sodipodi-0.dtd"
   xmlns="http://www.w3.org/2000/svg"
   xmlns:svg="http://www.w3.org/2000/svg"><defs
   id="defs16">
	
	
	
	
	
	
	
	
	
	
	
	
	
	
	
	
</defs><sodipodi:namedview
   id="namedview16"
   pagecolor="#ffffff"
   bordercolor="#000000"
   borderopacity="0.25"
   inkscape:showpageshadow="2"
   inkscape:pageopacity="0.0"
   inkscape:pagecheckerboard="0"
   inkscape:deskcolor="#d1d1d1"
   inkscape:zoom="0.0325"
   inkscape:cx="400"
   inkscape:cy="384.61538"
   inkscape:window-width="1104"
   inkscape:window-height="250"
   inkscape:window-x="43"
   inkscape:window-y="25"
   inkscape:window-maximized="0"
   inkscape:current-layer="Layer_1" />
<g
   id="g1">
		<path
   style="fill:#e69f5f"
   d="m 400,400 c 0,0 -58.904,24 -168,24 C 122.904,424 63.999,400 63.999,400 L 85.156,135.535 C 91.28,58.994 155.182,0 231.967,0 h 0.064 c 76.786,0 140.688,58.994 146.811,135.535 z"
   id="path1" />
	</g><g
   id="g2">
		<path
   style="fill:#e09156"
   d="M 274.813,6.378 C 261.245,2.26 246.891,0 232.031,0 h -0.063 C 155.182,0 91.279,58.994 85.156,135.535 L 63.999,400 c 0,0 28.876,11.71 83.467,18.769 z"
   id="path2" />
	</g><path
   style="fill:#ffd7a3"
   d="m 383.388,413.991 -1.526,-5.227 c -0.737,-2.525 -3.197,-4.073 -5.727,-3.751 l -5.334,-40.002 c -1.752,-13.142 -9.902,-24.561 -21.76,-30.49 l -17.232,-8.616 c -2.567,-1.284 -5.51,-0.145 -6.766,2.29 L 290.94,315.647 C 284.406,313.469 280,307.355 280,300.468 v -25.802 l 34.461,-14.359 C 332.349,252.855 344,235.378 344,216 v -8 c 13.255,0 24,-10.745 24,-24 0,-13.255 -10.745,-24 -24,-24 V 144 C 344,121.909 326.091,88 304,88 H 160 c -22.091,0 -40,33.909 -40,56 v 16 c -13.255,0 -24,10.745 -24,24 0,13.255 10.745,24 24,24 v 8 c 0,19.378 11.651,36.855 29.538,44.308 L 184,274.668 v 25.801 c 0,6.887 -4.407,13.001 -10.94,15.179 l -34.101,12.547 c -1.242,-2.438 -4.179,-3.583 -6.742,-2.302 l -15.714,7.857 c -13.41,6.705 -21.552,18.121 -23.304,31.262 l -5.334,40.002 c -2.53,-0.322 -4.989,1.226 -5.727,3.751 l -1.526,5.227 c -0.817,2.799 0.79,5.729 3.588,6.546 L 96,423.979 V 448 c 0,8.836 7.164,16 16,16 h 32 176 32 c 8.836,0 16,-7.164 16,-16 v -24.021 l 11.799,-3.442 c 2.798,-0.816 4.405,-3.747 3.589,-6.546 z"
   id="path3" /><path
   style="fill:#fdc88e"
   d="m 280,274.667 -96,0.001 v 25.801 c 0,5.693 -3.017,10.852 -7.752,13.701 C 243.173,325.733 280,274.667 280,274.667 Z"
   id="path4" /><path
   style="fill:#ffe1b2"
   d="M 344,160 V 144 C 344,121.909 326.091,88 304,88 H 160 c -22.091,0 -40,33.909 -40,56 v 16 c -13.255,0 -24,10.745 -24,24 0,13.255 10.745,24 24,24 v 8 c 0,19.378 11.651,36.855 29.538,44.308 l 51.691,21.538 c 9.75,4.063 20.208,6.154 30.77,6.154 v 0 c 10.562,0 21.019,-2.092 30.769,-6.154 l 51.694,-21.539 C 332.349,252.855 344,235.378 344,216 v -8 c 13.255,0 24,-10.745 24,-24 0,-13.255 -10.745,-24 -24,-24 z"
   id="path5" /><g
   id="g6">
		<path
   style="fill:#623f33"
   d="m 288,192 v 0 c -4.4,0 -8,-3.6 -8,-8 v -8 c 0,-4.4 3.6,-8 8,-8 v 0 c 4.4,0 8,3.6 8,8 v 8 c 0,4.4 -3.601,8 -8,8 z"
   id="path6" />
	</g><g
   id="g8">
		<g
   id="g7">
			<path
   style="fill:#e4b07b"
   d="m 231.999,248.219 c -14.223,0 -27.527,-3.5 -36.5,-9.605 -3.652,-2.484 -4.602,-7.461 -2.113,-11.113 2.48,-3.648 7.461,-4.598 11.113,-2.113 6.289,4.277 16.57,6.832 27.5,6.832 10.93,0 21.211,-2.555 27.5,-6.832 3.66,-2.492 8.629,-1.539 11.113,2.113 2.488,3.652 1.539,8.629 -2.113,11.113 -8.971,6.105 -22.276,9.605 -36.5,9.605 z"
   id="path7" />
		</g>
	</g><g
   id="g9">
		<path
   style="fill:#ffd7a3"
   d="M 161.995,243.723 C 155.513,236.774 152,227.602 152,218.098 v -34.422 c 43.629,-3.305 102.53,-32.204 137.824,-59.856 L 280,113.996 c 0,0 -71,46 -160,46 v 0 0.004 c -13.255,0 -24,10.745 -24,24 0,13.255 10.745,24 24,24 v 8 c 0,19.378 11.651,36.855 29.538,44.308 l 51.69,21.538 c 2.53,1.054 5.112,1.962 7.727,2.749 -22.845,-16.712 -38.051,-31.32 -46.96,-40.872 z"
   id="path8" />
	</g><g
   id="g10">
		<path
   style="fill:#ff6473"
   d="m 377.191,412.936 -6.39,-47.925 c -1.752,-13.142 -9.902,-24.561 -21.76,-30.49 l -17.232,-8.616 c -2.919,-1.46 -6.327,0.212 -7.184,3.362 -11.09,40.761 -48.352,70.736 -92.627,70.736 -44.285,0 -81.555,-29.99 -92.635,-70.767 -0.852,-3.134 -4.242,-4.797 -7.146,-3.345 l -15.714,7.857 c -13.41,6.705 -21.552,18.121 -23.304,31.262 l -6.512,48.836 C 107.821,421.124 143.999,432 143.999,432 v 32 h 176 v -32 z"
   id="path9" />
	</g><g
   id="g11">
		<path
   style="fill:#f05467"
   d="m 143.801,429.556 c -0.489,-9.513 -3.665,-18.705 -9.402,-26.355 L 96.842,353.125 c -1.813,3.734 -3.087,7.708 -3.645,11.887 l -6.341,47.561 z"
   id="path10" />
	</g><g
   id="g12">
		<path
   style="fill:#d4445a"
   d="m 80.612,413.991 c -0.817,2.799 0.79,5.73 3.588,6.546 l 59.799,17.444 V 432 c 0,-3.779 -0.594,-7.481 -1.461,-11.113 l -53.856,-15.71 c -2.798,-0.816 -5.728,0.79 -6.544,3.588 z"
   id="path11" />
	</g><g
   id="g13">
		<path
   style="fill:#f05467"
   d="m 320.198,429.556 c 0.489,-9.513 3.665,-18.705 9.402,-26.355 l 37.557,-50.076 c 1.813,3.734 3.087,7.708 3.645,11.887 l 6.341,47.561 z"
   id="path12" />
	</g><g
   id="g14">
		<path
   style="fill:#d4445a"
   d="m 383.388,413.991 c 0.817,2.799 -0.79,5.73 -3.588,6.546 L 320,437.981 V 432 c 0,-3.779 0.594,-7.481 1.461,-11.113 l 53.856,-15.71 c 2.798,-0.816 5.728,0.79 6.544,3.588 z"
   id="path13" />
	</g><g
   id="g15">
		<path
   style="fill:#623f33"
   d="m 175.999,192 v 0 c -4.4,0 -8,-3.6 -8,-8 v -8 c 0,-4.4 3.6,-8 8,-8 v 0 c 4.4,0 8,3.6 8,8 v 8 c 0,4.4 -3.6,8 -8,8 z"
   id="path14" />
	</g><path
   style="fill:#e69f5f"
   d="m 103.73,112.976 0.27,53.078 c 75.501,0 138.099,-23.591 179.168,-44.834 -12.761,13.843 -31.957,32.686 -59.169,54.78 0,0 71.23,-28.324 111.132,-63.501 v -0.003 c 0,-52.191 -42.309,-94.5 -94.5,-94.5 h -42.403 c -52.378,0 -94.765,42.603 -94.498,94.98 z"
   id="path15" /><path
   style="fill:#e09156"
   d="m 269.789,22.588 c -9.184,-2.977 -18.981,-4.591 -29.157,-4.591 h -42.403 c -52.379,0 -94.765,42.602 -94.499,94.98 l 0.27,53.079 c 22.016,0 42.926,-2.016 62.534,-5.385 C 238.805,105.325 269.672,22.902 269.789,22.588 Z"
   id="path16" />
</svg>
