<?xml version="1.0" encoding="UTF-8" standalone="no"?>
<!-- Uploaded to: SVG Repo, www.svgrepo.com, Generator: SVG Repo Mixer Tools -->

<svg
   height="800px"
   width="800px"
   version="1.1"
   id="Layer_1"
   viewBox="0 0 464.001 464.001"
   xml:space="preserve"
   sodipodi:docname="girl-svgrepo-com(19).svg"
   inkscape:version="1.4 (e7c3feb1, 2024-10-09)"
   xmlns:inkscape="http://www.inkscape.org/namespaces/inkscape"
   xmlns:sodipodi="http://sodipodi.sourceforge.net/DTD/sodipodi-0.dtd"
   xmlns="http://www.w3.org/2000/svg"
   xmlns:svg="http://www.w3.org/2000/svg"><defs
   id="defs21">
	
	
	
	
	
	
	
	
	
	
	
	
	
	
	
	
	
	
	
	
	
</defs><sodipodi:namedview
   id="namedview21"
   pagecolor="#ffffff"
   bordercolor="#000000"
   borderopacity="0.25"
   inkscape:showpageshadow="2"
   inkscape:pageopacity="0.0"
   inkscape:pagecheckerboard="0"
   inkscape:deskcolor="#d1d1d1"
   inkscape:zoom="0.0325"
   inkscape:cx="400"
   inkscape:cy="384.61538"
   inkscape:window-width="1104"
   inkscape:window-height="250"
   inkscape:window-x="43"
   inkscape:window-y="25"
   inkscape:window-maximized="0"
   inkscape:current-layer="Layer_1" />
<path
   style="fill:#ffd7a3"
   d="m 380.378,436.829 -2.984,-22.384 -6.542,-49.067 c -1.779,-13.344 -10.151,-24.898 -22.277,-30.744 l -30.861,-14.879 c -3.003,-1.448 -6.501,-0.134 -7.99,2.804 l -18.782,-6.911 c -6.534,-2.178 -10.94,-8.292 -10.94,-15.179 v -25.802 l 34.461,-14.359 C 332.349,252.855 344,235.378 344,216 v -8 c 13.255,0 24,-10.745 24,-24 0,-13.255 -10.745,-24 -24,-24 V 144 C 344,121.908 326.091,88 304,88 H 160 c -22.091,0 -40,33.908 -40,56 v 16 c -13.255,0 -24,10.745 -24,24 0,13.255 10.745,24 24,24 v 8 c 0,19.377 11.651,36.854 29.538,44.308 L 184,274.667 v 25.801 c 0,6.887 -4.407,13.001 -10.94,15.179 l -18.782,6.911 c -1.489,-2.938 -4.987,-4.251 -7.99,-2.804 l -30.861,14.879 c -12.126,5.847 -20.498,17.4 -22.277,30.744 l -6.006,45.047 -3.521,26.404 C 81.705,451.216 92.898,464 107.413,464 v 0 h 249.175 v 0 c 14.515,0 25.708,-12.784 23.79,-27.171 z"
   id="path1" /><path
   style="fill:#fdc88e"
   d="m 280,274 h -96 v 26.469 c 0,5.693 -3.017,10.852 -7.752,13.701 C 243.173,325.732 280,274 280,274 Z"
   id="path2" /><path
   style="fill:#0087b1"
   d="M 300.167,319.041 C 290.551,347.491 263.697,368 232,368 200.303,368 173.45,347.49 163.833,319.041 L 129.069,331.93 C 143.919,374.474 184.392,405 232,405 c 47.686,0 88.214,-30.625 103.004,-73.278 z"
   id="path3" /><path
   style="fill:#8db9e2"
   d="m 380.377,436.829 -9.526,-71.451 C 369.072,352.034 360.7,340.481 348.574,334.634 l -30.861,-14.879 c -3.107,-1.498 -6.75,-0.046 -8.143,3.109 C 289.335,368.69 254.667,390 232,400.003 c -22.667,-10.002 -57.335,-31.313 -77.569,-77.14 -1.393,-3.155 -5.036,-4.606 -8.143,-3.109 l -30.861,14.879 c -12.126,5.847 -20.498,17.4 -22.277,30.744 l -9.526,71.451 C 81.706,451.215 92.898,464 107.414,464 h 249.175 c 14.514,10e-4 25.707,-12.784 23.788,-27.171 z"
   id="path4" /><path
   style="fill:#00a1b4"
   d="m 237.106,410.864 c 38.651,-18.172 68.226,-48.756 86.091,-88.465 l -5.484,-2.644 c -3.107,-1.498 -6.75,-0.046 -8.143,3.109 C 289.335,368.69 254.667,390 232,400.003 c -22.667,-10.002 -57.335,-31.313 -77.569,-77.14 -1.393,-3.155 -5.036,-4.606 -8.143,-3.109 l -5.483,2.644 c 17.865,39.709 47.439,70.293 86.09,88.465 l 5.105,2.402 z"
   id="path5" /><path
   style="fill:#00a1b4"
   d="m 144,429.725 c 0,-8.895 -2.965,-17.536 -8.426,-24.558 L 96.235,354.588 c -1.497,3.403 -2.582,7.011 -3.086,10.79 l -9.526,71.451 c -1.918,14.387 9.274,27.172 23.79,27.172 H 144 Z"
   id="path6" /><path
   style="fill:#00a1b4"
   d="m 320,429.725 c 0,-8.895 2.965,-17.536 8.426,-24.558 l 39.339,-50.579 c 1.497,3.403 2.582,7.011 3.086,10.79 l 9.526,71.451 c 1.918,14.387 -9.274,27.172 -23.79,27.172 H 320 Z"
   id="path7" /><path
   style="fill:#ffc85c"
   d="m 351.992,200 h -16 c 0,0 -7.62,21.091 -8,47.999 -0.213,15.071 3.692,31.966 8,48.001 h 16 c 4.308,-16.036 8.213,-32.931 8,-48.001 -0.38,-26.907 -8,-47.999 -8,-47.999 z"
   id="path8" /><path
   style="fill:#f6b45e"
   d="m 128,200 h -16 c 0,0 -7.62,21.091 -8,47.999 -0.213,15.071 3.692,31.966 8,48.001 h 16 c 4.308,-16.036 8.213,-32.931 8,-48.001 C 135.62,221.092 128,200 128,200 Z"
   id="path9" /><path
   style="fill:#ffe1b2"
   d="M 344,160 V 144 C 344,121.908 326.091,88 304,88 H 160 c -22.091,0 -40,33.908 -40,56 v 16 c -13.255,0 -24,10.745 -24,24 0,13.255 10.745,24 24,24 v 8 c 0,19.377 11.651,36.854 29.538,44.308 l 51.691,21.538 c 9.75,4.063 20.208,6.154 30.77,6.154 v 0 c 10.562,0 21.019,-2.091 30.769,-6.154 l 51.694,-21.539 C 332.349,252.855 344,235.378 344,216 v -8 c 13.255,0 24,-10.745 24,-24 0,-13.255 -10.745,-24 -24,-24 z"
   id="path10" /><path
   style="fill:#623f33"
   d="m 176,192 v 0 c -4.4,0 -8,-3.6 -8,-8 v -8 c 0,-4.4 3.6,-8 8,-8 v 0 c 4.4,0 8,3.6 8,8 v 8 c 0,4.4 -3.6,8 -8,8 z"
   id="path11" /><path
   style="fill:#623f33"
   d="m 288,192 v 0 c -4.4,0 -8,-3.6 -8,-8 v -8 c 0,-4.4 3.6,-8 8,-8 v 0 c 4.4,0 8,3.6 8,8 v 8 c 0,4.4 -3.6,8 -8,8 z"
   id="path12" /><path
   style="fill:#e4b07b"
   d="m 232,248.219 c -14.223,0 -27.527,-3.5 -36.5,-9.605 -3.652,-2.484 -4.602,-7.461 -2.113,-11.113 2.48,-3.648 7.461,-4.598 11.113,-2.113 6.289,4.277 16.57,6.832 27.5,6.832 10.93,0 21.211,-2.555 27.5,-6.832 3.66,-2.492 8.629,-1.539 11.113,2.113 2.488,3.652 1.539,8.629 -2.113,11.113 -8.972,6.105 -22.277,9.605 -36.5,9.605 z"
   id="path13" /><path
   style="fill:#ffd7a3"
   d="m 243,85 h -18 c 0,0 13.666,52.667 -104.998,75 H 120 v 0 c -13.255,0 -24,10.745 -24,24 0,13.255 10.745,24 24,24 v 8 c 0,19.377 11.651,36.855 29.538,44.308 l 51.69,21.538 c 2.53,1.054 5.112,1.962 7.727,2.749 -22.844,-16.711 -38.05,-31.32 -46.96,-40.872 C 155.513,236.773 152,227.602 152,218.098 V 173.387 C 174.473,165.543 243,137.5 243,85 Z"
   id="path14" /><path
   style="fill:#00a1b4"
   d="m 128,312 h -16 c -4.418,0 -8,-3.582 -8,-8 v 0 c 0,-4.418 3.582,-8 8,-8 h 16 c 4.418,0 8,3.582 8,8 v 0 c 0,4.419 -3.582,8 -8,8 z"
   id="path15" /><path
   style="fill:#f6b45e"
   d="m 128,312 c 0,0 14,24 -8,56 -22,-32 -8,-56 -8,-56"
   id="path16" /><path
   style="fill:#00a1b4"
   d="m 335.992,312 h 16 c 4.418,0 8,-3.582 8,-8 v 0 c 0,-4.418 -3.582,-8 -8,-8 h -16 c -4.418,0 -8,3.582 -8,8 v 0 c 0,4.419 3.582,8 8,8 z"
   id="path17" /><path
   style="fill:#ffc85c"
   d="m 335.992,312 c 0,0 -14,24 8,56 22,-32 8,-56 8,-56"
   id="path18" /><path
   style="fill:#734a3e"
   d="m 344.159,151.965 h -40.816 c -0.027,0 -0.051,0.007 -0.078,0.008 -4.577,-2.529 -9.834,-3.973 -15.422,-3.973 -14.752,0 -27.199,10.038 -30.885,23.64 C 252.384,162.384 242.846,156 231.843,156 220.84,156 211.302,162.384 206.728,171.64 203.042,158.038 190.595,148 175.843,148 c -5.583,0 -10.835,1.441 -15.409,3.965 h -40.591 c -2.211,0 -4,1.789 -4,4 0,2.211 1.789,4 4,4 h 31.074 c -4.42,5.488 -7.074,12.456 -7.074,20.035 0,17.645 14.356,32 32,32 14.931,0 27.505,-10.281 31.019,-24.135 0.315,0.08 0.64,0.135 0.981,0.135 2.211,0 4,-1.789 4,-4 0,-11.027 8.973,-20 20,-20 11.027,0 20,8.973 20,20 0,2.211 1.789,4 4,4 0.34,0 0.665,-0.055 0.981,-0.135 3.513,13.854 16.087,24.135 31.018,24.135 17.645,0 32,-14.355 32,-32 0,-7.579 -2.654,-14.547 -7.074,-20.035 h 31.391 c 2.211,0 4,-1.789 4,-4 0,-2.211 -1.789,-4 -4,-4 z M 175.842,204 c -13.234,0 -24,-10.766 -24,-24 0,-13.234 10.766,-24 24,-24 13.234,0 24,10.766 24,24 0,13.234 -10.766,24 -24,24 z m 112,0 c -13.234,0 -24,-10.766 -24,-24 0,-13.234 10.766,-24 24,-24 13.234,0 24,10.766 24,24 0,13.234 -10.766,24 -24,24 z"
   id="path19" /><path
   style="fill:#ffc85c"
   d="m 272,0 c -26,0 -40,8 -40,8 0,0 -14,-8 -40,-8 -26,0 -124.667,50.055 -88,166.055 0,0 128,-22.722 128,-78.055 0,55.333 128,78.055 128,78.055 C 396.667,50.055 298,0 272,0 Z"
   id="path20" /><path
   style="fill:#f6b45e"
   d="M 232,8.004 V 8 c 0,0 -14,-8 -40,-8 -26,0 -124.666,50.055 -88,166.055 0,0 15.495,-2.757 35.69,-8.67 C 117.088,53.368 207.192,8.084 232,8.004 Z"
   id="path21" />
</svg>
