<?xml version="1.0" encoding="UTF-8" standalone="no"?>
<!-- Uploaded to: SVG Repo, www.svgrepo.com, Generator: SVG Repo Mixer Tools -->

<svg
   height="800px"
   width="800px"
   version="1.1"
   id="Layer_1"
   viewBox="0 0 464 464"
   xml:space="preserve"
   sodipodi:docname="girl-svgrepo-com(22).svg"
   inkscape:version="1.4 (e7c3feb1, 2024-10-09)"
   xmlns:inkscape="http://www.inkscape.org/namespaces/inkscape"
   xmlns:sodipodi="http://sodipodi.sourceforge.net/DTD/sodipodi-0.dtd"
   xmlns="http://www.w3.org/2000/svg"
   xmlns:svg="http://www.w3.org/2000/svg"><defs
   id="defs11">
	
	
	
	
	
	
	
	
	
	
</defs><sodipodi:namedview
   id="namedview11"
   pagecolor="#ffffff"
   bordercolor="#000000"
   borderopacity="0.25"
   inkscape:showpageshadow="2"
   inkscape:pageopacity="0.0"
   inkscape:pagecheckerboard="0"
   inkscape:deskcolor="#d1d1d1"
   inkscape:zoom="0.0325"
   inkscape:cx="400"
   inkscape:cy="384.61538"
   inkscape:window-width="1104"
   inkscape:window-height="250"
   inkscape:window-x="43"
   inkscape:window-y="25"
   inkscape:window-maximized="0"
   inkscape:current-layer="Layer_1" />
<path
   style="fill:#c38762"
   d="m 377.4,350.782 c -2.961,-9.867 -10.552,-17.833 -20.532,-21.159 l -31.5,-10.5 c -4.049,-1.35 -8.484,0.704 -9.942,4.686 L 290.94,315.647 C 284.406,313.469 280,307.355 280,300.468 v -25.802 l 34.461,-14.359 C 332.349,252.855 344,235.378 344,216 v -8 c 13.255,0 24,-10.745 24,-24 0,-13.255 -10.745,-24 -24,-24 v -16 c 0,-22.091 -17.909,-40 -40,-40 H 160 c -22.092,0 -40,17.909 -40,40 v 16 c -13.255,0 -24,10.745 -24,24 0,13.255 10.745,24 24,24 v 8 c 0,19.377 11.651,36.854 29.538,44.308 L 184,274.667 v 25.801 c 0,6.887 -4.407,13.001 -10.94,15.179 l -24.486,8.162 c -1.458,-3.982 -5.893,-6.036 -9.942,-4.686 l -31.5,10.5 c -9.98,3.326 -17.572,11.292 -20.532,21.159 -0.756,2.521 -0.189,5.223 1.4,7.256 V 448 c 0,8.836 7.164,16 16,16 h 256 c 8.837,0 16,-7.164 16,-16 v -89.963 c 1.589,-2.032 2.156,-4.734 1.4,-7.255 z"
   id="path1" /><path
   style="fill:#a46d4d"
   d="m 184,273 v 27.468 c 0,5.693 -3.017,10.852 -7.753,13.701 C 239.998,325.184 276.438,277.37 279.751,273 Z"
   id="path2" /><path
   style="fill:#623f33"
   d="M 405.237,172 C 411.717,167.702 416,160.358 416,152 416,139.305 406.113,129.021 393.635,128.165 397.552,123.894 400,118.251 400,112 400,98.745 389.255,88 376,88 c -0.52,0 -1.005,0.12 -1.517,0.153 C 375.412,85.597 376,82.876 376,80 376,66.745 365.255,56 352,56 352,42.745 341.255,32 328,32 c -6.251,0 -11.894,2.448 -16.165,6.365 -0.009,-0.123 -0.026,-0.242 -0.037,-0.364 0.048,-0.673 0.202,-1.315 0.202,-2 0,-15.464 -12.536,-28 -28,-28 -5.563,0 -10.717,1.669 -15.075,4.467 C 264.836,5.069 257.051,0 248,0 241.825,0 236.253,2.397 232,6.229 227.747,2.397 222.175,0 216,0 206.949,0 199.164,5.069 195.075,12.467 190.718,9.669 185.564,8 180,8 c -15.464,0 -28,12.536 -28,28 0,0.833 0.174,1.617 0.245,2.431 C 147.966,34.473 142.289,32 136,32 122.745,32 112,42.745 112,56 98.745,56 88,66.745 88,80 c 0,2.876 0.589,5.597 1.517,8.153 C 89.005,88.12 88.52,88 88,88 74.745,88 64,98.745 64,112 c 0,6.251 2.448,11.894 6.365,16.165 C 57.887,129.021 48,139.305 48,152 c 0,8.358 4.283,15.702 10.763,20 C 52.283,176.298 48,183.642 48,192 c 0,13.255 10.745,24 24,24 0.52,0 1.005,-0.12 1.517,-0.153 C 72.589,218.404 72,221.124 72,224 c 0,13.255 10.745,24 24,24 2.876,0 5.597,-0.589 8.153,-1.517 -0.033,0.512 -0.153,0.998 -0.153,1.517 0,13.255 10.745,24 24,24 6.956,0 13.169,-3.006 17.552,-7.734 C 148.93,273.43 157.663,280 168,280 c 7.107,0 13.489,-3.091 17.884,-8 h 92.232 c 4.395,4.908 10.777,8 17.884,8 10.337,0 19.07,-6.57 22.448,-15.734 4.383,4.728 10.596,7.734 17.552,7.734 13.255,0 24,-10.745 24,-24 0,-0.52 -0.12,-1.005 -0.153,-1.517 2.556,0.928 5.276,1.517 8.153,1.517 13.255,0 24,-10.745 24,-24 0,-2.876 -0.589,-5.597 -1.517,-8.153 0.512,0.033 0.998,0.153 1.517,0.153 13.255,0 24,-10.745 24,-24 0,-8.358 -4.282,-15.702 -10.763,-20 z"
   id="path3" /><path
   style="fill:#d29771"
   d="m 344,160 v -16 c 0,-22.091 -17.909,-40 -40,-40 H 160 c -22.092,0 -40,17.909 -40,40 v 16 c -13.255,0 -24,10.745 -24,24 0,13.255 10.745,24 24,24 v 8 c 0,19.377 11.651,36.854 29.538,44.308 l 51.691,21.538 c 9.75,4.063 20.208,6.154 30.77,6.154 v 0 c 10.562,0 21.019,-2.091 30.769,-6.154 l 51.694,-21.539 C 332.349,252.855 344,235.378 344,216 v -8 c 13.255,0 24,-10.745 24,-24 0,-13.255 -10.745,-24 -24,-24 z"
   id="path4" /><g
   id="g5">
		<path
   style="fill:#623f33"
   d="m 176,192 v 0 c -4.4,0 -8,-3.6 -8,-8 v -8 c 0,-4.4 3.6,-8 8,-8 v 0 c 4.4,0 8,3.6 8,8 v 8 c 0,4.4 -3.6,8 -8,8 z"
   id="path5" />
	</g><g
   id="g6">
		<path
   style="fill:#623f33"
   d="m 288,192 v 0 c -4.4,0 -8,-3.6 -8,-8 v -8 c 0,-4.4 3.6,-8 8,-8 v 0 c 4.4,0 8,3.6 8,8 v 8 c 0,4.4 -3.6,8 -8,8 z"
   id="path6" />
	</g><g
   id="g8">
		<g
   id="g7">
			<path
   style="fill:#a46d4d"
   d="m 232,248.219 c -14.223,0 -27.527,-3.5 -36.5,-9.605 -3.652,-2.484 -4.601,-7.461 -2.113,-11.113 2.48,-3.648 7.461,-4.598 11.113,-2.113 6.289,4.277 16.57,6.832 27.5,6.832 10.93,0 21.211,-2.555 27.5,-6.832 3.66,-2.492 8.629,-1.539 11.113,2.113 2.488,3.652 1.539,8.629 -2.113,11.113 -8.972,6.105 -22.277,9.605 -36.5,9.605 z"
   id="path7" />
		</g>
	</g><path
   style="fill:#c38762"
   d="M 161.996,243.722 C 155.514,236.772 152,227.601 152,218.097 V 104.806 c -18.257,3.707 -32,19.843 -32,39.194 v 16 c -13.255,0 -24,10.745 -24,24 0,13.255 10.745,24 24,24 v 8 c 0,19.377 11.651,36.854 29.538,44.308 l 51.691,21.538 c 2.53,1.054 5.111,1.962 7.727,2.749 v 0 c -22.844,-16.712 -38.05,-31.32 -46.96,-40.873 z"
   id="path8" /><g
   id="g9">
		<path
   style="fill:#95b995"
   d="m 377.4,350.782 c -2.961,-9.867 -10.552,-17.833 -20.532,-21.159 l -31.5,-10.5 c -4.116,-1.372 -8.639,0.769 -10.019,4.883 C 303.652,358.862 270.797,384 232,384 c -38.797,0 -71.652,-25.138 -83.349,-59.995 -1.38,-4.114 -5.903,-6.255 -10.019,-4.883 l -31.5,10.5 c -9.98,3.326 -17.572,11.293 -20.532,21.159 -0.898,2.993 0.051,6.254 2.386,8.329 l 44.27,39.342 C 140.09,404.526 144,413.231 144,422.372 V 464 h 176 v -41.628 c 0,-9.142 3.91,-17.847 10.743,-23.919 l 44.27,-39.342 c 2.336,-2.075 3.285,-5.336 2.387,-8.329 z"
   id="path9" />
	</g><g
   id="g10">
		<path
   style="fill:#ffc84a"
   d="m 325.368,319.122 c -4.116,-1.372 -8.639,0.769 -10.02,4.883 C 303.652,358.862 270.798,384 232,384 c -38.798,0 -71.651,-25.138 -83.349,-59.995 -1.38,-4.114 -5.903,-6.255 -10.02,-4.883 l -7.334,2.445 C 142.709,366.619 183.402,400 232,400 c 48.598,0 89.292,-33.382 100.702,-78.433 z"
   id="path10" />
	</g>
</svg>
