<?xml version="1.0" encoding="UTF-8" standalone="no"?>
<!-- Uploaded to: SVG Repo, www.svgrepo.com, Generator: SVG Repo Mixer Tools -->

<svg
   height="800px"
   width="800px"
   version="1.1"
   id="Layer_1"
   viewBox="0 0 464 464"
   xml:space="preserve"
   sodipodi:docname="girl-svgrepo-com(24).svg"
   inkscape:version="1.4 (e7c3feb1, 2024-10-09)"
   xmlns:inkscape="http://www.inkscape.org/namespaces/inkscape"
   xmlns:sodipodi="http://sodipodi.sourceforge.net/DTD/sodipodi-0.dtd"
   xmlns="http://www.w3.org/2000/svg"
   xmlns:svg="http://www.w3.org/2000/svg"><defs
   id="defs29">
	
	
	
	
	
	
	
	
	
	
	
	
	
	
	
	
	
	
	
	
	

		
		
	
		
	
		
	
		
	
		
	
		
	
		
	
		
	
		
	
		
	
		
	
		
	
		
	
		
	
		
	
			
		
			
		
			
		
			
		
			
		
			
		
			
		
			
		</defs><sodipodi:namedview
   id="namedview29"
   pagecolor="#ffffff"
   bordercolor="#000000"
   borderopacity="0.25"
   inkscape:showpageshadow="2"
   inkscape:pageopacity="0.0"
   inkscape:pagecheckerboard="0"
   inkscape:deskcolor="#d1d1d1"
   inkscape:zoom="0.0325"
   inkscape:cx="400"
   inkscape:cy="384.61538"
   inkscape:window-width="1104"
   inkscape:window-height="250"
   inkscape:window-x="43"
   inkscape:window-y="25"
   inkscape:window-maximized="0"
   inkscape:current-layer="Layer_1" />
<path
   style="fill:#ffd7a3"
   d="M 370.802,365.011 C 369.05,351.869 360.9,340.45 349.041,334.521 l -17.232,-8.616 c -2.567,-1.284 -5.51,-0.145 -6.766,2.29 L 316.36,325 C 376.227,308.691 408,280 408,280 376.5,218.5 385,125 360,72 335,19 288,0 232,0 176,0 129,19 104,72 79,125 87.5,218.5 56,280 c 0,0 31.774,28.69 91.641,44.999 l -8.682,3.195 c -1.242,-2.438 -4.18,-3.584 -6.742,-2.303 l -15.714,7.857 c -13.41,6.705 -21.552,18.121 -23.304,31.262 l -0.388,2.908 c 0,10e-4 0,10e-4 0,10e-4 l -9.188,68.908 C 81.705,451.216 92.898,464 107.413,464 h 249.175 c 14.515,0 25.708,-12.784 23.789,-27.172 z"
   id="path1" /><path
   style="fill:#9d6e48"
   d="M 360,72 C 335,19 288,0 232,0 176,0 129,19 104,72 79,125 87.5,218.5 56,280 c 0,0 62,56 176,56 114,0 176,-56 176,-56 C 376.5,218.5 385,125 360,72 Z"
   id="path2" /><path
   style="fill:#8d5f3d"
   d="M 184,143 C 184,87 204.909,34.707 247.137,0.55 242.164,0.219 237.135,0 232,0 176,0 129,19 104,72 79,125 87.5,218.5 56,280 c 0,0 45.431,39.895 128,52.264 0,10e-4 0,-145.264 0,-189.264 z"
   id="path3" /><path
   style="fill:#ffd7a3"
   d="m 371.19,367.921 c -1.962,-14.712 -11.908,-27.128 -25.837,-32.253 l -54.412,-20.02 c -6.533,-2.178 -10.94,-8.292 -10.94,-15.179 V 248 h -96 v 52.468 c 0,6.887 -4.407,13.001 -10.94,15.179 l -54.412,20.02 c -13.929,5.125 -23.875,17.541 -25.837,32.253 l -9.188,68.908 C 81.706,451.216 92.899,464 107.413,464 h 249.176 c 14.515,0 25.708,-12.784 23.789,-27.172 z"
   id="path4" /><path
   style="fill:#fdc88e"
   d="m 184,300.469 c 0,0.391 -0.017,0.777 -0.046,1.161 -0.014,0.2 -0.04,0.396 -0.062,0.595 -0.018,0.16 -0.034,0.32 -0.057,0.478 -0.043,0.307 -0.098,0.609 -0.158,0.911 -0.001,0.006 -0.002,0.013 -0.004,0.019 -0.888,4.4 -3.587,8.228 -7.424,10.538 C 243.173,325.732 280,274.667 280,274.667 L 184,274 Z"
   id="path5" /><path
   style="fill:#ffe1b2"
   d="m 344,160 v -16 c 0,-22.091 -17.909,-40 -40,-40 H 160 c -22.091,0 -40,17.909 -40,40 v 16 c -13.255,0 -24,10.746 -24,24 0,13.255 10.745,24 24,24 v 8 c 0,19.377 11.651,36.854 29.538,44.308 l 51.691,21.538 c 9.75,4.063 20.208,6.154 30.77,6.154 v 0 c 10.562,0 21.019,-2.092 30.769,-6.154 l 51.694,-21.539 C 332.349,252.855 344,235.378 344,216 v -8 c 13.255,0 24,-10.745 24,-24 0,-13.255 -10.745,-24 -24,-24 z"
   id="path6" /><path
   style="fill:#ffd7a3"
   d="M 302,127.625 V 107 H 144.811 C 130.255,112.981 120,127.288 120,144 v 16 c -13.255,0 -24,10.745 -24,24 0,13.255 10.745,24 24,24 v 8 c 0,19.378 11.651,36.855 29.538,44.308 l 51.69,21.538 c 2.53,1.054 5.112,1.962 7.727,2.749 -22.844,-16.711 -38.05,-31.32 -46.96,-40.872 C 155.513,236.773 152,227.602 152,218.098 v -58.21 c 25.806,-0.635 107.684,-4.821 150,-32.263 z"
   id="path7" /><path
   style="fill:#623f33"
   d="m 176,192 v 0 c -4.4,0 -8,-3.6 -8,-8 v -8 c 0,-4.4 3.6,-8 8,-8 v 0 c 4.4,0 8,3.6 8,8 v 8 c 0,4.4 -3.6,8 -8,8 z"
   id="path8" /><path
   style="fill:#623f33"
   d="m 288,192 v 0 c -4.4,0 -8,-3.6 -8,-8 v -8 c 0,-4.4 3.6,-8 8,-8 v 0 c 4.4,0 8,3.6 8,8 v 8 c 0,4.4 -3.6,8 -8,8 z"
   id="path9" /><path
   style="fill:#e4b07b"
   d="m 232,248.219 c -14.223,0 -27.527,-3.5 -36.5,-9.605 -3.652,-2.484 -4.602,-7.461 -2.113,-11.113 2.48,-3.648 7.461,-4.598 11.113,-2.113 6.289,4.277 16.57,6.832 27.5,6.832 10.93,0 21.211,-2.555 27.5,-6.832 3.66,-2.492 8.629,-1.539 11.113,2.113 2.488,3.652 1.539,8.629 -2.113,11.113 -8.972,6.105 -22.277,9.605 -36.5,9.605 z"
   id="path10" /><path
   style="fill:#9d6e48"
   d="m 136,144 c 0,0 51,5 80,-8 4.081,-1.829 16,-28 16,-28 v 36 c 0,0 36.786,-1.903 75,-17.326 V 98 H 130.55 c 3.633,18.297 5.45,46 5.45,46 z"
   id="path11" /><path
   style="fill:#ff6473"
   d="m 349.041,334.521 -17.232,-8.616 c -2.92,-1.46 -6.327,0.212 -7.184,3.362 -11.09,40.761 -48.352,70.736 -92.626,70.736 -44.285,0 -81.555,-29.99 -92.635,-70.767 -0.852,-3.134 -4.242,-4.797 -7.146,-3.345 l -15.714,7.857 c -13.41,6.705 -21.552,18.121 -23.304,31.262 l -9.576,71.817 c -1.918,14.388 9.275,27.172 23.789,27.172 h 249.176 c 14.515,0 25.708,-12.784 23.789,-27.172 L 370.802,365.01 C 369.05,351.87 360.9,340.45 349.041,334.521 Z"
   id="path12" /><path
   style="fill:#f05467"
   d="m 96.843,353.124 c -1.813,3.734 -3.087,7.708 -3.645,11.887 l -9.576,71.817 C 81.704,451.216 92.897,464 107.412,464 H 144 v -32 c 0,-10.386 -3.369,-20.491 -9.6,-28.8 z"
   id="path13" /><path
   style="fill:#f05467"
   d="m 367.157,353.124 c 1.813,3.734 3.087,7.708 3.645,11.887 l 9.576,71.817 C 382.296,451.216 371.103,464 356.588,464 H 320 v -32 c 0,-10.386 3.368,-20.491 9.6,-28.8 z"
   id="path14" /><path
   style="fill:#bd445a"
   d="m 332,103.649 c 0,10.77 -21.73,19.5 -32.5,19.5 -10.77,0 -19.5,-8.73 -19.5,-19.5 0,-10.77 8.73,-19.5 19.5,-19.5 10.77,0 32.5,8.731 32.5,19.5 z"
   id="path15" /><path
   style="fill:#bd445a"
   d="m 332,103.649 c 0,-10.77 21.73,-19.5 32.5,-19.5 10.77,0 19.5,8.73 19.5,19.5 0,10.77 -8.73,19.5 -19.5,19.5 -10.77,0 -32.5,-8.73 -32.5,-19.5 z"
   id="path16" /><path
   style="fill:#ff6473"
   d="m 332,103.649 c 9.327,5.385 6.022,28.569 0.638,37.896 -5.385,9.327 -17.311,12.522 -26.638,7.138 -9.327,-5.384 -12.522,-17.311 -7.138,-26.638 5.386,-9.327 23.812,-23.781 33.138,-18.396 z"
   id="path18" /><path
   style="fill:#ff6473"
   d="m 332,103.649 c -9.327,-5.385 -6.022,-28.569 -0.637,-37.896 5.385,-9.327 17.311,-12.522 26.638,-7.138 9.327,5.384 12.522,17.311 7.138,26.638 -5.386,9.327 -23.812,23.781 -33.139,18.396 z"
   id="path20" /><path
   style="fill:#f05467"
   d="m 332,103.649 c -9.327,5.385 -6.022,28.569 -0.637,37.896 5.385,9.327 17.311,12.522 26.638,7.138 9.327,-5.384 12.522,-17.311 7.138,-26.638 C 359.753,112.718 341.327,98.264 332,103.649 Z"
   id="path22" /><path
   style="fill:#f05467"
   d="m 332,103.649 c 9.327,-5.385 6.022,-28.569 0.638,-37.896 -5.385,-9.327 -17.311,-12.522 -26.638,-7.138 -9.327,5.384 -12.522,17.311 -7.138,26.638 5.386,9.327 23.812,23.781 33.138,18.396 z"
   id="path24" /><circle
   style="fill:#ffffff"
   cx="332"
   cy="103.649"
   r="13"
   id="circle26" /><path
   style="fill:#8d5f3d"
   d="m 130.546,98 c 3.635,18.297 5.455,46 5.455,46 0,0 23.071,2.249 47,-0.225 0,-0.256 0,-0.525 0,-0.775 0,-15.386 1.7,-30.476 4.981,-45 z"
   id="path28" />
</svg>
