<?xml version="1.0" encoding="UTF-8" standalone="no"?>
<!-- Uploaded to: SVG Repo, www.svgrepo.com, Generator: SVG Repo Mixer Tools -->

<svg
   version="1.1"
   id="Layer_1"
   viewBox="0 0 464 464"
   xml:space="preserve"
   sodipodi:docname="girl-svgrepo-com(15).svg"
   inkscape:version="1.4 (e7c3feb1, 2024-10-09)"
   xmlns:inkscape="http://www.inkscape.org/namespaces/inkscape"
   xmlns:sodipodi="http://sodipodi.sourceforge.net/DTD/sodipodi-0.dtd"
   xmlns="http://www.w3.org/2000/svg"
   xmlns:svg="http://www.w3.org/2000/svg"><defs
   id="defs11">
	
	
	
	
	
	
	
	
	
	
	
	
</defs><sodipodi:namedview
   id="namedview11"
   pagecolor="#ffffff"
   bordercolor="#000000"
   borderopacity="0.25"
   inkscape:showpageshadow="2"
   inkscape:pageopacity="0.0"
   inkscape:pagecheckerboard="0"
   inkscape:deskcolor="#d1d1d1"
   inkscape:zoom="0.056034483"
   inkscape:cx="232"
   inkscape:cy="240.92308"
   inkscape:window-width="1104"
   inkscape:window-height="250"
   inkscape:window-x="43"
   inkscape:window-y="25"
   inkscape:window-maximized="0"
   inkscape:current-layer="Layer_1" />
<path
   style="fill:#e69f5f"
   d="m 398.296,336 c 0,0 -50.959,38.521 -128,48 -63.667,0 -78,0.004 -78,0.004 0,0 -124.843,-102.67 -124.843,-248.469 C 67.453,58.749 137.478,0 214.264,0 h 0.064 C 291.114,0 357.725,62.079 361.139,135.535 367.296,268 398.296,336 398.296,336 Z"
   id="path1" /><path
   style="fill:#e09156"
   d="m 214.296,88 c 0,-21.049 -14.776,-73.335 -76.354,-67.494 -41.286,23.596 -70.489,65.504 -70.489,115.029 0,145.798 77.176,235.84 148.843,235.84 z"
   id="path2" /><path
   style="fill:#ffd7a3"
   d="m 362.673,436.828 -9.576,-71.817 c -1.752,-13.142 -9.895,-24.558 -23.304,-31.262 l -37.647,-16.592 c -3.287,-1.449 -6.984,-0.491 -9.198,2.064 l -9.712,-3.574 c -6.534,-2.178 -10.94,-8.292 -10.94,-15.179 v -25.802 l 34.461,-14.358 c 17.888,-7.453 29.539,-24.93 29.539,-44.308 v -8 c 13.255,0 24,-10.745 24,-24 0,-13.255 -10.745,-24 -24,-24 v -16 c 0,-22.091 -17.909,-40 -40,-40 h -33.373 c -14.488,0 -28.383,-5.755 -38.627,-16 -10.245,10.245 -24.139,16 -38.627,16 h -33.373 c -22.091,0 -40,17.909 -40,40 v 16 c -13.255,0 -24,10.745 -24,24 0,13.255 10.745,24 24,24 v 8 c 0,19.378 11.651,36.855 29.538,44.308 l 34.462,14.359 v 25.801 c 0,6.887 -4.407,13.001 -10.94,15.179 l -9.712,3.574 c -2.214,-2.554 -5.911,-3.512 -9.198,-2.064 l -37.647,16.592 c -13.41,6.705 -21.552,18.121 -23.304,31.262 l -9.576,71.817 C 64,451.216 75.193,464 89.708,464 h 4.588 240 4.587 c 14.515,0 25.708,-12.784 23.79,-27.172 z"
   id="path3" /><path
   style="fill:#fdc88e"
   d="m 262.296,274.667 -96,-0.663 v 26.464 c 0,5.693 -3.017,10.852 -7.752,13.701 66.925,11.564 103.752,-39.502 103.752,-39.502 z"
   id="path4" /><path
   style="fill:#ffe1b2"
   d="m 326.296,160 v -16 c 0,-22.091 -17.909,-40 -40,-40 h -33.373 c -14.488,0 -28.383,-5.755 -38.627,-16 -10.245,10.245 -24.139,16 -38.627,16 h -33.373 c -22.091,0 -40,17.909 -40,40 v 16 c -13.255,0 -24,10.745 -24,24 0,13.255 10.745,24 24,24 v 8 c 0,19.378 11.651,36.855 29.538,44.308 l 51.69,21.538 c 9.75,4.063 20.208,6.154 30.77,6.154 10.562,0 21.02,-2.092 30.769,-6.154 l 51.693,-21.538 c 17.888,-7.453 29.539,-24.93 29.539,-44.308 v -8 c 13.255,0 24,-10.745 24,-24 10e-4,-13.255 -10.744,-24 -23.999,-24 z"
   id="path5" /><path
   style="fill:#623f33"
   d="m 158.296,192 v 0 c -4.4,0 -8,-3.6 -8,-8 v -8 c 0,-4.4 3.6,-8 8,-8 v 0 c 4.4,0 8,3.6 8,8 v 8 c 0,4.4 -3.6,8 -8,8 z"
   id="path6" /><path
   style="fill:#623f33"
   d="m 270.296,192 v 0 c -4.4,0 -8,-3.6 -8,-8 v -8 c 0,-4.4 3.6,-8 8,-8 v 0 c 4.4,0 8,3.6 8,8 v 8 c 0,4.4 -3.6,8 -8,8 z"
   id="path7" /><path
   style="fill:#e4b07b"
   d="m 214.296,248.219 c -14.223,0 -27.527,-3.5 -36.5,-9.605 -3.652,-2.484 -4.602,-7.461 -2.113,-11.113 2.48,-3.648 7.461,-4.598 11.113,-2.113 6.289,4.277 16.57,6.832 27.5,6.832 10.93,0 21.211,-2.555 27.5,-6.832 3.66,-2.492 8.629,-1.539 11.113,2.113 2.488,3.652 1.539,8.629 -2.113,11.113 -8.973,6.105 -22.277,9.605 -36.5,9.605 z"
   id="path8" /><path
   style="fill:#ff6473"
   d="m 362.673,436.828 -9.576,-71.817 c -1.752,-13.142 -9.895,-24.558 -23.304,-31.262 l -37.647,-16.592 c -4.168,-1.837 -9.007,0.185 -10.627,4.441 C 271.202,348.713 245.033,368 214.296,368 c -30.737,0 -56.906,-19.288 -67.224,-46.403 -1.62,-4.257 -6.459,-6.278 -10.627,-4.441 l -37.647,16.592 c -13.41,6.705 -21.552,18.121 -23.304,31.262 l -9.576,71.817 C 64,451.216 75.193,464 89.708,464 h 249.175 c 14.515,0 25.708,-12.784 23.79,-27.172 z"
   id="path9" /><path
   style="fill:#8db9e2"
   d="M 306.132,326.662 277.346,372.72 C 272.96,379.737 265.269,384 256.994,384 h -85.396 c -8.275,0 -15.966,-4.263 -20.352,-11.28 L 122.46,326.662 c -2.312,-3.699 -7.16,-4.864 -10.9,-2.62 l -26.278,15.767 c -3.837,2.302 -5.04,7.305 -2.668,11.1 L 118.296,408 h 192 l 35.682,-57.092 c 2.372,-3.795 1.169,-8.797 -2.668,-11.1 l -26.278,-15.767 c -3.74,-2.243 -8.588,-1.077 -10.9,2.621 z"
   id="path10" /><rect
   x="118.296"
   y="408"
   style="fill:#6aa2de"
   width="192"
   height="56"
   id="rect10" /><path
   style="fill:#ffd7a3"
   d="m 224.987,96.24 c -3.851,-2.295 -7.467,-5.017 -10.691,-8.24 -10.245,10.245 -24.139,16 -38.628,16 h -33.373 c -2.748,0 -5.418,0.298 -8,0.835 v -0.029 c -18.257,3.707 -32,19.843 -32,39.194 v 16 c -13.255,0 -24,10.745 -24,24 0,13.255 10.745,24 24,24 v 8 c 0,19.378 11.651,36.855 29.538,44.308 l 51.69,21.538 c 2.53,1.054 5.112,1.962 7.727,2.749 -22.844,-16.711 -38.05,-31.32 -46.96,-40.872 -6.482,-6.95 -9.995,-16.121 -9.995,-25.625 v -97.804 c 68.569,2.045 82.076,-10.921 90.692,-24.054 z"
   id="path11" />
</svg>
