<?xml version="1.0" encoding="UTF-8" standalone="no"?>
<!-- Uploaded to: SVG Repo, www.svgrepo.com, Generator: SVG Repo Mixer Tools -->

<svg
   version="1.1"
   id="Capa_1"
   viewBox="0 0 219.582 219.582"
   xml:space="preserve"
   sodipodi:docname="girl-svgrepo-com(10).svg"
   inkscape:version="1.4 (e7c3feb1, 2024-10-09)"
   xmlns:inkscape="http://www.inkscape.org/namespaces/inkscape"
   xmlns:sodipodi="http://sodipodi.sourceforge.net/DTD/sodipodi-0.dtd"
   xmlns="http://www.w3.org/2000/svg"
   xmlns:svg="http://www.w3.org/2000/svg"><defs
   id="defs18">
	
	
	
	
	
	
	
	
	
	
	
	
	
	
</defs><sodipodi:namedview
   id="namedview18"
   pagecolor="#ffffff"
   bordercolor="#000000"
   borderopacity="0.25"
   inkscape:showpageshadow="2"
   inkscape:pageopacity="0.0"
   inkscape:pagecheckerboard="0"
   inkscape:deskcolor="#d1d1d1"
   inkscape:zoom="0.11840679"
   inkscape:cx="109.791"
   inkscape:cy="114.01373"
   inkscape:window-width="1104"
   inkscape:window-height="250"
   inkscape:window-x="43"
   inkscape:window-y="25"
   inkscape:window-maximized="0"
   inkscape:current-layer="Capa_1" />
<path
   style="fill:#371c06"
   d="m 55.626,154.767 c -1.764,0.441 0.87,18.505 8.377,27.777 0,0 -0.488,-13.107 3.115,-17.637 0,0 12.628,6.467 5.639,20.87 0,0 7.561,0.796 11.528,-11.359 0,0 -3.053,11.427 7.513,17.934 10.565,6.507 17.993,2.459 17.993,2.459 v -60.18 H 52.775 Z"
   id="path1" /><path
   style="fill:#371c06"
   d="m 164.055,154.767 c 1.764,0.441 -0.87,18.505 -8.377,27.777 0,0 0.488,-13.107 -3.115,-17.637 0,0 -12.628,6.467 -5.639,20.87 0,0 -7.561,0.796 -11.529,-11.359 0,0 3.053,11.427 -7.512,17.934 -10.565,6.507 -17.993,2.459 -17.993,2.459 v -60.18 h 57.016 z"
   id="path2" /><path
   style="fill:#371c06"
   d="M 113.239,0 C 61.426,0 74.371,51.591 74.371,51.591 h 38.868 38.868 c 0,0 12.947,-51.591 -38.868,-51.591 z"
   id="path3" /><g
   id="g11">
		<g
   id="g10">
			<rect
   x="95.162003"
   y="169.31599"
   style="fill:#fdcc9b"
   width="29.395"
   height="32.923"
   id="rect3" />
			<path
   style="fill:#fcbc85"
   d="m 95.162,173.194 c 0,0 12.364,7.874 29.395,6.051 v -9.929 H 95.162 Z"
   id="path4" />
			<ellipse
   style="fill:#fcbc85"
   cx="52.775002"
   cy="118.267"
   rx="14.343"
   ry="16.364"
   id="ellipse4" />
			<ellipse
   style="fill:#fcbc85"
   cx="166.94299"
   cy="118.267"
   rx="14.343"
   ry="16.364"
   id="ellipse5" />
			<path
   style="fill:#fdcc9b"
   d="m 166.885,87.011 c 0,-24.104 -17.637,-41.74 -57.025,-41.74 -39.39,0 -57.026,17.637 -57.026,41.74 0,24.104 -4.115,87.597 57.026,87.597 61.14,-0.001 57.025,-63.493 57.025,-87.597 z"
   id="path5" />
			<g
   id="g8">
				<g
   id="g6">
					<ellipse
   style="fill:#3b2519"
   cx="82.083"
   cy="114.349"
   rx="6.1729999"
   ry="6.7610002"
   id="ellipse6" />
					<circle
   style="fill:#ffffff"
   cx="79.391998"
   cy="111.363"
   r="1.846"
   id="circle6" />
				</g>
				<path
   style="fill:#4c2d19"
   d="m 72.208,99.771 c 2.919,1.117 7.606,-3.799 18.335,0.478 1.956,0.78 3.124,-6.668 -8.377,-6.668 -9.958,0 -11.722,5.515 -9.958,6.19 z"
   id="path6" />
				<g
   id="g7">
					<ellipse
   style="fill:#3b2519"
   cx="138.397"
   cy="114.349"
   rx="6.1729999"
   ry="6.7610002"
   id="ellipse7" />
					<circle
   style="fill:#ffffff"
   cx="135.70599"
   cy="111.363"
   r="1.847"
   id="circle7" />
				</g>
				<path
   style="fill:#4c2d19"
   d="m 147.51,99.771 c -2.919,1.117 -7.605,-3.799 -18.335,0.478 -1.956,0.78 -3.123,-6.668 8.378,-6.668 9.957,0 11.72,5.515 9.957,6.19 z"
   id="path7" />
			</g>
			<path
   style="fill:#fcbc85"
   d="m 109.859,138.129 c -6.1,0 -9.774,-4.557 -9.774,-2.352 0,2.204 1.764,6.393 9.774,6.393 8.01,0 9.773,-4.189 9.773,-6.393 10e-4,-2.205 -3.673,2.352 -9.773,2.352 z"
   id="path8" />
			<path
   style="fill:#fcbc85"
   d="m 109.859,158.4 c -2.109,0 -3.381,-1.576 -3.381,-0.814 0,0.762 0.61,2.212 3.381,2.212 2.771,0 3.38,-1.449 3.38,-2.212 0,-0.763 -1.27,0.814 -3.38,0.814 z"
   id="path9" />
			<path
   style="fill:#f7945e"
   d="m 109.859,152.782 c -9.668,0 -15.493,-3.938 -15.493,-2.939 0,0.997 2.796,4.924 15.493,4.924 12.697,0 15.492,-3.927 15.492,-4.924 0,-0.998 -5.824,2.939 -15.492,2.939 z"
   id="path10" />
		</g>
		<circle
   style="fill:#f9aa8d"
   cx="74.144997"
   cy="135.95399"
   r="8.3780003"
   id="circle10" />
		<circle
   style="fill:#f9aa8d"
   cx="146.603"
   cy="135.95399"
   r="8.3769999"
   id="circle11" />
	</g><path
   style="fill:#fdc16e"
   d="m 109.859,182.544 v 37.038 H 45.486 c 0,-14.991 30.569,-37.038 64.373,-37.038 z"
   id="path11" /><path
   style="fill:#fdc16e"
   d="m 109.859,182.544 v 37.038 h 64.372 c 0,-14.991 -30.568,-37.038 -64.372,-37.038 z"
   id="path12" /><path
   style="fill:#fdcc9b"
   d="m 95.162,183.826 14.697,26.275 c 0.879,0 14.697,-26.275 14.697,-26.275 0,0 -15.248,-5.551 -29.394,0 z"
   id="path13" /><polygon
   style="fill:#f68e4d"
   points="105.009,202.827 109.859,219.582 109.859,210.102 "
   id="polygon13" /><polygon
   style="fill:#f68e4d"
   points="114.318,202.827 109.859,219.582 109.859,210.102 "
   id="polygon14" /><path
   style="fill:#4d423e"
   d="m 89.136,219.582 -3.04,-33.805 c 0,0 -6.456,-0.273 -14.215,5.365 l -6.444,28.44 z"
   id="path14" /><path
   style="fill:#4d423e"
   d="m 130.582,219.582 3.04,-33.805 c 0,0 6.456,-0.273 14.215,5.365 l 6.445,28.44 z"
   id="path15" /><path
   style="fill:#4c2d19"
   d="m 109.859,18.521 c -90.83,0 -78.926,99.648 -67.021,123.649 11.905,24 0,40.373 0,40.373 20.282,-8.377 16.461,-40.373 16.461,-40.373 6.525,7.539 18.373,10.053 18.373,10.053 -17.636,-7.393 -24.854,-62.264 4.029,-64.478 28.884,-2.214 60.344,-12.787 60.344,-12.787 0,0 20.068,55.321 6.066,77.265 0,0 9.779,-6.658 14.644,-17.049 0,0 -4.396,30.614 15.005,47.369 0,0 -10.141,-29.041 0,-47.369 10.142,-18.327 22.929,-116.653 -67.901,-116.653 z"
   id="path16" /><path
   style="fill:#f68e4d"
   d="m 95.162,179.519 8.535,8.929 6.162,21.654 -8.818,-13.227 -9.921,5.365 -8.597,-15.462 c 0,-0.001 7.421,-6.757 12.639,-7.259 z"
   id="path17" /><path
   style="fill:#f68e4d"
   d="m 124.556,179.519 -8.536,8.929 -6.161,21.654 8.818,-13.227 9.92,5.365 8.598,-15.462 c 0,-0.001 -7.421,-6.757 -12.639,-7.259 z"
   id="path18" />
</svg>
