<?xml version="1.0" encoding="UTF-8" standalone="no"?>
<!-- Uploaded to: SVG Repo, www.svgrepo.com, Generator: SVG Repo Mixer Tools -->

<svg
   version="1.1"
   id="Capa_1"
   viewBox="0 0 202.413 202.413"
   xml:space="preserve"
   sodipodi:docname="girl-svgrepo-com(12).svg"
   inkscape:version="1.4 (e7c3feb1, 2024-10-09)"
   xmlns:inkscape="http://www.inkscape.org/namespaces/inkscape"
   xmlns:sodipodi="http://sodipodi.sourceforge.net/DTD/sodipodi-0.dtd"
   xmlns="http://www.w3.org/2000/svg"
   xmlns:svg="http://www.w3.org/2000/svg"><defs
   id="defs19">
	
	
	
	
	
	
	
	
	
	
	
	
	
</defs><sodipodi:namedview
   id="namedview19"
   pagecolor="#ffffff"
   bordercolor="#000000"
   borderopacity="0.25"
   inkscape:showpageshadow="2"
   inkscape:pageopacity="0.0"
   inkscape:pagecheckerboard="0"
   inkscape:deskcolor="#d1d1d1"
   inkscape:zoom="0.12845025"
   inkscape:cx="101.2065"
   inkscape:cy="97.31394"
   inkscape:window-width="1104"
   inkscape:window-height="250"
   inkscape:window-x="43"
   inkscape:window-y="25"
   inkscape:window-maximized="0"
   inkscape:current-layer="Capa_1" />
<path
   style="fill:#1c0d06"
   d="m 101.422,110.407 v 92.006 H 37.049 c 0,0 0.002,-39.459 -7.055,-70.891 z"
   id="path1" /><path
   style="fill:#1c0d06"
   d="m 100.927,110.407 v 92.006 H 165.3 c 0,0 -0.002,-39.459 7.055,-70.891 z"
   id="path2" /><g
   id="g10">
		<g
   id="g9">
			<rect
   x="86.723999"
   y="152.14799"
   style="fill:#fdcc9b"
   width="29.395"
   height="32.922001"
   id="rect2" />
			<path
   style="fill:#fcbc85"
   d="m 86.724,156.025 c 0,0 12.365,7.874 29.395,6.05 v -9.928 H 86.724 Z"
   id="path3" />
			<ellipse
   style="fill:#fcbc85"
   cx="44.337002"
   cy="101.098"
   rx="14.343"
   ry="16.364"
   id="ellipse3" />
			<ellipse
   style="fill:#fcbc85"
   cx="158.505"
   cy="101.098"
   rx="14.343"
   ry="16.364"
   id="ellipse4" />
			<path
   style="fill:#fdcc9b"
   d="m 158.447,69.842 c 0,-24.103 -17.637,-41.741 -57.026,-41.741 -39.389,0 -57.025,17.637 -57.025,41.741 0,24.104 -4.115,87.597 57.025,87.597 61.141,0 57.026,-63.493 57.026,-87.597 z"
   id="path4" />
			<g
   id="g7">
				<g
   id="g5">
					<ellipse
   style="fill:#3b2519"
   cx="73.644997"
   cy="97.179001"
   rx="6.1729999"
   ry="6.7610002"
   id="ellipse5" />
					<circle
   style="fill:#ffffff"
   cx="70.954002"
   cy="94.194"
   r="1.846"
   id="circle5" />
				</g>
				<path
   style="fill:#36221e"
   d="m 63.77,82.602 c 2.919,1.118 7.605,-3.798 18.335,0.478 1.956,0.78 3.123,-6.668 -8.378,-6.668 -9.957,0 -11.72,5.515 -9.957,6.19 z"
   id="path5" />
				<g
   id="g6">
					<ellipse
   style="fill:#3b2519"
   cx="129.96001"
   cy="97.179001"
   rx="6.1729999"
   ry="6.7610002"
   id="ellipse6" />
					<circle
   style="fill:#ffffff"
   cx="127.268"
   cy="94.194"
   r="1.846"
   id="circle6" />
				</g>
				<path
   style="fill:#36221e"
   d="m 139.072,82.602 c -2.919,1.118 -7.606,-3.798 -18.335,0.478 -1.956,0.78 -3.123,-6.668 8.377,-6.668 9.958,0 11.722,5.515 9.958,6.19 z"
   id="path6" />
			</g>
			<path
   style="fill:#fcbc85"
   d="m 101.421,120.96 c -6.099,0 -9.773,-4.556 -9.773,-2.352 0,2.205 1.764,6.394 9.773,6.394 8.011,0 9.774,-4.189 9.774,-6.394 0,-2.205 -3.675,2.352 -9.774,2.352 z"
   id="path7" />
			<path
   style="fill:#fcbc85"
   d="m 101.421,141.23 c -2.109,0 -3.38,-1.576 -3.38,-0.813 0,0.763 0.609,2.211 3.38,2.211 2.771,0 3.381,-1.448 3.381,-2.211 0,-0.763 -1.272,0.813 -3.381,0.813 z"
   id="path8" />
			<path
   style="fill:#f7945e"
   d="m 101.421,135.613 c -9.668,0 -15.492,-3.936 -15.492,-2.939 0,0.997 2.795,4.924 15.492,4.924 12.697,0 15.493,-3.926 15.493,-4.924 0,-0.998 -5.825,2.939 -15.493,2.939 z"
   id="path9" />
		</g>
		<circle
   style="fill:#f9aa8d"
   cx="65.707001"
   cy="118.784"
   r="8.3769999"
   id="circle9" />
		<circle
   style="fill:#f9aa8d"
   cx="138.164"
   cy="118.784"
   r="8.3769999"
   id="circle10" />
	</g><path
   style="fill:#c05371"
   d="m 101.421,165.375 v 37.038 H 37.049 c 0,-14.992 30.568,-37.038 64.372,-37.038 z"
   id="path10" /><path
   style="fill:#c05371"
   d="m 101.421,165.375 v 37.038 h 64.373 c 0,-14.992 -30.569,-37.038 -64.373,-37.038 z"
   id="path11" /><path
   style="fill:#c05371"
   d="m 101.421,165.375 v 37.038 h 64.373 c 0,-14.992 -30.569,-37.038 -64.373,-37.038 z"
   id="path12" /><path
   style="fill:#98375e"
   d="m 101.421,165.375 c -14.605,0 -28.594,4.125 -39.787,10.009 8.461,12.851 21.058,23.381 39.787,23.381 18.73,0 31.327,-10.531 39.787,-23.381 -11.193,-5.884 -25.182,-10.009 -39.787,-10.009 z"
   id="path13" /><path
   style="fill:#c05371"
   d="m 101.421,165.375 c -11.439,0 -22.473,2.56 -32.112,6.481 6.077,10.609 16.005,20.386 32.112,20.386 16.107,0 26.035,-9.777 32.113,-20.386 -9.64,-3.921 -20.673,-6.481 -32.113,-6.481 z"
   id="path14" /><path
   style="fill:#fdcc9b"
   d="m 86.724,166.797 c 0,0 4.3,11.776 14.697,11.776 10.398,0 14.697,-11.777 14.697,-11.777 0,0 -15.248,-5.551 -29.394,0.001 z"
   id="path15" /><path
   style="fill:#98375e"
   d="m 101.421,165.375 c -8.766,0 -17.297,1.503 -25.151,3.96 4.164,8.464 11.695,17.379 25.151,17.379 13.457,0 20.987,-8.916 25.152,-17.379 -7.854,-2.457 -16.387,-3.96 -25.152,-3.96 z"
   id="path16" /><path
   style="fill:#c05371"
   d="m 82.642,167.607 c 2.454,6.538 7.74,15.217 18.779,15.217 11.04,0 16.326,-8.679 18.78,-15.217 -6.019,-1.405 -12.334,-2.232 -18.78,-2.232 -6.446,0 -12.76,0.827 -18.779,2.232 z"
   id="path17" /><path
   style="fill:#fdcc9b"
   d="m 116.118,166.796 c 0,0 -1.91,11.777 -14.697,11.777 -12.786,0 -14.697,-11.776 -14.697,-11.776 0,0 5.732,-3.289 14.697,-3.289 8.966,0 14.697,3.288 14.697,3.288 z"
   id="path18" /><path
   style="fill:#342620"
   d="M 101.421,0.012 V 0 C 101.348,0 101.28,0.005 101.207,0.006 101.133,0.005 101.065,0 100.991,0 V 0.012 C 34.804,0.266 23.827,57.886 27.787,114.64 c 3.969,56.879 37.92,76.72 37.92,76.72 -18.517,-19.4 -13.966,-64.198 -13.966,-64.198 8.079,12.081 19.213,13.047 19.213,13.047 -21.207,-13.673 -20.239,-60.843 -5.247,-63.797 14.142,-2.786 33.36,-16.896 35.5,-18.49 2.139,1.595 21.356,15.704 35.498,18.49 14.992,2.954 15.961,50.124 -5.246,63.797 0,0 11.134,-0.966 19.214,-13.047 0,0 4.551,44.797 -13.968,64.198 0,0 33.952,-19.841 37.921,-76.72 C 178.585,57.886 167.609,0.266 101.421,0.012 Z"
   id="path19" />
</svg>
