<?xml version="1.0" encoding="UTF-8" standalone="no"?>
<!-- Uploaded to: SVG Repo, www.svgrepo.com, Generator: SVG Repo Mixer Tools -->

<svg
   version="1.1"
   id="Layer_1"
   viewBox="0 0 340 340"
   xml:space="preserve"
   sodipodi:docname="girl-svgrepo-com(9).svg"
   inkscape:version="1.4 (e7c3feb1, 2024-10-09)"
   xmlns:inkscape="http://www.inkscape.org/namespaces/inkscape"
   xmlns:sodipodi="http://sodipodi.sourceforge.net/DTD/sodipodi-0.dtd"
   xmlns="http://www.w3.org/2000/svg"
   xmlns:svg="http://www.w3.org/2000/svg"><defs
   id="defs1">
	
	
	
	
	
	
	
	
	
	
	
	
	
	
	
	
	
	
	
	
</defs><sodipodi:namedview
   id="namedview1"
   pagecolor="#ffffff"
   bordercolor="#000000"
   borderopacity="0.25"
   inkscape:showpageshadow="2"
   inkscape:pageopacity="0.0"
   inkscape:pagecheckerboard="0"
   inkscape:deskcolor="#d1d1d1"
   inkscape:zoom="0.076470588"
   inkscape:cx="170"
   inkscape:cy="176.53846"
   inkscape:window-width="1104"
   inkscape:window-height="250"
   inkscape:window-x="43"
   inkscape:window-y="25"
   inkscape:window-maximized="0"
   inkscape:current-layer="Layer_1" />
<path
   id="XMLID_1212_"
   style="fill:#50412e"
   d="M 170,0 C 155.888,0 142.398,2.661 130,7.503 89.027,23.505 60,63.361 60,110 v 40 H 280 V 110 C 280,49.249 230.751,0 170,0 Z" /><path
   id="XMLID_1213_"
   style="fill:#ffb9a7"
   d="m 191,240 h -21 -21 c -38.107,0 -69,30.893 -69,69 v 31 h 90 90 v -31 c 0,-38.107 -30.893,-69 -69,-69 z" /><path
   id="XMLID_1214_"
   style="fill:#f285b9"
   d="m 170,240 h -21 c -38.107,0 -69,30.893 -69,69 v 31 h 90 z" /><path
   id="XMLID_1215_"
   style="fill:#00a1a7"
   d="m 140,320 v -79.396 c -11.031,1.438 -21.244,5.469 -30,11.48 V 320 Z" /><path
   id="XMLID_1216_"
   style="fill:#00d7df"
   d="m 200,320 v -79.396 c 11.031,1.438 21.244,5.469 30,11.48 V 320 Z" /><g
   id="XMLID_1217_">
		<path
   id="XMLID_1218_"
   d="M 130,7.503 V 150 H 60 V 110 C 60,63.361 89.027,23.505 130,7.503 Z" />
	</g><g
   id="XMLID_1219_">
		<path
   id="XMLID_1220_"
   style="fill:#ffeacf"
   d="m 200,240 c 0,16.568 -13.432,30 -30,30 v 0 c -16.568,0 -30,-13.432 -30,-30 v -30 c 0,-16.568 13.432,-30 30,-30 v 0 c 16.568,0 30,13.432 30,30 z" />
	</g><g
   id="XMLID_1221_">
		<ellipse
   id="XMLID_1222_"
   style="fill:#ffeacf"
   cx="170"
   cy="135"
   rx="100"
   ry="105" />
	</g><g
   id="XMLID_1223_">
		<path
   id="XMLID_1224_"
   style="fill:#e8667d"
   d="m 170,205.858 c -17.419,0 -33.58,-9.436 -42.176,-24.627 -0.68,-1.202 -0.257,-2.727 0.945,-3.407 1.201,-0.681 2.727,-0.257 3.407,0.945 7.71,13.625 22.203,22.089 37.824,22.089 15.622,0 30.115,-8.464 37.824,-22.089 0.681,-1.202 2.204,-1.624 3.407,-0.945 1.201,0.68 1.624,2.205 0.944,3.407 -8.594,15.191 -24.754,24.627 -42.175,24.627 z" />
	</g><g
   id="XMLID_1225_">
		<g
   id="XMLID_1226_">
			<ellipse
   id="XMLID_1227_"
   style="fill:#ffb9a7"
   cx="135"
   cy="160"
   rx="15"
   ry="10" />
		</g>
		<g
   id="XMLID_1228_">
			<circle
   id="XMLID_1229_"
   style="fill:#50412e"
   cx="135"
   cy="137.5"
   r="7.5" />
		</g>
	</g><g
   id="XMLID_1230_">
		<g
   id="XMLID_1231_">
			<ellipse
   id="XMLID_1232_"
   style="fill:#ffb9a7"
   cx="205"
   cy="160"
   rx="15"
   ry="10" />
		</g>
		<g
   id="XMLID_1233_">
			<circle
   id="XMLID_1234_"
   style="fill:#50412e"
   cx="205"
   cy="137.5"
   r="7.5" />
		</g>
	</g><g
   id="XMLID_1235_">
		<path
   id="XMLID_1236_"
   style="fill:#ffd6a0"
   d="m 170,228 c -22.528,0 -44.084,-4.358 -63.96,-12.294 C 123.376,230.872 145.67,240 170,240 c 24.33,0 46.624,-9.128 63.959,-24.294 C 214.084,223.642 192.528,228 170,228 Z" />
	</g><g
   id="XMLID_1237_">
		<circle
   id="XMLID_1238_"
   style="fill:#ffeacf"
   cx="70"
   cy="150"
   r="20" />
	</g><g
   id="XMLID_1239_">
		<circle
   id="XMLID_1240_"
   style="fill:#ffeacf"
   cx="270"
   cy="150"
   r="20" />
	</g><g
   id="XMLID_1241_">
		<path
   id="XMLID_1242_"
   style="fill:#50412e"
   d="m 270,130 c 0,0 -120,-10 -140,-80 l -10,-10 10,-20 71.5,-2.5 57.5,34 16,41 z" />
	</g><rect
   id="XMLID_1243_"
   x="110"
   y="310"
   style="fill:#00a1a7"
   width="120"
   height="30" /><rect
   id="XMLID_1244_"
   x="110"
   y="310"
   style="fill:#006c70"
   width="60"
   height="30" /><g
   id="XMLID_1245_">
		<path
   id="XMLID_1246_"
   d="m 70,130 c 0,0 60,-20 60,-80 V 20 c 0,0 -40.54,35.811 -50,50 -20,30 -10,60 -10,60 z" />
	</g><g
   id="XMLID_1247_">
		<path
   id="XMLID_1248_"
   d="m 90,135 c 0,-24.04 0,-65 0,-65 0,0 -30,21.132 -30,40 v 60 c 0,22.091 17.909,40 40,40 0.008,0 0.016,-0.001 0.024,-0.001 C 81.499,190.941 90,164.383 90,135 Z" />
	</g><g
   id="XMLID_1249_">
		<path
   id="XMLID_1250_"
   style="fill:#50412e"
   d="m 250,135 c 0,-24.04 0,-65 0,-65 0,0 30,21.132 30,40 v 60 c 0,22.091 -17.908,40 -40,40 -0.008,0 -0.016,-0.001 -0.023,-0.001 C 258.501,190.941 250,164.383 250,135 Z" />
	</g>
</svg>
