<?xml version="1.0" encoding="UTF-8" standalone="no"?>
<!-- Uploaded to: SVG Repo, www.svgrepo.com, Generator: SVG Repo Mixer Tools -->

<svg
   version="1.1"
   id="Capa_1"
   viewBox="0 0 204.348 204.348"
   xml:space="preserve"
   sodipodi:docname="girl-svgrepo-com(11).svg"
   inkscape:version="1.4 (e7c3feb1, 2024-10-09)"
   xmlns:inkscape="http://www.inkscape.org/namespaces/inkscape"
   xmlns:sodipodi="http://sodipodi.sourceforge.net/DTD/sodipodi-0.dtd"
   xmlns="http://www.w3.org/2000/svg"
   xmlns:svg="http://www.w3.org/2000/svg"><defs
   id="defs20">
	
	
	
	
	
	
	
	
	
	
	
	
	
	
</defs><sodipodi:namedview
   id="namedview20"
   pagecolor="#ffffff"
   bordercolor="#000000"
   borderopacity="0.25"
   inkscape:showpageshadow="2"
   inkscape:pageopacity="0.0"
   inkscape:pagecheckerboard="0"
   inkscape:deskcolor="#d1d1d1"
   inkscape:zoom="0.12723393"
   inkscape:cx="98.244234"
   inkscape:cy="98.244234"
   inkscape:window-width="1104"
   inkscape:window-height="250"
   inkscape:window-x="43"
   inkscape:window-y="25"
   inkscape:window-maximized="0"
   inkscape:current-layer="Capa_1" />
<path
   style="fill:#86461b"
   d="m 183.045,111.688 c 0,0 12.558,9.032 4.749,22.759 0,0 14.423,9.875 3.399,26.029 0,0 10.564,15.359 0,25.354 0,0 2.535,11.932 -11.611,12.492 0,0 -0.592,6.026 -12.936,6.026 l -64.373,-14.991 v -80.202 z"
   id="path1" /><path
   style="fill:#86461b"
   d="m 21.303,111.688 c 0,0 -12.558,9.032 -4.748,22.759 0,0 -14.423,9.875 -3.4,26.029 0,0 -10.564,15.359 0,25.354 0,0 -2.535,11.932 11.611,12.492 0,0 0.592,6.026 12.936,6.026 l 64.373,-14.991 v -80.202 z"
   id="path2" /><path
   style="fill:#703910"
   d="m 58.129,139.533 c 0,0 -8.173,12.392 1.204,17.219 0,0 -7.951,7.275 -2.252,13.792 0,0 -15.267,4.467 -5.566,18.033 9.701,13.566 50.759,7.393 50.759,7.393 v -64.815 z"
   id="path3" /><path
   style="fill:#703910"
   d="m 146.219,139.533 c 0,0 8.174,12.392 -1.204,17.219 0,0 7.952,7.275 2.252,13.792 0,0 15.267,4.467 5.566,18.033 -9.7,13.566 -50.759,7.393 -50.759,7.393 v -64.815 z"
   id="path4" /><g
   id="g12">
		<g
   id="g11">
			<rect
   x="87.376999"
   y="154.08299"
   style="fill:#fdcc9b"
   width="29.395"
   height="32.923"
   id="rect4" />
			<path
   style="fill:#fcbc85"
   d="m 87.377,157.961 c 0,0 12.365,7.874 29.395,6.051 v -9.929 H 87.377 Z"
   id="path5" />
			<ellipse
   style="fill:#fcbc85"
   cx="44.990002"
   cy="103.033"
   rx="14.343"
   ry="16.364"
   id="ellipse5" />
			<ellipse
   style="fill:#fcbc85"
   cx="159.158"
   cy="103.033"
   rx="14.343"
   ry="16.364"
   id="ellipse6" />
			<path
   style="fill:#fdcc9b"
   d="m 159.1,71.777 c 0,-24.104 -17.637,-41.74 -57.025,-41.74 -39.39,0 -57.026,17.637 -57.026,41.74 0,24.104 -4.115,87.597 57.026,87.597 61.14,0 57.025,-63.492 57.025,-87.597 z"
   id="path6" />
			<g
   id="g9">
				<g
   id="g7">
					<ellipse
   style="fill:#3b2519"
   cx="74.299004"
   cy="99.114998"
   rx="6.1729999"
   ry="6.7610002"
   id="ellipse7" />
					<circle
   style="fill:#ffffff"
   cx="71.607002"
   cy="96.129997"
   r="1.846"
   id="circle7" />
				</g>
				<path
   style="fill:#86461b"
   d="m 64.424,84.538 c 2.918,1.117 7.605,-3.799 18.334,0.478 1.956,0.78 3.124,-6.668 -8.377,-6.668 -9.957,-0.001 -11.72,5.514 -9.957,6.19 z"
   id="path7" />
				<g
   id="g8">
					<ellipse
   style="fill:#3b2519"
   cx="130.61301"
   cy="99.114998"
   rx="6.1729999"
   ry="6.7610002"
   id="ellipse8" />
					<circle
   style="fill:#ffffff"
   cx="127.921"
   cy="96.129997"
   r="1.847"
   id="circle8" />
				</g>
				<path
   style="fill:#86461b"
   d="m 139.725,84.538 c -2.919,1.117 -7.605,-3.799 -18.335,0.478 -1.955,0.78 -3.123,-6.668 8.378,-6.668 9.957,-0.001 11.721,5.514 9.957,6.19 z"
   id="path8" />
			</g>
			<path
   style="fill:#fcbc85"
   d="m 102.075,122.895 c -6.1,0 -9.774,-4.557 -9.774,-2.352 0,2.204 1.764,6.393 9.774,6.393 8.01,0 9.773,-4.189 9.773,-6.393 0,-2.204 -3.674,2.352 -9.773,2.352 z"
   id="path9" />
			<path
   style="fill:#fcbc85"
   d="m 102.075,143.166 c -2.109,0 -3.381,-1.576 -3.381,-0.813 0,0.763 0.61,2.212 3.381,2.212 2.771,0 3.381,-1.449 3.381,-2.212 -0.001,-0.763 -1.272,0.813 -3.381,0.813 z"
   id="path10" />
			<path
   style="fill:#f7945e"
   d="m 102.075,137.549 c -9.668,0 -15.493,-3.938 -15.493,-2.939 0,0.997 2.796,4.924 15.493,4.924 12.697,0 15.492,-3.927 15.492,-4.924 0,-0.999 -5.824,2.939 -15.492,2.939 z"
   id="path11" />
		</g>
		<circle
   style="fill:#f9aa8d"
   cx="66.361"
   cy="120.72"
   r="8.3780003"
   id="circle11" />
		<circle
   style="fill:#f9aa8d"
   cx="138.81799"
   cy="120.72"
   r="8.3769999"
   id="circle12" />
	</g><path
   style="fill:#f7acba"
   d="m 102.075,167.31 v 37.038 H 37.702 c 0,-14.991 30.569,-37.038 64.373,-37.038 z"
   id="path12" /><path
   style="fill:#f7acba"
   d="m 102.075,167.31 v 37.038 h 64.372 c 0,-14.991 -30.569,-37.038 -64.372,-37.038 z"
   id="path13" /><path
   style="fill:#f5919d"
   d="m 101.883,167.31 c -7.271,0 -14.715,1.005 -21.933,2.721 0.049,0.063 8.006,10.213 21.933,10.213 12.898,0 21.472,-8.692 22.715,-10.03 -7.46,-1.831 -15.181,-2.904 -22.715,-2.904 z"
   id="path14" /><path
   style="fill:#fdcc9b"
   d="m 87.377,168.592 c 0,0 4.299,5.332 14.697,5.332 10.398,0 14.697,-5.332 14.697,-5.332 0,0 -15.247,-5.551 -29.394,0 z"
   id="path15" /><path
   style="fill:#86461b"
   d="m 180.861,75.051 c 16.453,14.07 3.347,27.982 3.347,27.982 5.464,16.364 -13.055,20.406 -13.055,20.406 0,0 -6.762,15.652 -16.021,11.008 -9.26,-4.645 -4.409,-20.047 -4.409,-20.047 -5.908,-6.394 0.44,-13.228 0.44,-13.228 -7.055,-6.614 -0.882,-19.842 -0.882,-19.842 -7.055,-2.204 -9.259,-11.464 -9.259,-11.464 -11.023,-0.441 -14.11,-15.433 -14.11,-15.433 0,0 -3.527,12.787 -17.637,8.378 0,0 -12.786,11.464 -22.046,2.646 0,0 -13.228,9.259 -20.282,-0.882 0,0 0,10.582 -14.551,12.786 0,0 5.732,14.992 -1.764,21.605 0,0 8.818,15.873 1.323,22.487 0,0 13.228,11.023 6.173,18.078 -7.055,7.055 -18.519,1.764 -18.96,-8.378 0,0 -16.755,2.205 -15.873,-16.314 0,0 -12.346,-16.313 -2.204,-29.542 0,0 -8.378,-15.873 3.526,-27.777 0,0 -1.322,-22.928 14.992,-27.778 0,0 6.613,-19.842 24.25,-16.755 0,0 11.464,-16.755 29.542,-8.378 0,0 19.842,-11.464 31.306,1.764 0,0 11.554,-7.495 20.106,6.614 0,0 14.727,2.792 16.049,17.049 0,0 20.574,4.409 14.992,22.046 0.002,10e-4 15.389,5.332 5.007,22.969 z"
   id="path16" /><path
   style="fill:#d85b72"
   d="m 70.58,173.536 c -19.172,7.632 -32.879,20.785 -32.879,30.813 h 41.32 z"
   id="path17" /><path
   style="fill:#ba396a"
   d="m 82.38,204.348 c 0,0 -8.231,-24.251 -9.112,-33.805 0,0 -4.482,0.273 -9.554,4.557 0,0 6.467,20.576 10.582,29.101 z"
   id="path18" /><path
   style="fill:#d85b72"
   d="m 133.569,173.536 c 19.172,7.632 32.878,20.785 32.878,30.813 h -41.319 z"
   id="path19" /><path
   style="fill:#ba396a"
   d="m 121.769,204.348 c 0,0 8.23,-24.251 9.112,-33.805 0,0 4.482,0.273 9.554,4.557 0,0 -6.467,20.576 -10.582,29.101 z"
   id="path20" />
</svg>
