<?xml version="1.0" encoding="UTF-8" standalone="no"?>
<!-- Uploaded to: SVG Repo, www.svgrepo.com, Generator: SVG Repo Mixer Tools -->

<svg
   version="1.1"
   id="Layer_1"
   viewBox="0 0 340 340"
   xml:space="preserve"
   sodipodi:docname="girl-svgrepo-com(26).svg"
   inkscape:version="1.4 (e7c3feb1, 2024-10-09)"
   xmlns:inkscape="http://www.inkscape.org/namespaces/inkscape"
   xmlns:sodipodi="http://sodipodi.sourceforge.net/DTD/sodipodi-0.dtd"
   xmlns="http://www.w3.org/2000/svg"
   xmlns:svg="http://www.w3.org/2000/svg"><defs
   id="defs1">
	
	
	
	
	
	
	
	
	
	
	
	
	
	
	
	
	
	
	
	
	
	
	
	
</defs><sodipodi:namedview
   id="namedview1"
   pagecolor="#ffffff"
   bordercolor="#000000"
   borderopacity="0.25"
   inkscape:showpageshadow="2"
   inkscape:pageopacity="0.0"
   inkscape:pagecheckerboard="0"
   inkscape:deskcolor="#d1d1d1"
   inkscape:zoom="0.076470588"
   inkscape:cx="170"
   inkscape:cy="176.53846"
   inkscape:window-width="1104"
   inkscape:window-height="250"
   inkscape:window-x="43"
   inkscape:window-y="25"
   inkscape:window-maximized="0"
   inkscape:current-layer="Layer_1" />
<path
   id="XMLID_982_"
   style="fill:#50412e"
   d="m 191,240 h -21 -21 c -38.107,0 -69,30.893 -69,69 v 31 h 90 90 v -31 c 0,-38.107 -30.893,-69 -69,-69 z" /><path
   id="XMLID_983_"
   d="m 170,240 h -21 c -38.107,0 -69,30.893 -69,69 v 31 h 90 z" /><polygon
   id="XMLID_984_"
   style="fill:#d80027"
   points="100,340 120,340 120,290 140,150 60,150 100,290 " /><path
   id="XMLID_985_"
   style="fill:#ffeacf"
   d="m 200,240 c 0,16.568 -13.432,30 -30,30 v 0 c -16.568,0 -30,-13.432 -30,-30 v -30 c 0,-16.568 13.432,-30 30,-30 v 0 c 16.568,0 30,13.432 30,30 z" /><polygon
   id="XMLID_986_"
   style="fill:#a2001d"
   points="85.714,240 127.143,240 140,150 " /><polygon
   id="XMLID_987_"
   style="fill:#a2001d"
   points="120,290 85.714,240 100,290 " /><rect
   id="XMLID_988_"
   x="100"
   y="290"
   style="fill:#ffffff"
   width="20"
   height="20" /><polygon
   id="XMLID_989_"
   style="fill:#ff5023"
   points="220,340 240,340 240,290 280,150 200,150 220,290 " /><polygon
   id="XMLID_990_"
   style="fill:#d80027"
   points="254.286,240 212.857,240 200,150 " /><polygon
   id="XMLID_991_"
   style="fill:#d80027"
   points="220,290 254.286,240 240,290 " /><rect
   id="XMLID_992_"
   x="220"
   y="290"
   style="fill:#ffffff"
   width="20"
   height="20" /><path
   id="XMLID_993_"
   style="fill:#ff5023"
   d="M 170,0 C 155.888,0 142.398,2.661 130,7.503 89.027,23.505 60,63.361 60,110 v 40 h 70 150 V 110 C 280,49.249 230.751,0 170,0 Z" /><path
   id="XMLID_994_"
   style="fill:#d80027"
   d="M 130,7.503 V 150 H 60 V 110 C 60,63.361 89.027,23.505 130,7.503 Z" /><ellipse
   id="XMLID_995_"
   style="fill:#ffeacf"
   cx="170"
   cy="135"
   rx="100"
   ry="105" /><path
   id="XMLID_996_"
   style="fill:#e8667d"
   d="m 170,205.858 c -17.419,0 -33.58,-9.436 -42.176,-24.627 -0.68,-1.202 -0.257,-2.727 0.945,-3.407 1.201,-0.682 2.727,-0.257 3.407,0.945 7.71,13.625 22.203,22.089 37.824,22.089 15.622,0 30.115,-8.464 37.824,-22.089 0.68,-1.202 2.206,-1.624 3.407,-0.945 1.202,0.68 1.625,2.205 0.945,3.407 -8.595,15.191 -24.756,24.627 -42.176,24.627 z" /><ellipse
   id="XMLID_997_"
   style="fill:#ffb9a7"
   cx="135"
   cy="160"
   rx="15"
   ry="10" /><circle
   id="XMLID_998_"
   style="fill:#50412e"
   cx="135"
   cy="137.5"
   r="7.5" /><ellipse
   id="XMLID_999_"
   style="fill:#ffb9a7"
   cx="205"
   cy="160"
   rx="15"
   ry="10" /><circle
   id="XMLID_1000_"
   style="fill:#50412e"
   cx="205"
   cy="137.5"
   r="7.5" /><path
   id="XMLID_1001_"
   style="fill:#ffd6a0"
   d="m 170,228 c -22.528,0 -44.084,-4.358 -63.959,-12.294 C 123.376,230.872 145.67,240 170,240 c 24.33,0 46.624,-9.128 63.959,-24.294 C 214.084,223.642 192.528,228 170,228 Z" /><path
   id="XMLID_1002_"
   style="fill:#ff5023"
   d="m 130,70 c 0,0 20,20 60,20 30,0 30,40 60,40 h 20 V 100 L 240,40 180,20 130,30 120,50 Z" /><path
   id="XMLID_1003_"
   style="fill:#d80027"
   d="m 90,130 c 10,0 36.19,-33.334 40,-60 V 10 c 0,0 -40.54,45.811 -50,60 -8.998,13.497 -10,60 -10,60 0,0 10,0 20,0 z" /><circle
   id="XMLID_1004_"
   style="fill:#ffeacf"
   cx="70"
   cy="150"
   r="20" /><circle
   id="XMLID_1005_"
   style="fill:#ffeacf"
   cx="270"
   cy="150"
   r="20" />
</svg>
