<?xml version="1.0" encoding="UTF-8" standalone="no"?>
<!-- Uploaded to: SVG Repo, www.svgrepo.com, Generator: SVG Repo Mixer Tools -->

<svg
   version="1.1"
   id="Layer_1"
   viewBox="0 0 464 464"
   xml:space="preserve"
   sodipodi:docname="girl-svgrepo-com(13).svg"
   inkscape:version="1.4 (e7c3feb1, 2024-10-09)"
   xmlns:inkscape="http://www.inkscape.org/namespaces/inkscape"
   xmlns:sodipodi="http://sodipodi.sourceforge.net/DTD/sodipodi-0.dtd"
   xmlns="http://www.w3.org/2000/svg"
   xmlns:svg="http://www.w3.org/2000/svg"><defs
   id="defs17">
	
	
	
	
	
	
	
	
	
	
	
	
	
	
	
	
	
</defs><sodipodi:namedview
   id="namedview17"
   pagecolor="#ffffff"
   bordercolor="#000000"
   borderopacity="0.25"
   inkscape:showpageshadow="2"
   inkscape:pageopacity="0.0"
   inkscape:pagecheckerboard="0"
   inkscape:deskcolor="#d1d1d1"
   inkscape:zoom="0.056034483"
   inkscape:cx="232"
   inkscape:cy="240.92308"
   inkscape:window-width="1104"
   inkscape:window-height="250"
   inkscape:window-x="43"
   inkscape:window-y="25"
   inkscape:window-maximized="0"
   inkscape:current-layer="Layer_1" />
<path
   style="fill:#ffd7a3"
   d="M 448,72 C 448,30.667 424.5,0 384,0 c -20.712,0 -36.963,8.368 -47.914,16.546 -2.988,-2.239 -7.235,-2.14 -10.124,0.445 -2.013,1.801 -2.894,4.392 -2.607,6.886 C 303.415,7.644 282.16,0 272,0 c -26,0 -40,8 -40,8 0,0 -14,-8 -40,-8 -10.16,0 -31.415,7.644 -51.355,23.877 0.288,-2.494 -0.593,-5.084 -2.607,-6.886 -2.889,-2.585 -7.136,-2.684 -10.124,-0.445 C 116.963,8.368 100.712,0 80,0 39.5,0 16,30.667 16,72 c 0,41.967 46.667,154.667 24,224 0,0 52.387,-18.053 75.575,-88.414 1.435,0.268 2.913,0.414 4.425,0.414 v 8 c 0,19.377 11.651,36.854 29.538,44.308 L 184,274.667 v 25.801 c 0,6.887 -4.407,13.001 -10.94,15.179 l -32.343,11.9 -0.553,-0.885 c -2.312,-3.699 -7.16,-4.864 -10.9,-2.62 l -26.278,15.767 c -3.555,2.133 -4.842,6.581 -3.128,10.241 -3.698,5.207 -6.172,11.307 -7.047,17.87 l -9.188,68.908 C 81.705,451.216 92.898,464 107.413,464 h 249.175 c 14.515,0 25.708,-12.784 23.789,-27.172 l -9.188,-68.908 c -0.875,-6.563 -3.348,-12.664 -7.047,-17.87 1.714,-3.661 0.426,-8.108 -3.128,-10.241 l -26.278,-15.767 c -3.74,-2.244 -8.588,-1.079 -10.9,2.62 l -0.553,0.885 -32.343,-11.9 C 284.406,313.469 280,307.355 280,300.468 v -25.802 l 34.461,-14.359 C 332.349,252.855 344,235.378 344,216 v -8 c 1.512,0 2.99,-0.146 4.425,-0.414 C 371.613,277.947 424,296 424,296 401.334,226.667 448,113.967 448,72 Z"
   id="path1" /><path
   style="fill:#fdc88e"
   d="m 280,274 h -96 v 26.468 0 10e-4 c 0,0.391 -0.017,0.777 -0.046,1.161 -0.014,0.2 -0.04,0.396 -0.062,0.595 -0.018,0.16 -0.034,0.32 -0.057,0.478 -0.043,0.307 -0.098,0.609 -0.158,0.91 -0.001,0.006 -0.003,0.013 -0.004,0.02 -0.888,4.4 -3.587,8.228 -7.425,10.537 C 243.173,325.73 280,274 280,274 Z"
   id="path2" /><g
   id="g3">
		<path
   style="fill:#d48f60"
   d="m 320,32 c 0,0 23.5,-32 64,-32 40.5,0 64,30.667 64,72 0,41.967 -46.667,154.667 -24,224 0,0 -60,-20.667 -80,-104 -18.34,-76.418 8,-128 8,-128 z"
   id="path3" />
	</g><g
   id="g4">
		<path
   style="fill:#c57e52"
   d="m 348,40 c 0,0 25.5,-19 44,-8 40.721,24.213 7.454,90.732 0,128 -10,50 -6,98 32,136 0,0 -60,-20.667 -80,-104 -18.34,-76.418 4,-128 4,-128 z"
   id="path4" />
	</g><g
   id="g5">
		<path
   style="fill:#43a0c5"
   d="m 356.092,50.666 v 0 c 3.293,-2.946 3.574,-8.004 0.628,-11.296 L 337.259,17.62 c -2.946,-3.293 -8.004,-3.574 -11.296,-0.628 v 0 c -3.293,2.946 -3.574,8.004 -0.628,11.296 l 19.461,21.75 c 2.945,3.293 8.003,3.574 11.296,0.628 z"
   id="path5" />
	</g><g
   id="g6">
		<path
   style="fill:#d48f60"
   d="M 144,32 C 144,32 120.5,0 80,0 39.5,0 16,30.667 16,72 c 0,41.967 46.667,154.667 24,224 0,0 60,-20.667 80,-104 18.34,-76.418 -8,-128 -8,-128 z"
   id="path6" />
	</g><g
   id="g7">
		<path
   style="fill:#c57e52"
   d="m 117,40 c 0,0 -26.5,-19 -45,-8 -40.721,24.213 -7.454,90.732 0,128 10,50 6,98 -32,136 0,0 60,-20.667 80,-104 18.34,-76.418 -3,-128 -3,-128 z"
   id="path7" />
	</g><g
   id="g8">
		<path
   style="fill:#43a0c5"
   d="m 107.909,50.666 v 0 c -3.293,-2.946 -3.574,-8.004 -0.628,-11.296 l 19.461,-21.75 c 2.946,-3.293 8.004,-3.574 11.296,-0.628 v 0 c 3.293,2.946 3.574,8.004 0.628,11.296 l -19.461,21.75 c -2.946,3.293 -8.003,3.574 -11.296,0.628 z"
   id="path8" />
	</g><path
   style="fill:#ffe1b2"
   d="M 344,160 V 144 C 344,121.909 326.091,88 304,88 H 160 c -22.091,0 -40,33.909 -40,56 v 16 c -13.255,0 -24,10.746 -24,24 0,13.255 10.745,24 24,24 v 8 c 0,19.377 11.651,36.854 29.538,44.308 l 51.691,21.538 c 9.75,4.063 20.208,6.154 30.77,6.154 v 0 c 10.562,0 21.019,-2.092 30.769,-6.154 l 51.694,-21.539 C 332.349,252.855 344,235.378 344,216 v -8 c 13.255,0 24,-10.745 24,-24 0,-13.255 -10.745,-24 -24,-24 z"
   id="path9" /><g
   id="g10">
		<path
   style="fill:#623f33"
   d="m 176,192 v 0 c -4.4,0 -8,-3.6 -8,-8 v -8 c 0,-4.4 3.6,-8 8,-8 v 0 c 4.4,0 8,3.6 8,8 v 8 c 0,4.4 -3.6,8 -8,8 z"
   id="path10" />
	</g><g
   id="g11">
		<path
   style="fill:#623f33"
   d="m 288,192 v 0 c -4.4,0 -8,-3.6 -8,-8 v -8 c 0,-4.4 3.6,-8 8,-8 v 0 c 4.4,0 8,3.6 8,8 v 8 c 0,4.4 -3.6,8 -8,8 z"
   id="path11" />
	</g><g
   id="g13">
		<g
   id="g12">
			<path
   style="fill:#e4b07b"
   d="m 232,248.219 c -14.223,0 -27.527,-3.5 -36.5,-9.605 -3.652,-2.484 -4.602,-7.461 -2.113,-11.113 2.48,-3.648 7.461,-4.598 11.113,-2.113 6.289,4.277 16.57,6.832 27.5,6.832 10.93,0 21.211,-2.555 27.5,-6.832 3.66,-2.492 8.629,-1.539 11.113,2.113 2.488,3.652 1.539,8.629 -2.113,11.113 -8.972,6.105 -22.277,9.605 -36.5,9.605 z"
   id="path12" />
		</g>
	</g><path
   style="fill:#ffd7a3"
   d="m 120,160 c -13.255,0 -24,10.745 -24,24 0,13.255 10.745,24 24,24 v 8 c 0,19.378 11.651,36.855 29.538,44.308 l 51.69,21.538 c 2.53,1.054 5.112,1.962 7.727,2.749 -22.844,-16.711 -38.05,-31.32 -46.96,-40.872 C 155.513,236.773 152,227.602 152,218.098 V 173.387 C 174.9,165.394 239.178,139.139 240,96 240.192,85.934 239.536,75.358 238.333,70 226.367,134.113 128.076,160 120,160 Z"
   id="path13" /><g
   id="g14">
		<path
   style="fill:#57b9dd"
   d="M 323.837,326.662 295.05,372.72 C 290.664,379.737 282.973,384 274.698,384 h -85.396 c -8.275,0 -15.966,-4.263 -20.352,-11.28 l -28.786,-46.058 c -2.312,-3.699 -7.16,-4.864 -10.9,-2.62 l -26.278,15.767 c -3.837,2.302 -5.04,7.305 -2.668,11.1 L 136,408 h 192 l 35.682,-57.092 c 2.372,-3.795 1.169,-8.797 -2.668,-11.1 l -26.278,-15.767 c -3.739,-2.243 -8.588,-1.077 -10.899,2.621 z"
   id="path14" />
	</g><g
   id="g15">
		<rect
   x="136"
   y="408"
   style="fill:#43a0c5"
   width="192"
   height="56"
   id="rect14" />
	</g><path
   style="fill:#d48f60"
   d="m 272,0 c -26,0 -40,8 -40,8 0,0 -14,-8 -40,-8 -26,0 -124.667,50.055 -88,166.055 0,0 128,-22.722 128,-78.055 0,55.333 128,78.055 128,78.055 C 396.667,50.055 298,0 272,0 Z"
   id="path15" /><g
   id="g16">
		<path
   style="fill:#ca8357"
   d="M 232,8.004 V 8 c 0,0 -14,-8 -40,-8 -26,0 -124.666,50.055 -88,166.055 0,0 15.495,-2.757 35.69,-8.67 C 117.089,53.368 207.192,8.084 232,8.004 Z"
   id="path16" />
	</g>
</svg>
