<?xml version="1.0" encoding="UTF-8" standalone="no"?>
<!-- Uploaded to: SVG Repo, www.svgrepo.com, Generator: SVG Repo Mixer Tools -->

<svg
   version="1.1"
   id="Layer_1"
   viewBox="0 0 464.002 464.002"
   xml:space="preserve"
   sodipodi:docname="girl-svgrepo-com(27).svg"
   inkscape:version="1.4 (e7c3feb1, 2024-10-09)"
   xmlns:inkscape="http://www.inkscape.org/namespaces/inkscape"
   xmlns:sodipodi="http://sodipodi.sourceforge.net/DTD/sodipodi-0.dtd"
   xmlns="http://www.w3.org/2000/svg"
   xmlns:svg="http://www.w3.org/2000/svg"><defs
   id="defs19">
	
	
	
	
	
	
	
	
	
	
	
	
	
	
	
</defs><sodipodi:namedview
   id="namedview19"
   pagecolor="#ffffff"
   bordercolor="#000000"
   borderopacity="0.25"
   inkscape:showpageshadow="2"
   inkscape:pageopacity="0.0"
   inkscape:pagecheckerboard="0"
   inkscape:deskcolor="#d1d1d1"
   inkscape:zoom="0.05603424"
   inkscape:cx="232.00101"
   inkscape:cy="223.07789"
   inkscape:window-width="1104"
   inkscape:window-height="250"
   inkscape:window-x="43"
   inkscape:window-y="25"
   inkscape:window-maximized="0"
   inkscape:current-layer="Layer_1" />
<g
   id="g1">
		<path
   style="fill:#6e4439"
   d="m 360.001,72 c -25,-53 -72,-72 -128,-72 -56,0 -103,19 -128,72 -25,53 -10,87 -40,168 0,0 54,56 168,56 114,0 168,-56 168,-56 -30,-81 -15,-115 -40,-168 z"
   id="path1" />
	</g><path
   style="fill:#c38762"
   d="m 380.379,436.829 -9.188,-68.908 c 0,-10e-4 0,-0.002 -10e-4,-0.004 l -0.387,-2.906 c -0.787,-5.906 -2.876,-11.459 -6.144,-16.397 0.834,-3.324 -0.544,-6.945 -3.643,-8.805 l -26.278,-15.767 c -2.769,-1.661 -6.143,-1.45 -8.648,0.271 l -16.238,-7.156 c -3.287,-1.448 -6.984,-0.49 -9.198,2.064 l -9.712,-3.573 c -6.533,-2.178 -10.94,-8.292 -10.94,-15.179 v -25.802 l 34.461,-14.359 c 17.887,-7.453 29.538,-24.93 29.538,-44.308 v -8 c 13.255,0 24,-10.745 24,-24 0,-13.255 -10.745,-24 -24,-24 v -16 c 0,-22.091 -17.909,-40 -40,-40 h -144 c -22.091,0 -40,17.909 -40,40 v 16 c -13.255,0 -24,10.745 -24,24 0,13.255 10.745,24 24,24 v 8 c 0,19.378 11.651,36.855 29.538,44.308 l 34.462,14.36 v 25.801 c 0,6.887 -4.407,13.001 -10.94,15.179 l -9.712,3.573 c -2.214,-2.554 -5.911,-3.512 -9.198,-2.064 l -16.238,7.156 c -2.505,-1.721 -5.879,-1.932 -8.648,-0.271 l -26.278,15.767 c -3.1,1.86 -4.478,5.482 -3.643,8.806 -3.267,4.938 -5.356,10.49 -6.144,16.397 l -0.387,2.904 c 0,0.002 -0.001,0.004 -0.001,0.006 l -9.188,68.908 c -1.019,7.644 1.662,14.834 6.576,19.896 0.006,0.006 0.013,0.012 0.019,0.019 4.334,4.455 10.4,7.257 17.194,7.257 v 0 h 28.588 192 28.587 v 0 c 14.516,-0.001 25.709,-12.786 23.791,-27.173 z"
   id="path2" /><path
   style="fill:#00858a"
   d="m 380.378,436.829 -9.576,-71.817 C 369.05,351.87 360.907,340.454 347.498,333.75 l -37.647,-16.592 c -4.168,-1.837 -9.007,0.185 -10.627,4.441 C 288.908,348.713 262.738,368 232.001,368 c -30.737,0 -56.906,-19.288 -67.224,-46.403 -1.62,-4.257 -6.459,-6.278 -10.627,-4.441 l -37.647,16.592 c -13.41,6.705 -21.552,18.121 -23.304,31.262 l -9.576,71.818 C 81.705,451.215 92.897,464 107.412,464 h 249.175 c 14.517,10e-4 25.71,-12.784 23.791,-27.171 z"
   id="path3" /><g
   id="g4">
		<path
   style="fill:#5e342e"
   d="m 232.001,0 c -56,0 -103,19 -128,72 -25,53 -10,87 -40,168 0,0 50.21,51.747 155.644,55.624 l 4.356,-7.624 -48,-40 c 0,0 -4,-20 -8,-104 -4,-84 51.334,-144 64,-144 z"
   id="path4" />
	</g><path
   style="fill:#a46d4d"
   d="m 280.001,273.996 h -96 v 26.472 c 0,5.693 -3.017,10.852 -7.752,13.701 66.925,11.562 103.752,-40.173 103.752,-40.173 z"
   id="path5" /><path
   style="fill:#d29771"
   d="m 344.001,160 v -16 c 0,-22.091 -17.909,-40 -40,-40 h -144 c -22.091,0 -40,17.909 -40,40 v 16 c -13.255,0 -24,10.745 -24,24 0,13.255 10.745,24 24,24 v 8 c 0,19.378 11.651,36.855 29.538,44.308 l 51.691,21.538 C 210.98,285.909 221.438,288 232,288 v 0 c 10.562,0 21.019,-2.092 30.769,-6.154 l 51.694,-21.539 C 332.35,252.855 344.001,235.378 344.001,216 v -8 c 13.255,0 24,-10.745 24,-24 0,-13.255 -10.745,-24 -24,-24 z"
   id="path6" /><g
   id="g7">
		<path
   style="fill:#623f33"
   d="m 176.001,192 v 0 c -4.4,0 -8,-3.6 -8,-8 v -8 c 0,-4.4 3.6,-8 8,-8 v 0 c 4.4,0 8,3.6 8,8 v 8 c 0,4.4 -3.6,8 -8,8 z"
   id="path7" />
	</g><g
   id="g8">
		<path
   style="fill:#623f33"
   d="m 288.001,192 v 0 c -4.4,0 -8,-3.6 -8,-8 v -8 c 0,-4.4 3.6,-8 8,-8 v 0 c 4.4,0 8,3.6 8,8 v 8 c 0,4.4 -3.6,8 -8,8 z"
   id="path8" />
	</g><g
   id="g10">
		<g
   id="g9">
			<path
   style="fill:#a46d4d"
   d="m 232.001,248.219 c -14.223,0 -27.527,-3.5 -36.5,-9.605 -3.652,-2.484 -4.602,-7.461 -2.113,-11.113 2.48,-3.648 7.461,-4.598 11.113,-2.113 6.289,4.277 16.57,6.832 27.5,6.832 10.93,0 21.211,-2.555 27.5,-6.832 3.66,-2.492 8.629,-1.539 11.113,2.113 2.488,3.652 1.539,8.629 -2.113,11.113 -8.972,6.105 -22.277,9.605 -36.5,9.605 z"
   id="path9" />
		</g>
	</g><g
   id="g11">
		<path
   style="fill:#c38762"
   d="m 120.001,144 v 16 c -13.255,0 -24,10.745 -24,24 0,13.255 10.745,24 24,24 v 8 c 0,19.378 11.651,36.855 29.538,44.308 l 51.69,21.538 c 2.53,1.054 5.112,1.962 7.727,2.749 -22.844,-16.711 -38.05,-31.32 -46.96,-40.872 -6.482,-6.949 -9.995,-16.121 -9.995,-25.625 V 160 c 19.333,0 130.333,-6.004 162,-47.004 0,0 -0.042,-8.917 0,-8.972 l -162,0.782 c -18.257,3.707 -32,19.843 -32,39.194 z"
   id="path10" />
	</g><g
   id="g12">
		<path
   style="fill:#6e4439"
   d="M 136.001,90.996 V 144 c 0,0 56.997,0.74 111.999,-6.336 L 272.001,120 l 0.004,13.998 C 298.376,129.25 322.112,122.266 336.001,112 V 90.996 Z"
   id="path11" />
	</g><g
   id="g15">
		<g
   id="g13">
			<path
   style="fill:#57b9dd"
   d="M 323.838,326.662 295.051,372.72 C 290.665,379.737 282.974,384 274.699,384 h -85.396 c -8.275,0 -15.966,-4.263 -20.352,-11.28 l -28.786,-46.058 c -2.312,-3.699 -7.16,-4.864 -10.9,-2.62 l -26.278,15.767 c -3.837,2.302 -5.04,7.305 -2.668,11.1 L 136.001,408 h 192 l 35.682,-57.092 c 2.372,-3.795 1.169,-8.797 -2.668,-11.1 l -26.278,-15.767 c -3.739,-2.243 -8.588,-1.077 -10.899,2.621 z"
   id="path12" />
		</g>
		<g
   id="g14">
			<rect
   x="136.00101"
   y="408"
   style="fill:#43a0c5"
   width="192"
   height="56"
   id="rect13" />
		</g>
	</g><g
   id="g16">
		<circle
   style="fill:#ffc33d"
   cx="180.00101"
   cy="396"
   r="28"
   id="circle15" />
	</g><g
   id="g18">
		<g
   id="g17">
			<path
   style="fill:#ff4f4f"
   d="m 186.763,383.418 c -2.64,0 -5.029,1.068 -6.762,2.795 -1.733,-1.727 -4.122,-2.795 -6.762,-2.795 -5.291,0 -9.58,4.289 -9.58,9.579 0,7.326 8.594,16.13 16.342,19.723 7.748,-3.592 16.342,-12.397 16.342,-19.723 0,-5.29 -4.289,-9.579 -9.58,-9.579 z"
   id="path16" />
		</g>
	</g><path
   style="fill:#5e342e"
   d="M 173.247,90.996 H 136.001 V 144 c 0,0 12.742,0.165 31.985,-0.408 -0.857,-18.889 1.286,-36.555 5.261,-52.596 z"
   id="path18" />
</svg>
