<?xml version="1.0" encoding="UTF-8" standalone="no"?>
<!-- Uploaded to: SVG Repo, www.svgrepo.com, Generator: SVG Repo Mixer Tools -->

<svg
   version="1.1"
   id="Layer_1"
   viewBox="0 0 464 464"
   xml:space="preserve"
   sodipodi:docname="girl-svgrepo-com(1).svg"
   inkscape:version="1.4 (e7c3feb1, 2024-10-09)"
   xmlns:inkscape="http://www.inkscape.org/namespaces/inkscape"
   xmlns:sodipodi="http://sodipodi.sourceforge.net/DTD/sodipodi-0.dtd"
   xmlns="http://www.w3.org/2000/svg"
   xmlns:svg="http://www.w3.org/2000/svg"><defs
   id="defs21">
	
	
	
	
	
	
	
	
	
	
	
	
	
	
	
	
	
	
	
	
	

		
	
		
	
		
	
		
	
		
	
		
	
		
	
		
	
		
	
		
	
		
	
		
	
		
	
		
	
		
	
		
	
			
		</defs><sodipodi:namedview
   id="namedview21"
   pagecolor="#ffffff"
   bordercolor="#000000"
   borderopacity="0.25"
   inkscape:showpageshadow="2"
   inkscape:pageopacity="0.0"
   inkscape:pagecheckerboard="0"
   inkscape:deskcolor="#d1d1d1"
   inkscape:zoom="0.41248674"
   inkscape:cx="352.73861"
   inkscape:cy="415.77094"
   inkscape:window-width="1440"
   inkscape:window-height="900"
   inkscape:window-x="0"
   inkscape:window-y="0"
   inkscape:window-maximized="0"
   inkscape:current-layer="Layer_1" />
<path
   style="fill:#f6b47b"
   d="m 380.377,436.829 -9.188,-68.908 C 369.227,353.21 359.281,340.793 345.352,335.668 L 290.94,315.647 C 284.407,313.469 280,307.355 280,300.468 v -25.802 l 34.461,-14.359 C 332.349,252.855 344,235.378 344,216 v -8 c 13.255,0 24,-10.745 24,-24 0,-13.255 -10.745,-24 -24,-24 V 144 C 344,121.909 326.091,88 304,88 H 160 c -22.092,0 -40,33.909 -40,56 v 16 c -13.255,0 -24,10.745 -24,24 0,13.255 10.745,24 24,24 v 8 c 0,19.377 11.651,36.854 29.538,44.308 L 184,274.667 v 25.801 c 0,6.887 -4.407,13.001 -10.94,15.179 l -54.412,20.021 c -13.929,5.125 -23.875,17.542 -25.837,32.253 l -9.188,68.908 C 81.705,451.216 92.897,464 107.412,464 h 249.176 c 14.515,0 25.708,-12.784 23.789,-27.171 z"
   id="path1" /><path
   style="fill:#6e4439"
   d="m 351.992,200 h -16 c 0,0 -7.62,21.092 -8,47.999 -0.213,15.07 3.692,31.966 8,48.001 h 16 c 4.308,-16.036 8.213,-32.931 8,-48.001 -0.38,-26.907 -8,-47.999 -8,-47.999 z"
   id="path2" /><path
   style="fill:#5e342e"
   d="m 128,200 h -16 c 0,0 -7.62,21.092 -8,47.999 -0.213,15.07 3.692,31.966 8,48.001 h 16 c 4.308,-16.036 8.213,-32.931 8,-48.001 C 135.62,221.092 128,200 128,200 Z"
   id="path3" /><path
   style="fill:#f23f44"
   d="M 116.192,148.31 H 72.008 c -5.66,0 -9.53,5.716 -7.428,10.971 l 8.123,20.307 c 1.83,4.574 7.319,6.424 11.544,3.889 l 31.945,-19.167 z"
   id="path4" /><path
   style="fill:#ff4f4f"
   d="M 116.192,148.31 H 72.008 c -5.66,0 -9.53,-5.716 -7.428,-10.971 l 8.123,-20.307 c 1.83,-4.574 7.319,-6.424 11.544,-3.889 l 31.945,19.167 z"
   id="path5" /><path
   style="fill:#f23f44"
   d="m 347.809,148.31 h 44.184 c 5.66,0 9.53,5.716 7.428,10.971 l -8.123,20.307 c -1.83,4.574 -7.319,6.424 -11.544,3.889 L 347.809,164.31 Z"
   id="path6" /><path
   style="fill:#ff4f4f"
   d="m 347.809,148.31 h 44.184 c 5.66,0 9.53,-5.716 7.428,-10.971 l -8.123,-20.307 c -1.83,-4.574 -7.319,-6.424 -11.544,-3.889 l -31.945,19.167 z"
   id="path7" /><path
   style="fill:#e2a071"
   d="m 280,274.667 -96,-21.334 v 47.135 c 0,5.759 -3.186,10.831 -8.017,13.659 C 243.077,325.871 280,274.667 280,274.667 Z"
   id="path8" /><path
   style="fill:#fdc88e"
   d="m 120,160 c -13.255,0 -24,10.746 -24,24 0,13.255 10.745,24 24,24 v 8 c 0,19.378 11.651,36.855 29.538,44.308 l 51.692,21.539 c 9.749,4.062 20.207,6.154 30.769,6.154 v 0 c 10.562,0 21.019,-2.092 30.769,-6.154 l 51.694,-21.539 C 332.349,252.855 344,235.378 344,216 v -8 c 13.255,0 24,-10.745 24,-24 0,-13.255 -10.745,-24 -24,-24 V 134 C 344,108.595 323.405,88 298,88 H 166 c -25.405,0 -46,20.595 -46,46 z"
   id="path9" /><path
   style="fill:#623f33"
   d="m 176,192 v 0 c -4.4,0 -8,-3.6 -8,-8 v -8 c 0,-4.4 3.6,-8 8,-8 v 0 c 4.4,0 8,3.6 8,8 v 8 c 0,4.4 -3.6,8 -8,8 z"
   id="path10" /><path
   style="fill:#623f33"
   d="m 288,192 v 0 c -4.4,0 -8,-3.6 -8,-8 v -8 c 0,-4.4 3.6,-8 8,-8 v 0 c 4.4,0 8,3.6 8,8 v 8 c 0,4.4 -3.6,8 -8,8 z"
   id="path11" /><path
   style="fill:#e2a071"
   d="m 232,248.219 c -14.223,0 -27.527,-3.5 -36.5,-9.605 -3.652,-2.484 -4.602,-7.461 -2.113,-11.113 2.48,-3.648 7.461,-4.598 11.113,-2.113 6.289,4.277 16.57,6.832 27.5,6.832 10.93,0 21.211,-2.555 27.5,-6.832 3.66,-2.492 8.629,-1.539 11.113,2.113 2.488,3.652 1.539,8.629 -2.113,11.113 -8.972,6.105 -22.277,9.605 -36.5,9.605 z"
   id="path12" /><path
   style="fill:#f6b47b"
   d="m 120,160 c -13.255,0 -24,10.745 -24,24 0,13.255 10.745,24 24,24 v 8 c 0,19.378 11.651,36.855 29.538,44.308 l 51.69,21.538 c 2.53,1.054 5.112,1.962 7.727,2.749 -22.844,-16.711 -38.05,-31.32 -46.96,-40.872 C 155.513,236.773 152,227.602 152,218.098 V 173.387 C 174.9,165.394 239.178,139.139 240,96 L 230,86 c 0,0 -4.333,57.333 -110,74 z"
   id="path13" /><path
   style="fill:#f23f44"
   d="M 323.837,326.662 295.05,372.72 C 290.664,379.737 282.973,384 274.698,384 h -85.396 c -8.275,0 -15.966,-4.263 -20.352,-11.28 l -28.786,-46.058 c -2.312,-3.699 -7.16,-4.864 -10.9,-2.62 l -26.278,15.767 c -3.837,2.302 -5.04,7.305 -2.668,11.1 L 136,408 h 192 l 35.682,-57.092 c 2.372,-3.795 1.169,-8.797 -2.668,-11.1 l -26.278,-15.767 c -3.739,-2.243 -8.588,-1.077 -10.899,2.621 z"
   id="path14" /><rect
   x="136"
   y="408"
   style="fill:#ff4f4f"
   width="192"
   height="56"
   id="rect14" /><path
   style="fill:#6e4439"
   d="m 272,0 c -26,0 -40,8 -40,8 0,0 -14,-8 -40,-8 -26,0 -124.667,50.055 -88,166.055 0,0 128,-22.722 128,-78.055 0,55.333 128,78.055 128,78.055 C 396.667,50.055 298,0 272,0 Z"
   id="path15" /><path
   style="fill:#5e342e"
   d="M 232,8.004 V 8 c 0,0 -14,-8 -40,-8 -26,0 -124.666,50.055 -88,166.055 0,0 15.495,-2.757 35.69,-8.67 C 117.089,53.368 207.192,8.084 232,8.004 Z"
   id="path16" /><path
   style="fill:#f23f44"
   d="m 128,312 h -16 c -4.418,0 -8,-3.582 -8,-8 v 0 c 0,-4.418 3.582,-8 8,-8 h 16 c 4.418,0 8,3.582 8,8 v 0 c 0,4.419 -3.582,8 -8,8 z"
   id="path17" /><path
   style="fill:#5e342e"
   d="m 128,312 c 0,0 14,24 -8,56 -22,-32 -8,-56 -8,-56"
   id="path18" /><path
   style="fill:#ff4f4f"
   d="m 335.992,312 h 16 c 4.418,0 8,-3.582 8,-8 v 0 c 0,-4.418 -3.582,-8 -8,-8 h -16 c -4.418,0 -8,3.582 -8,8 v 0 c 0,4.419 3.582,8 8,8 z"
   id="path19" /><path
   style="fill:#6e4439"
   d="m 335.992,312 c 0,0 -14,24 8,56 22,-32 8,-56 8,-56"
   id="path20" />
</svg>
