<?xml version="1.0" encoding="UTF-8" standalone="no"?>
<!-- Uploaded to: SVG Repo, www.svgrepo.com, Generator: SVG Repo Mixer Tools -->

<svg
   height="800px"
   width="800px"
   version="1.1"
   id="Layer_1"
   viewBox="0 0 464.001 464.001"
   xml:space="preserve"
   sodipodi:docname="girl-svgrepo-com(16).svg"
   inkscape:version="1.4 (e7c3feb1, 2024-10-09)"
   xmlns:inkscape="http://www.inkscape.org/namespaces/inkscape"
   xmlns:sodipodi="http://sodipodi.sourceforge.net/DTD/sodipodi-0.dtd"
   xmlns="http://www.w3.org/2000/svg"
   xmlns:svg="http://www.w3.org/2000/svg"><defs
   id="defs16">
	
	
	
	
	
	
	
	
	
	
	
	
	
	
</defs><sodipodi:namedview
   id="namedview16"
   pagecolor="#ffffff"
   bordercolor="#000000"
   borderopacity="0.25"
   inkscape:showpageshadow="2"
   inkscape:pageopacity="0.0"
   inkscape:pagecheckerboard="0"
   inkscape:deskcolor="#d1d1d1"
   inkscape:zoom="0.0325"
   inkscape:cx="400"
   inkscape:cy="384.61538"
   inkscape:window-width="1104"
   inkscape:window-height="250"
   inkscape:window-x="43"
   inkscape:window-y="25"
   inkscape:window-maximized="0"
   inkscape:current-layer="Layer_1" />
<g
   id="g2">
		<path
   style="fill:#734a3e"
   d="m 418,357.5 c -7.5,-16 -1.059,-19.938 -5.667,-36.833 -3,-11 -9.703,-15.446 -12,-24.667 -2.182,-8.755 1.63,-24.004 -0.667,-31.333 -4.148,-13.24 -9.351,-16.738 -12,-27.667 -2.667,-11 4.333,-19.333 2,-31 -2.923,-14.618 -8.177,-20.607 -10.333,-28.333 C 375.333,163.334 376.559,159.749 377,148 378,121.333 367.83,88.6 360,72 351.136,53.208 339.502,42.719 325.686,37 H 232 v 395 c 110,1 200,-32 200,-32 -0.333,-28.667 -5.297,-23.934 -14,-42.5 z"
   id="path1" />
		<path
   style="fill:#623f33"
   d="m 138.314,37 c -13.817,5.719 -25.45,16.208 -34.314,35 -7.83,16.6 -18,49.333 -17,76 0.44,11.748 1.667,15.333 -2.333,29.667 -2.156,7.726 -7.41,13.716 -10.333,28.333 -2.333,11.667 4.667,20 2,31 -2.649,10.929 -7.852,14.427 -12,27.667 -2.297,7.33 1.515,22.578 -0.667,31.333 -2.297,9.221 -9,13.667 -12,24.667 C 47.059,337.562 53.5,341.5 46,357.5 37.297,376.065 32.333,371.333 32,400 c 0,0 90,33 200,32 V 37 Z"
   id="path2" />
	</g><g
   id="g4">
		<path
   style="fill:#fdc88e"
   d="m 380.378,436.829 -2.984,-22.383 -6.542,-49.067 c -1.779,-13.344 -10.151,-24.897 -22.277,-30.744 l -30.861,-14.879 c -3.003,-1.448 -6.501,-0.135 -7.99,2.803 l -18.782,-6.911 c -6.533,-2.178 -10.94,-8.292 -10.94,-15.179 v -25.802 l 34.461,-14.359 C 332.349,252.855 344,235.378 344,216 v -8 c 13.255,0 24,-10.745 24,-24 0,-13.255 -10.745,-24 -24,-24 v -0.067 c 0.013,0.013 0.027,0.025 0.04,0.038 C 315.28,131.271 233.538,135.93 232.035,97.087 230.532,135.943 148.733,131.267 120,160 v 0 c -13.255,0 -24,10.745 -24,24 0,13.255 10.745,24 24,24 v 8 c 0,19.377 11.651,36.854 29.538,44.308 L 184,274.667 v 25.801 c 0,6.887 -4.407,13.001 -10.94,15.179 l -18.782,6.911 c -1.489,-2.938 -4.987,-4.251 -7.99,-2.803 l -30.861,14.879 c -12.126,5.847 -20.498,17.4 -22.277,30.744 l -6.542,49.067 -2.984,22.383 C 81.705,451.216 92.897,464 107.412,464 v 0 h 249.175 v 0 c 14.516,0 25.709,-12.784 23.791,-27.171 z"
   id="path3" />
		<path
   style="fill:#f5b97a"
   d="m 184,274 v 26.468 c 0,5.693 -3.017,10.852 -7.752,13.701 C 243.171,325.732 279.998,274.003 280,274 Z"
   id="path4" />
	</g><g
   id="g5">
		<path
   style="fill:#00bea4"
   d="m 380.378,436.829 -9.526,-71.451 c -1.779,-13.344 -10.151,-24.897 -22.277,-30.744 l -30.861,-14.879 c -3.107,-1.498 -6.75,-0.046 -8.143,3.109 C 289.335,368.69 254.667,390 232,400.003 c -22.667,-10.002 -57.335,-31.313 -77.569,-77.14 -1.393,-3.155 -5.036,-4.606 -8.143,-3.109 l -30.861,14.879 c -12.126,5.847 -20.498,17.4 -22.277,30.744 l -9.526,71.451 C 81.706,451.215 92.898,464 107.414,464 h 249.175 c 14.514,10e-4 25.707,-12.784 23.789,-27.171 z"
   id="path5" />
	</g><g
   id="g6">
		<circle
   style="fill:#fdc88e"
   cx="120"
   cy="184"
   r="24"
   id="circle5" />
	</g><path
   style="fill:#ffd7a3"
   d="m 344,160 v -16 c 0,-22.091 -17.909,-40 -40,-40 H 160 c -22.092,0 -40,17.909 -40,40 v 16 c -13.255,0 -24,10.745 -24,24 0,13.255 10.745,24 24,24 v 8 c 0,19.377 11.651,36.854 29.538,44.308 l 51.691,21.538 c 9.75,4.063 20.208,6.154 30.77,6.154 v 0 c 10.562,0 21.019,-2.092 30.769,-6.154 l 51.694,-21.539 C 332.349,252.855 344,235.378 344,216 v -8 c 13.255,0 24,-10.745 24,-24 0,-13.255 -10.745,-24 -24,-24 z"
   id="path6" /><g
   id="g7">
		<path
   style="fill:#fdc88e"
   d="M 239.899,99 228,92 c 0,0 -20.648,26.536 -76,40 -27.75,6.75 -32,28 -32,28 h -0.001 C 106.745,160.001 96,170.746 96,184 c 0,13.255 10.745,24 24,24 v 8 c 0,19.378 11.651,36.855 29.538,44.308 l 51.69,21.538 c 2.53,1.054 5.112,1.962 7.727,2.749 -22.844,-16.711 -38.05,-31.32 -46.96,-40.872 C 155.513,236.773 152,227.602 152,218.098 V 159 c 22,-16.333 77,-14.333 87.899,-60 z"
   id="path7" />
	</g><g
   id="g8">
		<path
   style="fill:#623f33"
   d="m 176,192 v 0 c -4.4,0 -8,-3.6 -8,-8 v -8 c 0,-4.4 3.6,-8 8,-8 v 0 c 4.4,0 8,3.6 8,8 v 8 c 0,4.4 -3.6,8 -8,8 z"
   id="path8" />
	</g><g
   id="g9">
		<path
   style="fill:#623f33"
   d="m 288,192 v 0 c -4.4,0 -8,-3.6 -8,-8 v -8 c 0,-4.4 3.6,-8 8,-8 v 0 c 4.4,0 8,3.6 8,8 v 8 c 0,4.4 -3.6,8 -8,8 z"
   id="path9" />
	</g><g
   id="g11">
		<g
   id="g10">
			<path
   style="fill:#e4b07b"
   d="m 232,248.219 c -14.223,0 -27.527,-3.5 -36.5,-9.605 -3.652,-2.484 -4.602,-7.461 -2.113,-11.113 2.48,-3.648 7.461,-4.598 11.113,-2.113 6.289,4.277 16.57,6.832 27.5,6.832 10.93,0 21.211,-2.555 27.5,-6.832 3.66,-2.492 8.629,-1.539 11.113,2.113 2.488,3.652 1.539,8.629 -2.113,11.113 -8.971,6.105 -22.277,9.605 -36.5,9.605 z"
   id="path10" />
		</g>
	</g><g
   id="g12">
		<path
   style="fill:#00ab9a"
   d="m 237.106,410.864 c 38.651,-18.172 68.226,-48.756 86.091,-88.465 l -5.484,-2.644 c -3.107,-1.498 -6.75,-0.046 -8.143,3.109 C 289.335,368.69 254.667,390 232,400.003 c -22.667,-10.002 -57.335,-31.313 -77.569,-77.14 -1.393,-3.155 -5.036,-4.606 -8.143,-3.109 l -5.483,2.644 c 17.865,39.709 47.439,70.293 86.09,88.465 l 5.105,2.402 z"
   id="path11" />
	</g><g
   id="g13">
		<path
   style="fill:#00ab9a"
   d="m 144,429.725 c 0,-8.895 -2.965,-17.536 -8.426,-24.558 L 96.235,354.588 c -1.497,3.403 -2.582,7.011 -3.086,10.79 l -9.526,71.451 c -1.918,14.387 9.274,27.172 23.79,27.172 H 144 Z"
   id="path12" />
	</g><g
   id="g14">
		<path
   style="fill:#00ab9a"
   d="m 320,429.725 c 0,-8.895 2.965,-17.536 8.426,-24.558 l 39.339,-50.579 c 1.497,3.403 2.582,7.011 3.086,10.79 l 9.526,71.451 c 1.918,14.387 -9.274,27.172 -23.79,27.172 H 320 Z"
   id="path13" />
	</g><path
   style="fill:#734a3e"
   d="M 256.072,0 C 239.83,0 232.405,7.577 232.036,7.963 231.667,7.577 224.243,0 208,0 163.75,0 65.5,61 104,152 l 16,8 c 28.733,-28.733 110.532,-24.057 112.036,-62.914 1.504,38.857 83.302,34.181 112.036,62.914 l 16,-8 c 38.5,-91 -59.75,-152 -104,-152 z"
   id="path14" /><g
   id="g15">
		<path
   style="fill:#623f33"
   d="M 208,0 C 163.75,0 65.5,61 104,152 v 8 h 16 c 6.312,-6.312 15.188,-11.01 25.21,-14.913 C 150.5,50.5 201.691,0.667 232,8 l 0.023,-0.046 C 231.777,7.691 224.385,0 208,0 Z"
   id="path15" />
	</g>
</svg>
