<?xml version="1.0" encoding="UTF-8" standalone="no"?>
<!-- Uploaded to: SVG Repo, www.svgrepo.com, Generator: SVG Repo Mixer Tools -->

<svg
   version="1.1"
   id="Capa_1"
   viewBox="0 0 206.612 206.612"
   xml:space="preserve"
   sodipodi:docname="girl-svgrepo-com(5).svg"
   inkscape:version="1.4 (e7c3feb1, 2024-10-09)"
   xmlns:inkscape="http://www.inkscape.org/namespaces/inkscape"
   xmlns:sodipodi="http://sodipodi.sourceforge.net/DTD/sodipodi-0.dtd"
   xmlns="http://www.w3.org/2000/svg"
   xmlns:svg="http://www.w3.org/2000/svg"><defs
   id="defs15">
	
	
	
	
	
	
	
	
	
	
	

		
		
		
	
			
			
			
			
			
			
			
			
			
		
				
				
				
				
			
					
					
				
					
					
				</defs><sodipodi:namedview
   id="namedview15"
   pagecolor="#ffffff"
   bordercolor="#000000"
   borderopacity="0.25"
   inkscape:showpageshadow="2"
   inkscape:pageopacity="0.0"
   inkscape:pagecheckerboard="0"
   inkscape:deskcolor="#d1d1d1"
   inkscape:zoom="0.12583974"
   inkscape:cx="99.332692"
   inkscape:cy="99.332692"
   inkscape:window-width="1440"
   inkscape:window-height="900"
   inkscape:window-x="0"
   inkscape:window-y="0"
   inkscape:window-maximized="0"
   inkscape:current-layer="Capa_1" />
<path
   style="fill:#d65128"
   d="m 31.276,122.205 c 0,0 8.933,18.483 6.727,34.142 -2.204,15.659 -14.607,23.035 -19.898,13.228 0,0 -26.014,37.038 85.98,37.038 V 105.298 Z"
   id="path1" /><path
   style="fill:#d65128"
   d="m 177.592,117.629 c 0,0 -11.189,23.06 -8.983,38.718 2.204,15.659 14.607,23.035 19.898,13.228 0,0 26.014,37.038 -85.98,37.038 V 105.298 Z"
   id="path2" /><rect
   x="89.388"
   y="156.347"
   style="fill:#fdcc9b"
   width="29.395"
   height="32.922001"
   id="rect2" /><path
   style="fill:#fcbc85"
   d="m 89.388,160.225 c 0,0 12.364,7.874 29.394,6.05 v -9.928 H 89.388 Z"
   id="path3" /><ellipse
   style="fill:#916a50"
   cx="47.000999"
   cy="105.298"
   rx="14.343"
   ry="16.364"
   id="ellipse3" /><ellipse
   style="fill:#916a50"
   cx="161.16901"
   cy="105.298"
   rx="14.343"
   ry="16.364"
   id="ellipse4" /><path
   style="fill:#fdcc9b"
   d="m 161.111,74.042 c 0,-24.104 -17.637,-41.741 -57.025,-41.741 -39.39,0 -57.026,17.637 -57.026,41.741 0,24.104 -4.115,87.597 57.026,87.597 61.14,-0.001 57.025,-63.493 57.025,-87.597 z"
   id="path4" /><ellipse
   style="fill:#3b2519"
   cx="76.309998"
   cy="101.379"
   rx="6.1729999"
   ry="6.7610002"
   id="ellipse5" /><circle
   style="fill:#ffffff"
   cx="73.617996"
   cy="98.393997"
   r="1.846"
   id="circle5" /><path
   style="fill:#d96e27"
   d="m 66.434,86.802 c 2.919,1.118 7.606,-3.798 18.335,0.478 1.956,0.78 3.124,-6.668 -8.377,-6.668 -9.958,0 -11.722,5.515 -9.958,6.19 z"
   id="path5" /><ellipse
   style="fill:#3b2519"
   cx="132.62399"
   cy="101.379"
   rx="6.1729999"
   ry="6.7610002"
   id="ellipse6" /><circle
   style="fill:#ffffff"
   cx="129.93201"
   cy="98.393997"
   r="1.847"
   id="circle6" /><path
   style="fill:#d96e27"
   d="m 141.736,86.802 c -2.919,1.118 -7.605,-3.798 -18.335,0.478 -1.956,0.78 -3.123,-6.668 8.378,-6.668 9.957,0 11.721,5.515 9.957,6.19 z"
   id="path6" /><path
   style="fill:#fcbc85"
   d="m 104.086,125.159 c -6.1,0 -9.774,-4.556 -9.774,-2.352 0,2.205 1.764,6.394 9.774,6.394 8.01,0 9.773,-4.189 9.773,-6.394 0,-2.204 -3.674,2.352 -9.773,2.352 z"
   id="path7" /><path
   style="fill:#fcbc85"
   d="m 104.086,145.43 c -2.109,0 -3.381,-1.576 -3.381,-0.813 0,0.763 0.61,2.211 3.381,2.211 2.771,0 3.38,-1.448 3.38,-2.211 -10e-4,-0.763 -1.271,0.813 -3.38,0.813 z"
   id="path8" /><path
   style="fill:#f7945e"
   d="m 104.086,139.813 c -9.668,0 -15.493,-3.936 -15.493,-2.939 0,0.997 2.796,4.924 15.493,4.924 12.697,0 15.492,-3.926 15.492,-4.924 0,-0.998 -5.825,2.939 -15.492,2.939 z"
   id="path9" /><circle
   style="fill:#f9aa8d"
   cx="68.372002"
   cy="122.984"
   r="8.3780003"
   id="circle9" /><circle
   style="fill:#f9aa8d"
   cx="140.82899"
   cy="122.984"
   r="8.3769999"
   id="circle10" /><path
   style="fill:#f6a2b1"
   d="m 104.086,169.575 v 37.038 H 39.712 c 0,-14.992 30.569,-37.038 64.374,-37.038 z"
   id="path10" /><path
   style="fill:#f6a2b1"
   d="m 104.086,169.575 v 37.038 h 64.372 c 0,-14.992 -30.569,-37.038 -64.372,-37.038 z"
   id="path11" /><path
   style="fill:#fdcc9b"
   d="m 89.388,170.857 14.697,26.276 c 0.879,0 14.697,-26.276 14.697,-26.276 0,0 -15.247,-5.552 -29.394,0 z"
   id="path12" /><path
   style="fill:#f38191"
   d="m 89.388,166.55 8.535,8.928 6.162,21.655 -8.818,-13.228 -9.921,5.365 -8.597,-15.461 c 0.001,-0.001 7.421,-6.757 12.639,-7.259 z"
   id="path13" /><path
   style="fill:#f38191"
   d="m 118.783,166.55 -8.536,8.928 -6.161,21.655 8.818,-13.228 9.92,5.365 8.598,-15.461 c -0.001,-0.001 -7.421,-6.757 -12.639,-7.259 z"
   id="path14" /><polygon
   style="fill:#f38191"
   points="99.235,189.858 104.086,206.612 104.086,197.133 "
   id="polygon14" /><polygon
   style="fill:#f38191"
   points="108.544,189.858 104.086,206.612 104.086,197.133 "
   id="polygon15" /><path
   style="fill:#d96e27"
   d="m 146.826,17.016 c 0,0 -35.313,-26.675 -78.454,-13.227 -41.022,12.786 -41.889,67.021 -40.567,97.592 1.323,30.571 11.907,34.244 22.487,29.981 13.994,-5.638 0,-23.222 0,-23.222 6.614,-6.761 3.969,-19.206 3.969,-19.206 10.361,-0.384 14.11,-17.244 14.11,-17.244 20.156,7.769 25.939,-7.496 25.939,-7.496 18.886,10.141 33.774,-7.937 33.774,-7.937 0,0 9.303,19.342 21.121,17.196 0,0 -3.107,18.597 4.262,21.165 0,0 -7.895,23.81 2.446,31.085 10.341,7.275 27.096,0.042 26.655,-36.77 -0.44,-36.811 -7.056,-75.445 -35.742,-71.917 z"
   id="path15" />
</svg>
