<?xml version="1.0" encoding="UTF-8" standalone="no"?>
<!-- Uploaded to: SVG Repo, www.svgrepo.com, Generator: SVG Repo Mixer Tools -->

<svg
   version="1.1"
   id="Capa_1"
   viewBox="0 0 207.964 207.964"
   xml:space="preserve"
   sodipodi:docname="girl-svgrepo-com(6).svg"
   inkscape:version="1.4 (e7c3feb1, 2024-10-09)"
   xmlns:inkscape="http://www.inkscape.org/namespaces/inkscape"
   xmlns:sodipodi="http://sodipodi.sourceforge.net/DTD/sodipodi-0.dtd"
   xmlns="http://www.w3.org/2000/svg"
   xmlns:svg="http://www.w3.org/2000/svg"><defs
   id="defs14">
	
	
	
	
	
	
	
	
</defs><sodipodi:namedview
   id="namedview14"
   pagecolor="#ffffff"
   bordercolor="#000000"
   borderopacity="0.25"
   inkscape:showpageshadow="2"
   inkscape:pageopacity="0.0"
   inkscape:pagecheckerboard="0"
   inkscape:deskcolor="#d1d1d1"
   inkscape:zoom="0.12502164"
   inkscape:cx="99.982694"
   inkscape:cy="99.982694"
   inkscape:window-width="1104"
   inkscape:window-height="250"
   inkscape:window-x="43"
   inkscape:window-y="25"
   inkscape:window-maximized="0"
   inkscape:current-layer="Capa_1" />
<path
   style="fill:#432b1f"
   d="m 40.634,148.18 c 6.989,19.495 -3.968,55.375 -3.968,55.375 h 63.346 V 93.325 l -69.52,13.325 c 10e-4,-0.001 3.823,23.903 10.142,41.53 z"
   id="path1" /><path
   style="fill:#432b1f"
   d="m 159.452,148.18 c -6.989,19.495 3.969,55.375 3.969,55.375 H 100.074 V 93.325 l 69.519,13.325 c 0,-0.001 -3.821,23.903 -10.141,41.53 z"
   id="path2" /><g
   id="g10">
		<g
   id="g9">
			<rect
   x="85.315002"
   y="157.69901"
   style="fill:#fdcc9b"
   width="29.395"
   height="32.922001"
   id="rect2" />
			<path
   style="fill:#fcbc85"
   d="m 85.315,161.577 c 0,0 12.365,7.874 29.395,6.05 v -9.928 H 85.315 Z"
   id="path3" />
			<ellipse
   style="fill:#fcbc85"
   cx="42.928001"
   cy="106.649"
   rx="14.343"
   ry="16.364"
   id="ellipse3" />
			<ellipse
   style="fill:#fcbc85"
   cx="157.09599"
   cy="106.649"
   rx="14.343"
   ry="16.364"
   id="ellipse4" />
			<path
   style="fill:#fdcc9b"
   d="m 157.038,75.394 c 0,-24.103 -17.637,-41.741 -57.025,-41.741 -39.39,0 -57.026,17.637 -57.026,41.741 0,24.104 -4.115,87.597 57.026,87.597 61.14,-0.001 57.025,-63.493 57.025,-87.597 z"
   id="path4" />
			<g
   id="g7">
				<g
   id="g5">
					<ellipse
   style="fill:#3b2519"
   cx="72.237"
   cy="102.731"
   rx="6.1729999"
   ry="6.7610002"
   id="ellipse5" />
					<circle
   style="fill:#ffffff"
   cx="69.544998"
   cy="99.746002"
   r="1.846"
   id="circle5" />
				</g>
				<path
   style="fill:#51362a"
   d="m 62.362,88.154 c 2.918,1.118 7.606,-3.798 18.334,0.478 1.956,0.78 3.124,-6.668 -8.377,-6.668 -9.957,0 -11.721,5.515 -9.957,6.19 z"
   id="path5" />
				<g
   id="g6">
					<ellipse
   style="fill:#3b2519"
   cx="128.55"
   cy="102.731"
   rx="6.1729999"
   ry="6.7610002"
   id="ellipse6" />
					<circle
   style="fill:#ffffff"
   cx="125.859"
   cy="99.746002"
   r="1.847"
   id="circle6" />
				</g>
				<path
   style="fill:#51362a"
   d="m 137.663,88.154 c -2.919,1.118 -7.605,-3.798 -18.335,0.478 -1.955,0.78 -3.123,-6.668 8.378,-6.668 9.957,0 11.72,5.515 9.957,6.19 z"
   id="path6" />
			</g>
			<path
   style="fill:#fcbc85"
   d="m 100.012,126.511 c -6.1,0 -9.774,-4.556 -9.774,-2.352 0,2.205 1.764,6.394 9.774,6.394 8.01,0 9.773,-4.189 9.773,-6.394 0.001,-2.204 -3.673,2.352 -9.773,2.352 z"
   id="path7" />
			<path
   style="fill:#fcbc85"
   d="m 100.012,146.782 c -2.109,0 -3.381,-1.576 -3.381,-0.813 0,0.763 0.61,2.211 3.381,2.211 2.771,0 3.381,-1.448 3.381,-2.211 0,-0.763 -1.271,0.813 -3.381,0.813 z"
   id="path8" />
			<path
   style="fill:#f7945e"
   d="m 100.012,141.165 c -9.668,0 -15.493,-3.936 -15.493,-2.939 0,0.998 2.796,4.924 15.493,4.924 12.697,0 15.492,-3.926 15.492,-4.924 0,-0.998 -5.824,2.939 -15.492,2.939 z"
   id="path9" />
		</g>
		<circle
   style="fill:#f9aa8d"
   cx="64.297997"
   cy="124.336"
   r="8.3780003"
   id="circle9" />
		<circle
   style="fill:#f9aa8d"
   cx="136.756"
   cy="124.336"
   r="8.3769999"
   id="circle10" />
	</g><path
   style="fill:#694b74"
   d="m 100.012,170.927 v 37.038 H 35.639 c 0,-14.992 30.569,-37.038 64.373,-37.038 z"
   id="path10" /><path
   style="fill:#694b74"
   d="m 100.012,170.927 v 37.038 h 64.372 c 0,-14.992 -30.568,-37.038 -64.372,-37.038 z"
   id="path11" /><path
   style="fill:#563c60"
   d="m 99.821,170.927 c -7.271,0 -14.715,1.005 -21.933,2.72 0.049,0.063 8.006,10.214 21.933,10.214 12.898,0 21.472,-8.693 22.715,-10.03 -7.46,-1.831 -15.181,-2.904 -22.715,-2.904 z"
   id="path12" /><path
   style="fill:#fdcc9b"
   d="m 85.315,172.209 c 0,0 4.299,5.332 14.697,5.332 10.398,0 14.697,-5.332 14.697,-5.332 0,0 -15.248,-5.552 -29.394,0 z"
   id="path13" /><path
   style="fill:#51362a"
   d="M 151.747,24.541 C 114.709,-19.552 44.162,-1.915 28.584,58.933 13.007,119.78 40.634,148.18 40.634,148.18 30.04,112.321 54.744,75.247 75.908,74.806 97.073,74.365 130.583,62.46 130.583,62.46 c 0,0 5.625,28.622 23.81,39.132 13.669,7.9 8.477,31.122 4.949,46.588 13.227,-5.031 52.37,-105.561 -7.595,-123.639 z"
   id="path14" />
</svg>
