<?xml version="1.0" encoding="UTF-8" standalone="no"?>
<!-- Uploaded to: SVG Repo, www.svgrepo.com, Generator: SVG Repo Mixer Tools -->

<svg
   height="800px"
   width="800px"
   version="1.1"
   id="Layer_1"
   viewBox="0 0 380 380"
   xml:space="preserve"
   sodipodi:docname="girl-svgrepo-com(8).svg"
   inkscape:version="1.4 (e7c3feb1, 2024-10-09)"
   xmlns:inkscape="http://www.inkscape.org/namespaces/inkscape"
   xmlns:sodipodi="http://sodipodi.sourceforge.net/DTD/sodipodi-0.dtd"
   xmlns="http://www.w3.org/2000/svg"
   xmlns:svg="http://www.w3.org/2000/svg"><defs
   id="defs1">
	
	
	
	
	
	
	
	
	
	
	
	
	
	
	
	
</defs><sodipodi:namedview
   id="namedview1"
   pagecolor="#ffffff"
   bordercolor="#000000"
   borderopacity="0.25"
   inkscape:showpageshadow="2"
   inkscape:pageopacity="0.0"
   inkscape:pagecheckerboard="0"
   inkscape:deskcolor="#d1d1d1"
   inkscape:zoom="0.0325"
   inkscape:cx="400"
   inkscape:cy="384.61538"
   inkscape:window-width="1104"
   inkscape:window-height="250"
   inkscape:window-x="43"
   inkscape:window-y="25"
   inkscape:window-maximized="0"
   inkscape:current-layer="Layer_1" />
<g
   id="XMLID_1487_">
		<path
   id="XMLID_1488_"
   d="m 205,80 c 0,-33.138 26.863,-60 60,-60 0.831,0 1.655,0.029 2.478,0.063 C 257.391,7.813 242.108,0 225,0 194.624,0 170,24.624 170,55 v 45 h 35 z" />
		<g
   id="XMLID_1489_">
			<circle
   id="XMLID_111_"
   style="fill:#ffb9a7"
   cx="190"
   cy="48"
   r="30" />
		</g>
	</g><path
   id="XMLID_1490_"
   style="fill:#50412e"
   d="M 230,47.503 C 217.602,42.661 204.112,40 190,40 129.249,40 80,89.249 80,150 v 42 h 110 v -11 h 40 v 9 h 70 V 150 C 300,103.361 270.973,63.505 230,47.503 Z" /><path
   id="XMLID_1491_"
   d="M 190,40 C 129.249,40 80,89.249 80,150 v 42 h 110 v -11 h 40 V 47.503 C 217.602,42.661 204.112,40 190,40 Z" /><g
   id="XMLID_1492_">
		<path
   id="XMLID_1493_"
   style="fill:#50412e"
   d="M 230,47.503 V 190 h 70 V 150 C 300,103.361 270.973,63.505 230,47.503 Z" />
	</g><path
   id="XMLID_1494_"
   style="fill:#ff5023"
   d="m 211,280 h -21 -21 c -38.107,0 -69,30.893 -69,69 v 31 h 90 90 v -31 c 0,-38.107 -30.893,-69 -69,-69 z" /><g
   id="XMLID_1495_">
		<path
   id="XMLID_1496_"
   style="fill:#d80027"
   d="m 190,280 h -21 c -38.107,0 -69,30.893 -69,69 v 31 h 90 z" />
	</g><g
   id="XMLID_1497_">
		<path
   id="XMLID_1498_"
   style="fill:#ffeacf"
   d="m 220,280 c 0,16.568 -13.432,30 -30,30 v 0 c -16.568,0 -30,-13.432 -30,-30 v -30 c 0,-16.568 13.432,-30 30,-30 v 0 c 16.568,0 30,13.432 30,30 z" />
	</g><g
   id="XMLID_1499_">
		<ellipse
   id="XMLID_1500_"
   style="fill:#ffeacf"
   cx="190"
   cy="175"
   rx="100"
   ry="105" />
	</g><g
   id="XMLID_1501_">
		<path
   id="XMLID_1502_"
   style="fill:#e8667d"
   d="m 190,245.858 c -17.42,0 -33.581,-9.436 -42.176,-24.627 -0.68,-1.202 -0.257,-2.727 0.945,-3.407 1.202,-0.679 2.727,-0.257 3.407,0.944 7.71,13.626 22.203,22.09 37.824,22.09 15.622,0 30.115,-8.464 37.824,-22.09 0.68,-1.201 2.206,-1.622 3.407,-0.944 1.202,0.68 1.625,2.205 0.945,3.407 -8.595,15.191 -24.756,24.627 -42.176,24.627 z" />
	</g><g
   id="XMLID_1503_">
		<g
   id="XMLID_1504_">
			<ellipse
   id="XMLID_1505_"
   style="fill:#ffb9a7"
   cx="155"
   cy="200"
   rx="15"
   ry="10" />
		</g>
		<g
   id="XMLID_1506_">
			<circle
   id="XMLID_1507_"
   style="fill:#50412e"
   cx="155"
   cy="177.5"
   r="7.5" />
		</g>
	</g><g
   id="XMLID_1508_">
		<g
   id="XMLID_1509_">
			<ellipse
   id="XMLID_1510_"
   style="fill:#ffb9a7"
   cx="225"
   cy="200"
   rx="15"
   ry="10" />
		</g>
		<g
   id="XMLID_1511_">
			<circle
   id="XMLID_1512_"
   style="fill:#50412e"
   cx="225"
   cy="177.5"
   r="7.5" />
		</g>
	</g><g
   id="XMLID_1513_">
		<path
   id="XMLID_1514_"
   style="fill:#ffd6a0"
   d="m 190,268 c -22.528,0 -44.084,-4.358 -63.96,-12.295 C 143.376,270.872 165.67,280 190,280 c 24.33,0 46.624,-9.128 63.959,-24.295 C 234.083,263.642 212.528,268 190,268 Z" />
	</g><g
   id="XMLID_1515_">
		<circle
   id="XMLID_1516_"
   style="fill:#ffeacf"
   cx="90"
   cy="190"
   r="20" />
	</g><g
   id="XMLID_1517_">
		<circle
   id="XMLID_1518_"
   style="fill:#ffeacf"
   cx="290"
   cy="190"
   r="20" />
	</g><g
   id="XMLID_1519_">
		<path
   id="XMLID_1520_"
   style="fill:#50412e"
   d="m 290,170 c 0,0 -60,-20 -60,-80 L 220,60 c 0,0 50.54,35.811 60,50 20,30 10,60 10,60 z" />
	</g><g
   id="XMLID_1521_">
		<path
   id="XMLID_1522_"
   d="m 90,170 c 0,0 120,-10 140,-80 V 50 h -71.5 l -57.5,41.5 -16,41 z" />
	</g>
</svg>
