<?xml version="1.0" encoding="UTF-8" standalone="no"?>
<!-- Uploaded to: SVG Repo, www.svgrepo.com, Generator: SVG Repo Mixer Tools -->

<svg
   height="800px"
   width="800px"
   version="1.1"
   id="Layer_1"
   viewBox="0 0 464.002 464.002"
   xml:space="preserve"
   sodipodi:docname="girl-svgrepo-com(3).svg"
   inkscape:version="1.4 (e7c3feb1, 2024-10-09)"
   xmlns:inkscape="http://www.inkscape.org/namespaces/inkscape"
   xmlns:sodipodi="http://sodipodi.sourceforge.net/DTD/sodipodi-0.dtd"
   xmlns="http://www.w3.org/2000/svg"
   xmlns:svg="http://www.w3.org/2000/svg"><defs
   id="defs16">
	
	
	
	
	
	
	
	
	
	
	
	
	
	
	
	

		
	
		
	
		
	
		
	
		
	
		
	
		
	
		
	
		
	
		
	
		
	
			
		</defs><sodipodi:namedview
   id="namedview16"
   pagecolor="#ffffff"
   bordercolor="#000000"
   borderopacity="0.25"
   inkscape:showpageshadow="2"
   inkscape:pageopacity="0.0"
   inkscape:pagecheckerboard="0"
   inkscape:deskcolor="#d1d1d1"
   inkscape:zoom="0.0325"
   inkscape:cx="384.61538"
   inkscape:cy="369.23077"
   inkscape:window-width="1304"
   inkscape:window-height="711"
   inkscape:window-x="43"
   inkscape:window-y="25"
   inkscape:window-maximized="0"
   inkscape:current-layer="Layer_1" />
<path
   style="fill:#9d6e48"
   d="M 360.002,72 C 335.001,19 288.001,0 232.001,0 c -56,0 -103,19 -128,72 -25,53 -10,87 -40,168 0,0 54,56 168,56 114,0 168,-56 168,-56 C 370.002,159 385.002,125 360.002,72 Z"
   id="path1" /><path
   style="fill:#8d5f3d"
   d="m 232.001,0 c -56,0 -103,19 -128,72 -25,53 -10,87 -40,168 0,0 50.21,51.747 155.644,55.624 L 219.001,192 c 0,0 -51,-10.75 -51,-48 0,-84.095 51.334,-144 64,-144 z"
   id="path2" /><path
   style="fill:#ffd7a3"
   d="m 380.379,436.829 -9.188,-68.908 c -0.875,-6.564 -3.348,-12.664 -7.047,-17.87 1.714,-3.661 0.426,-8.109 -3.128,-10.242 l -26.278,-15.767 c -3.74,-2.244 -8.588,-1.079 -10.9,2.62 l -0.553,0.885 -32.343,-11.9 c -6.533,-2.178 -10.94,-8.292 -10.94,-15.179 v -25.802 l 34.461,-14.359 C 332.35,252.855 344.001,235.378 344.001,216 v -8 c 13.255,0 24,-10.745 24,-24 0,-13.255 -10.745,-24 -24,-24 v -16 c 0,-22.092 -17.909,-40 -40,-40 h -144 c -22.092,0 -40,17.908 -40,40 v 16 c -13.255,0 -24,10.745 -24,24 0,13.255 10.745,24 24,24 v 8 c 0,19.377 11.651,36.854 29.538,44.308 l 34.462,14.36 v 25.801 c 0,6.887 -4.407,13.001 -10.94,15.179 l -32.343,11.9 -0.553,-0.885 c -2.312,-3.698 -7.16,-4.864 -10.9,-2.62 l -26.278,15.767 c -3.555,2.133 -4.842,6.581 -3.128,10.242 -3.698,5.206 -6.172,11.306 -7.047,17.87 l -9.188,68.908 c -1.918,14.387 9.274,27.172 23.789,27.172 h 249.176 c 14.515,-0.001 25.708,-12.786 23.79,-27.173 z"
   id="path3" /><path
   style="fill:#fdc88e"
   d="m 280.001,274.667 -96,0.001 v 25.801 c 0,5.693 -3.017,10.852 -7.752,13.701 66.923,11.562 103.75,-39.499 103.752,-39.503 z"
   id="path4" /><path
   style="fill:#c38762"
   d="m 323.838,326.662 -6.156,9.85 C 299.218,366.054 266.839,384 232.002,384 v 0 c -34.837,0 -67.216,-17.946 -85.68,-47.488 l -6.156,-9.85 c -2.312,-3.699 -7.16,-4.864 -10.9,-2.62 l -26.278,15.767 c -3.837,2.302 -5.04,7.305 -2.668,11.1 l 35.681,57.092 h 192 l 35.682,-57.092 c 2.372,-3.795 1.169,-8.797 -2.668,-11.1 l -26.278,-15.767 c -3.739,-2.244 -8.587,-1.078 -10.899,2.62 z"
   id="path5" /><path
   style="fill:#ffe1b2"
   d="m 344.001,160 v -16 c 0,-22.092 -17.909,-40 -40,-40 h -144 c -22.092,0 -40,17.908 -40,40 v 16 c -13.255,0 -24,10.745 -24,24 0,13.255 10.745,24 24,24 v 8 c 0,19.377 11.651,36.854 29.538,44.308 l 51.691,21.538 C 210.98,285.909 221.438,288 232,288 v 0 c 10.562,0 21.019,-2.091 30.769,-6.154 l 51.694,-21.539 C 332.35,252.855 344.001,235.378 344.001,216 v -8 c 13.255,0 24,-10.745 24,-24 0,-13.255 -10.745,-24 -24,-24 z"
   id="path6" /><path
   style="fill:#623f33"
   d="m 176.001,192 v 0 c -4.4,0 -8,-3.6 -8,-8 v -8 c 0,-4.4 3.6,-8 8,-8 v 0 c 4.4,0 8,3.6 8,8 v 8 c 0,4.4 -3.6,8 -8,8 z"
   id="path7" /><path
   style="fill:#623f33"
   d="m 288.001,192 v 0 c -4.4,0 -8,-3.6 -8,-8 v -8 c 0,-4.4 3.6,-8 8,-8 v 0 c 4.4,0 8,3.6 8,8 v 8 c 0,4.4 -3.6,8 -8,8 z"
   id="path8" /><path
   style="fill:#e4b07b"
   d="m 232.001,248.219 c -14.223,0 -27.527,-3.5 -36.5,-9.605 -3.652,-2.484 -4.602,-7.461 -2.113,-11.113 2.48,-3.648 7.461,-4.598 11.113,-2.113 6.289,4.277 16.57,6.832 27.5,6.832 10.93,0 21.211,-2.555 27.5,-6.832 3.66,-2.492 8.629,-1.539 11.113,2.113 2.488,3.652 1.539,8.629 -2.113,11.113 -8.972,6.105 -22.277,9.605 -36.5,9.605 z"
   id="path9" /><path
   style="fill:#ffd7a3"
   d="m 152.001,104.807 c -18.257,3.707 -32,19.843 -32,39.194 v 16 c -13.255,0 -24,10.745 -24,24 0,13.255 10.745,24 24,24 v 8 c 0,19.377 11.651,36.855 29.538,44.308 l 51.69,21.538 c 2.53,1.054 5.112,1.962 7.727,2.749 -22.844,-16.711 -38.05,-31.32 -46.96,-40.872 -6.482,-6.95 -9.995,-16.121 -9.995,-25.625 v -58.211 c 32.036,-0.815 117.965,-6.759 152,-39.887 7.026,-6.838 10.014,-11.676 10.233,-15.022 z"
   id="path10" /><path
   style="fill:#9d6e48"
   d="m 136.001,112 v 32 c 0,0 56.997,0.74 111.999,-6.336 L 272.001,120 l 0.004,13.998 c 26.37,-4.748 50.106,-11.732 63.996,-21.998 v 0 c 0,-13.255 -10.745,-24 -24,-24 h -152 c -13.255,0 -24,10.745 -24,24 z"
   id="path11" /><path
   style="fill:#c38762"
   d="m 359.8,8.201 c -10.935,-10.935 -28.663,-10.935 -39.598,0 -5.738,5.738 -12.895,17.794 -16.84,29.545 C 282.62,23.748 257.942,16 232.001,16 206.06,16 181.382,23.747 160.639,37.746 156.694,25.995 149.538,13.939 143.8,8.201 c -10.935,-10.935 -28.663,-10.935 -39.598,0 -10.935,10.935 -10.935,28.664 0,39.598 5.473,5.473 16.708,12.259 27.937,16.307 -2.945,3.692 -5.72,7.56 -8.286,11.616 -2.359,3.734 -1.25,8.676 2.484,11.039 3.738,2.367 8.676,1.246 11.039,-2.484 C 158.083,51.543 193.458,32 232.001,32 c 38.543,0 73.918,19.543 94.625,52.278 1.523,2.406 4.117,3.723 6.77,3.723 1.461,0 2.941,-0.398 4.27,-1.238 C 341.4,84.4 342.51,79.458 340.15,75.724 337.583,71.668 334.808,67.8 331.864,64.107 343.092,60.058 354.327,53.273 359.801,47.8 370.735,36.865 370.735,19.136 359.8,8.201 Z"
   id="path12" /><path
   style="fill:#8d5f3d"
   d="m 124.001,16 c 3.205,0 6.219,1.248 8.485,3.515 3.369,3.369 8.62,11.802 11.983,20.509 -3.124,2.625 -6.123,5.383 -8.985,8.261 -8.563,-3.396 -16.688,-8.519 -19.969,-11.799 -2.266,-2.267 -3.514,-5.281 -3.514,-8.486 0,-3.205 1.248,-6.219 3.515,-8.486 2.267,-2.266 5.28,-3.514 8.485,-3.514"
   id="path13" /><path
   style="fill:#8d5f3d"
   d="m 340.001,16 c 3.205,0 6.219,1.248 8.485,3.515 2.267,2.266 3.515,5.28 3.515,8.485 0,3.205 -1.248,6.219 -3.515,8.485 -3.281,3.281 -11.406,8.403 -19.969,11.799 -2.862,-2.879 -5.861,-5.636 -8.985,-8.261 3.364,-8.707 8.614,-17.139 11.983,-20.509 2.268,-2.266 5.281,-3.514 8.486,-3.514"
   id="path14" /><path
   style="fill:#8d5f3d"
   d="M 355.956,336.773 342.23,328.537 304.317,389.2 c -7.309,11.696 -20.128,18.801 -33.92,18.801 h -76.79 c -13.792,0 -26.611,-7.105 -33.92,-18.801 l -37.913,-60.663 -13.726,8.236 36.866,58.988 c 3.33,5.328 -0.501,12.24 -6.784,12.24 h -2.129 v 56 h 192 v -56 h -2.128 c -6.283,0 -10.114,-6.912 -6.784,-12.24 z"
   id="path15" /><path
   style="fill:#8d5f3d"
   d="m 160.001,88 c -13.255,0 -24,10.745 -24,24 v 32 c 0,0 12.75,0.165 32.004,-0.409 0.04,-20.08 3.005,-38.77 7.664,-55.592 z"
   id="path16" />
</svg>
