<?xml version="1.0" encoding="UTF-8" standalone="no"?>
<!-- Uploaded to: SVG Repo, www.svgrepo.com, Generator: SVG Repo Mixer Tools -->

<svg
   height="800px"
   width="800px"
   version="1.1"
   id="Layer_1"
   viewBox="0 0 464 464"
   xml:space="preserve"
   sodipodi:docname="girl-svgrepo-com(17).svg"
   inkscape:version="1.4 (e7c3feb1, 2024-10-09)"
   xmlns:inkscape="http://www.inkscape.org/namespaces/inkscape"
   xmlns:sodipodi="http://sodipodi.sourceforge.net/DTD/sodipodi-0.dtd"
   xmlns="http://www.w3.org/2000/svg"
   xmlns:svg="http://www.w3.org/2000/svg"><defs
   id="defs26">
	
	
	
	
	
	
	
	
	
	
	
	
	
	
	
	
	
	
	
	
</defs><sodipodi:namedview
   id="namedview26"
   pagecolor="#ffffff"
   bordercolor="#000000"
   borderopacity="0.25"
   inkscape:showpageshadow="2"
   inkscape:pageopacity="0.0"
   inkscape:pagecheckerboard="0"
   inkscape:deskcolor="#d1d1d1"
   inkscape:zoom="0.0325"
   inkscape:cx="400"
   inkscape:cy="384.61538"
   inkscape:window-width="1104"
   inkscape:window-height="250"
   inkscape:window-x="43"
   inkscape:window-y="25"
   inkscape:window-maximized="0"
   inkscape:current-layer="Layer_1" />
<path
   style="fill:#ffd7a3"
   d="m 380.377,436.829 -9.576,-71.817 C 369.049,351.87 360.899,340.45 349.04,334.521 l -17.232,-8.616 c -2.567,-1.284 -5.51,-0.145 -6.766,2.29 l -34.103,-12.548 c -6.533,-2.178 -10.94,-8.292 -10.94,-15.179 V 274.666 L 314.46,260.307 C 332.349,252.855 344,235.378 344,216 v -8 c 13.255,0 24,-10.745 24,-24 0,-13.255 -10.745,-24 -24,-24 V 144 C 344,121.908 326.091,88 304,88 H 160 c -22.092,0 -40,33.909 -40,56 v 72 c 0,19.378 11.651,36.855 29.538,44.308 L 184,274.667 v 25.801 c 0,6.887 -4.407,13.001 -10.94,15.179 l -34.101,12.547 c -1.242,-2.438 -4.18,-3.583 -6.742,-2.302 l -15.714,7.857 c -13.41,6.705 -21.552,18.121 -23.304,31.262 l -9.576,71.817 C 81.704,451.216 92.896,464 107.411,464 h 249.176 c 14.515,0 25.708,-12.784 23.79,-27.171 z"
   id="path1" /><g
   id="g5">
		<path
   style="fill:#9d6e48"
   d="m 392,312 c 0,0 -24,-139.333 -24,-192 l -96,144 104,56 c -5,9.5 -9.529,22.472 8,40 15.5,15.5 24,48 24,48 22,-82 -16,-96 -16,-96 z"
   id="path2" />
		<g
   id="g4">
			<g
   id="g3">
				<path
   style="fill:#ffb04d"
   d="m 374.878,329.301 22.087,-10.888 c 3.963,-1.954 5.591,-6.75 3.636,-10.712 v 0 c -1.954,-3.96 -6.748,-5.587 -10.708,-3.634 l -22.087,10.888 c -3.963,1.954 -5.591,6.75 -3.636,10.712 v 0 c 1.953,3.96 6.747,5.587 10.708,3.634 z"
   id="path3" />
			</g>
		</g>
	</g><g
   id="g8">
		<path
   style="fill:#8d5f3d"
   d="m 191.999,264 -96,-144 c 0,52.667 -24,192 -24,192 0,0 -38,14 -16,96 0,0 8.5,-32.5 24,-48 17.529,-17.529 13,-30.5 8,-40 z"
   id="path5" />
		<g
   id="g7">
			<g
   id="g6">
				<path
   style="fill:#ffb04d"
   d="M 89.122,329.301 67.035,318.413 c -3.963,-1.954 -5.591,-6.75 -3.636,-10.712 v 0 c 1.954,-3.96 6.748,-5.587 10.708,-3.634 l 22.087,10.888 c 3.963,1.954 5.591,6.75 3.636,10.712 v 0 c -1.954,3.96 -6.748,5.587 -10.708,3.634 z"
   id="path6" />
			</g>
		</g>
	</g><g
   id="g9">
		<path
   style="fill:#fdc88e"
   d="m 279,274 h -95 v 26.468 c 0,5.759 -3.186,10.831 -8.017,13.659 C 243.076,325.871 279,274 279,274 Z"
   id="path8" />
	</g><g
   id="g10">
		<path
   style="fill:#ffc84a"
   d="m 349.04,334.521 -17.232,-8.616 c -2.92,-1.46 -6.327,0.212 -7.184,3.362 -11.09,40.761 -48.352,70.736 -92.626,70.736 -44.285,0 -81.555,-29.99 -92.635,-70.767 -0.852,-3.134 -4.242,-4.797 -7.146,-3.345 l -15.714,7.857 c -13.41,6.705 -21.552,18.121 -23.304,31.262 l -9.576,71.817 c -1.918,14.388 9.275,27.172 23.789,27.172 h 249.176 c 14.515,0 25.708,-12.784 23.789,-27.172 l -9.576,-71.817 c -1.752,-13.14 -9.902,-24.56 -21.761,-30.489 z"
   id="path9" />
	</g><g
   id="g11">
		<path
   style="fill:#ffb04d"
   d="m 96.842,353.124 c -1.813,3.734 -3.087,7.708 -3.645,11.887 l -9.576,71.817 C 81.704,451.216 92.897,464 107.412,464 H 144 v -32 c 0,-10.386 -3.369,-20.491 -9.6,-28.8 z"
   id="path10" />
	</g><g
   id="g12">
		<path
   style="fill:#ffb04d"
   d="m 367.156,353.124 c 1.813,3.734 3.087,7.708 3.645,11.887 l 9.576,71.817 C 382.295,451.216 371.102,464 356.587,464 H 320 v -32 c 0,-10.386 3.368,-20.491 9.6,-28.8 z"
   id="path11" />
	</g><path
   style="fill:#ffe1b2"
   d="M 344,160 V 144 C 344,121.908 326.091,88 304,88 H 160 c -22.092,0 -40,33.909 -40,56 v 72 c 0,19.378 11.651,36.855 29.538,44.308 l 51.691,21.538 c 9.75,4.063 20.208,6.154 30.77,6.154 v 0 c 10.562,0 21.019,-2.091 30.769,-6.154 l 51.694,-21.539 C 332.349,252.855 344,235.378 344,216 v -8 c 13.255,0 24,-10.745 24,-24 0,-13.255 -10.745,-24 -24,-24 z"
   id="path12" /><g
   id="g13">
		<path
   style="fill:#623f33"
   d="m 288,192 v 0 c -4.4,0 -8,-3.6 -8,-8 v -8 c 0,-4.4 3.6,-8 8,-8 v 0 c 4.4,0 8,3.6 8,8 v 8 c 0,4.4 -3.601,8 -8,8 z"
   id="path13" />
	</g><g
   id="g15">
		<g
   id="g14">
			<path
   style="fill:#e4b07b"
   d="m 231.999,248.219 c -14.223,0 -27.527,-3.5 -36.5,-9.605 -3.652,-2.484 -4.601,-7.461 -2.113,-11.113 2.48,-3.648 7.461,-4.598 11.113,-2.113 6.289,4.277 16.57,6.832 27.5,6.832 10.93,0 21.211,-2.555 27.5,-6.832 3.66,-2.492 8.629,-1.539 11.113,2.113 2.488,3.652 1.539,8.629 -2.113,11.113 -8.971,6.105 -22.276,9.605 -36.5,9.605 z"
   id="path14" />
		</g>
	</g><path
   style="fill:#ffd7a3"
   d="M 250.999,113.915 231.999,82 c 0,0 -112,80.667 -112,110 v 24 c 0,19.378 11.651,36.855 29.538,44.308 l 51.69,21.538 c 2.53,1.054 5.112,1.962 7.727,2.749 -22.844,-16.711 -38.05,-31.32 -46.96,-40.872 -6.482,-6.95 -9.995,-16.121 -9.995,-25.625 V 208 c 0,-50.557 78.252,-58.189 99,-94.085 z"
   id="path15" /><g
   id="g17">
		<path
   style="fill:#9d6e48"
   d="m 103.999,166.055 c 0,0 -0.015,0.003 -0.037,0.008 0.013,-0.003 0.024,-0.005 0.037,-0.008 z"
   id="path16" />
		<path
   style="fill:#9d6e48"
   d="M 272,0 C 246,0 232,8 232,8 232,8 218,0 192,0 166,0 67.334,50.055 104,166.055 116,199.5 136,216 136,216 c -1.084,-6.322 -0.063,-14.108 2.386,-22.368 6.856,-23.12 23.648,-42.277 45.392,-52.704 C 209.736,128.48 232,111.078 232,88 c 0,55.333 128,78.055 128,78.055 C 396.667,50.055 298,0 272,0 Z"
   id="path17" />
	</g><g
   id="g18">
		<path
   style="fill:#8d5f3d"
   d="m 231.999,8 c 0,0 -14,-8 -40,-8 -26,0 -124.666,50.055 -88,166.055 12.5,34.778 32,49.945 32,49.945 -50,-152.667 81.334,-204.667 96,-208 z"
   id="path18" />
	</g><g
   id="g19">
		<path
   style="fill:#ffb04d"
   d="m 231.999,416 c 52.755,0 96.872,-36.521 108.747,-85.627 l -8.938,-4.469 c -2.919,-1.46 -6.327,0.212 -7.184,3.362 -11.09,40.761 -48.352,70.736 -92.627,70.736 -44.285,0 -81.555,-29.99 -92.635,-70.767 -0.852,-3.134 -4.242,-4.797 -7.146,-3.345 l -8.964,4.482 C 135.128,379.48 179.244,416 231.999,416 Z"
   id="path19" />
	</g><g
   id="g20">
		<path
   style="fill:#ffb04d"
   d="m 232.044,358.683 c -32.102,0 -60.59,-16.711 -69.277,-40.625 -1.508,-4.156 0.637,-8.742 4.789,-10.258 4.172,-1.469 8.742,0.641 10.25,4.789 6.434,17.719 28.738,30.094 54.238,30.094 25.371,0 47.648,-12.297 54.172,-29.906 1.539,-4.148 6.156,-6.266 10.277,-4.719 4.145,1.531 6.258,6.133 4.723,10.281 -8.797,23.75 -37.242,40.344 -69.172,40.344 z"
   id="path20" />
	</g><g
   id="g21">
		<circle
   style="fill:#ffb04d"
   cx="232.04401"
   cy="366.68301"
   r="23.32"
   id="circle20" />
	</g><g
   id="g22">
		<circle
   style="fill:#ff6473"
   cx="232.04401"
   cy="366.68301"
   r="16"
   id="circle21" />
	</g><g
   id="g23">
		<path
   style="fill:#f05467"
   d="m 224.044,366.683 c 0,-7.447 5.111,-13.65 12,-15.434 -1.286,-0.333 -2.61,-0.566 -4,-0.566 -8.836,0 -16,7.163 -16,16 0,8.836 7.164,16 16,16 1.39,0 2.714,-0.233 4,-0.566 -6.89,-1.784 -12,-7.987 -12,-15.434 z"
   id="path22" />
	</g><g
   id="g24">
		<circle
   style="fill:#ffa0b5"
   cx="236.04401"
   cy="362.68301"
   r="4"
   id="circle23" />
	</g><g
   id="g25">
		<path
   style="fill:#623f33"
   d="m 175.999,192 v 0 c -4.4,0 -8,-3.6 -8,-8 v -8 c 0,-4.4 3.6,-8 8,-8 v 0 c 4.4,0 8,3.6 8,8 v 8 c 0,4.4 -3.6,8 -8,8 z"
   id="path24" />
	</g>
</svg>
