<?xml version="1.0" encoding="UTF-8" standalone="no"?>
<!-- Uploaded to: SVG Repo, www.svgrepo.com, Generator: SVG Repo Mixer Tools -->

<svg
   version="1.1"
   id="Capa_1"
   viewBox="0 0 203.736 203.736"
   xml:space="preserve"
   sodipodi:docname="girl-svgrepo-com(25).svg"
   inkscape:version="1.4 (e7c3feb1, 2024-10-09)"
   xmlns:inkscape="http://www.inkscape.org/namespaces/inkscape"
   xmlns:sodipodi="http://sodipodi.sourceforge.net/DTD/sodipodi-0.dtd"
   xmlns="http://www.w3.org/2000/svg"
   xmlns:svg="http://www.w3.org/2000/svg"><defs
   id="defs15">
	
	
	
	
	
	
	
	
	
</defs><sodipodi:namedview
   id="namedview15"
   pagecolor="#ffffff"
   bordercolor="#000000"
   borderopacity="0.25"
   inkscape:showpageshadow="2"
   inkscape:pageopacity="0.0"
   inkscape:pagecheckerboard="0"
   inkscape:deskcolor="#d1d1d1"
   inkscape:zoom="0.12761614"
   inkscape:cx="101.868"
   inkscape:cy="97.949996"
   inkscape:window-width="1104"
   inkscape:window-height="250"
   inkscape:window-x="43"
   inkscape:window-y="25"
   inkscape:window-maximized="0"
   inkscape:current-layer="Capa_1" />
<path
   style="fill:#543c2a"
   d="m 101.867,66.139 v 131.395 h 60.26 c 0,0 11.449,-59.365 11.168,-95.113 -0.281,-35.748 -71.428,-36.282 -71.428,-36.282 z"
   id="path1" /><path
   style="fill:#543c2a"
   d="M 101.867,66.139 V 197.534 H 41.609 c 0,0 -11.449,-59.365 -11.168,-95.113 0.28,-35.748 71.426,-36.282 71.426,-36.282 z"
   id="path2" /><g
   id="g10">
		<g
   id="g9">
			<rect
   x="87.169998"
   y="153.47"
   style="fill:#fdcc9b"
   width="29.395"
   height="32.923"
   id="rect2" />
			<path
   style="fill:#fcbc85"
   d="m 87.17,157.348 c 0,0 12.365,7.874 29.395,6.051 V 153.47 H 87.17 Z"
   id="path3" />
			<ellipse
   style="fill:#fcbc85"
   cx="44.784"
   cy="102.42"
   rx="14.343"
   ry="16.364"
   id="ellipse3" />
			<ellipse
   style="fill:#fcbc85"
   cx="158.952"
   cy="102.42"
   rx="14.343"
   ry="16.364"
   id="ellipse4" />
			<path
   style="fill:#fdcc9b"
   d="m 158.894,71.165 c 0,-24.104 -17.637,-41.741 -57.026,-41.741 -39.389,0 -57.025,17.637 -57.025,41.741 0,24.104 -4.115,87.597 57.025,87.597 61.141,0 57.026,-63.493 57.026,-87.597 z"
   id="path4" />
			<g
   id="g7">
				<g
   id="g5">
					<ellipse
   style="fill:#3b2519"
   cx="74.092003"
   cy="98.501999"
   rx="6.1729999"
   ry="6.7610002"
   id="ellipse5" />
					<circle
   style="fill:#ffffff"
   cx="71.401001"
   cy="95.516998"
   r="1.846"
   id="circle5" />
				</g>
				<path
   style="fill:#684b37"
   d="m 64.217,83.925 c 2.919,1.117 7.605,-3.798 18.335,0.478 1.956,0.78 3.123,-6.668 -8.378,-6.668 -9.957,0 -11.721,5.515 -9.957,6.19 z"
   id="path5" />
				<g
   id="g6">
					<ellipse
   style="fill:#3b2519"
   cx="130.40601"
   cy="98.501999"
   rx="6.1729999"
   ry="6.7610002"
   id="ellipse6" />
					<circle
   style="fill:#ffffff"
   cx="127.715"
   cy="95.516998"
   r="1.846"
   id="circle6" />
				</g>
				<path
   style="fill:#684b37"
   d="m 139.519,83.925 c -2.919,1.117 -7.606,-3.798 -18.335,0.478 -1.956,0.78 -3.123,-6.668 8.377,-6.668 9.958,0 11.721,5.515 9.958,6.19 z"
   id="path6" />
			</g>
			<path
   style="fill:#fcbc85"
   d="m 101.867,122.283 c -6.099,0 -9.773,-4.557 -9.773,-2.352 0,2.204 1.764,6.394 9.773,6.394 8.011,0 9.774,-4.189 9.774,-6.394 10e-4,-2.205 -3.674,2.352 -9.774,2.352 z"
   id="path7" />
			<path
   style="fill:#fcbc85"
   d="m 101.867,142.553 c -2.109,0 -3.38,-1.575 -3.38,-0.814 0,0.763 0.61,2.212 3.38,2.212 2.771,0 3.381,-1.449 3.381,-2.212 0,-0.761 -1.27,0.814 -3.381,0.814 z"
   id="path8" />
			<path
   style="fill:#f7945e"
   d="m 101.867,136.936 c -9.668,0 -15.492,-3.937 -15.492,-2.939 0,0.998 2.795,4.924 15.492,4.924 12.697,0 15.493,-3.927 15.493,-4.924 0,-0.997 -5.825,2.939 -15.493,2.939 z"
   id="path9" />
		</g>
		<circle
   style="fill:#f9aa8d"
   cx="66.153999"
   cy="120.108"
   r="8.3769999"
   id="circle9" />
		<circle
   style="fill:#f9aa8d"
   cx="138.61099"
   cy="120.108"
   r="8.3769999"
   id="circle10" />
	</g><path
   style="fill:#f5a860"
   d="m 101.867,166.699 v 37.037 H 37.495 c 0,-14.991 30.569,-37.037 64.372,-37.037 z"
   id="path10" /><path
   style="fill:#f5a860"
   d="m 101.867,166.699 v 37.037 h 64.373 c 0,-14.991 -30.568,-37.037 -64.373,-37.037 z"
   id="path11" /><path
   style="fill:#f18b45"
   d="m 89.6,167.651 c -0.189,0.027 -0.379,0.065 -0.569,0.094 -3.963,0.634 -7.829,1.529 -11.543,2.653 l 24.38,33.338 V 185.218 L 90.87,167.501 c -0.421,0.059 -0.85,0.086 -1.27,0.15 z"
   id="path12" /><path
   style="fill:#f18b45"
   d="m 114.135,167.651 c 0.19,0.027 0.38,0.065 0.57,0.094 3.963,0.634 7.829,1.529 11.543,2.653 l -24.381,33.338 v -18.518 l 10.998,-17.716 c 0.421,0.058 0.851,0.085 1.27,0.149 z"
   id="path13" /><path
   style="fill:#684b37"
   d="M 101.867,0 C 35.436,0 27.651,46.991 30.441,102.42 c 2.79,55.43 49.824,82.797 49.824,82.797 0,0 -52.705,-75.427 -8.864,-141.566 0,0 -8.232,14.157 -7.786,26.015 0,0 10.328,-3.527 38.253,-3.527 27.926,0 38.253,3.527 38.253,3.527 0.447,-11.858 -7.785,-26.015 -7.785,-26.015 43.841,66.138 -8.865,141.566 -8.865,141.566 0,0 47.035,-27.367 49.825,-82.797 C 176.085,46.991 168.3,0 101.867,0 Z"
   id="path14" /><path
   style="fill:#fdcc9b"
   d="m 87.17,167.981 14.697,24.408 14.697,-24.409 c 0.001,0 -15.247,-5.552 -29.394,0.001 z"
   id="path15" />
</svg>
