<?xml version="1.0" encoding="iso-8859-1"?>
<!-- Uploaded to: SVG Repo, www.svgrepo.com, Generator: SVG Repo Mixer Tools -->
<svg height="800px" width="800px" version="1.1" id="Layer_1" xmlns="http://www.w3.org/2000/svg" xmlns:xlink="http://www.w3.org/1999/xlink" 
	 viewBox="0 0 508.609 508.609" xml:space="preserve">
<path style="fill:#9D90C5;" d="M480.466,508.609H28.143V427.91c0-37.637,28.143-69.171,65.441-73.918l99.687-12.207h122.066
	l99.687,12.207c37.298,4.408,65.441,36.281,65.441,73.918V508.609z"/>
<g>
	<circle style="fill:#F1F3F7;" cx="203.783" cy="383.491" r="60.694"/>
	<circle style="fill:#F1F3F7;" cx="304.827" cy="383.491" r="60.694"/>
</g>
<g>
	<path style="fill:#56545F;" d="M403.497,56.625v83.412c0,57.981,47.131,105.113,105.113,105.113l0,0v-83.412
		C508.609,103.756,461.478,56.625,403.497,56.625z"/>
	<path style="fill:#56545F;" d="M105.113,56.625v83.412C105.113,198.019,57.981,245.15,0,245.15l0,0v-83.412
		C0,103.756,47.131,56.625,105.113,56.625z"/>
</g>
<polygon style="fill:#EEB490;" points="192.932,230.57 192.932,346.872 254.305,415.025 315.677,346.872 315.677,230.57 "/>
<g>
	<circle style="fill:#FF667C;" cx="118.336" cy="61.372" r="61.372"/>
	<circle style="fill:#FF667C;" cx="390.273" cy="61.372" r="61.372"/>
</g>
<circle style="fill:#56545F;" cx="254.305" cy="138.342" r="134.273"/>
<g>
	<circle style="fill:#EEB490;" cx="153.261" cy="190.898" r="40.011"/>
	<circle style="fill:#EEB490;" cx="355.348" cy="190.898" r="40.011"/>
</g>
<path style="fill:#FACCB4;" d="M303.47,94.94h-98.331c-31.195,0-56.286,25.091-56.286,56.286v56.286
	c0,58.321,47.131,105.452,105.452,105.452l0,0c58.321,0,105.452-47.131,105.452-105.452v-55.947
	C359.756,120.371,334.665,94.94,303.47,94.94z"/>
</svg>