<?xml version="1.0" encoding="UTF-8" standalone="no"?>
<!-- Uploaded to: SVG Repo, www.svgrepo.com, Generator: SVG Repo Mixer Tools -->

<svg
   height="800px"
   width="800px"
   version="1.1"
   id="Layer_1"
   viewBox="0 0 464 464"
   xml:space="preserve"
   sodipodi:docname="girl-svgrepo-com(21).svg"
   inkscape:version="1.4 (e7c3feb1, 2024-10-09)"
   xmlns:inkscape="http://www.inkscape.org/namespaces/inkscape"
   xmlns:sodipodi="http://sodipodi.sourceforge.net/DTD/sodipodi-0.dtd"
   xmlns="http://www.w3.org/2000/svg"
   xmlns:svg="http://www.w3.org/2000/svg"><defs
   id="defs14">
	
	
	
	
	
	
	
	
	
	
	
	
	
	
</defs><sodipodi:namedview
   id="namedview14"
   pagecolor="#ffffff"
   bordercolor="#000000"
   borderopacity="0.25"
   inkscape:showpageshadow="2"
   inkscape:pageopacity="0.0"
   inkscape:pagecheckerboard="0"
   inkscape:deskcolor="#d1d1d1"
   inkscape:zoom="0.0325"
   inkscape:cx="400"
   inkscape:cy="384.61538"
   inkscape:window-width="1104"
   inkscape:window-height="250"
   inkscape:window-x="43"
   inkscape:window-y="25"
   inkscape:window-maximized="0"
   inkscape:current-layer="Layer_1" />
<path
   style="fill:#f6b47b"
   d="m 383.388,413.991 -1.526,-5.227 c -0.737,-2.525 -3.197,-4.073 -5.727,-3.751 l -1.61,-12.077 -3.335,-25.015 c 0,-10e-4 0,-0.002 0,-0.003 l -0.387,-2.906 c -1.752,-13.142 -9.895,-24.558 -23.304,-31.262 l -15.714,-7.857 c -2.545,-1.272 -4.488,0.365 -6.357,2.444 l -34.485,-12.688 c -6.533,-2.178 -10.94,-8.292 -10.94,-15.179 v -25.802 l 34.461,-14.359 C 332.349,252.855 344,235.378 344,216 V 144 C 344,121.908 326.091,88 304,88 H 160 c -22.092,0 -40,33.908 -40,56 v 72 c 0,19.377 11.651,36.854 29.538,44.308 L 184,274.667 v 25.801 c 0,6.887 -4.407,13.001 -10.94,15.179 l -34.485,12.688 c -1.869,-2.079 -3.812,-3.717 -6.357,-2.444 l -15.714,7.857 c -13.41,6.705 -21.552,18.121 -23.304,31.262 l -0.387,2.906 c 0,10e-4 0,0.002 0,0.003 l -3.335,25.015 -1.61,12.077 c -2.53,-0.322 -4.989,1.226 -5.727,3.751 l -1.526,5.227 c -0.817,2.799 0.79,5.729 3.589,6.546 l 1.535,0.448 -2.112,15.844 C 81.705,451.216 92.897,464 107.412,464 h 249.176 c 14.515,0 25.708,-12.784 23.789,-27.172 l -2.112,-15.844 1.535,-0.448 c 2.798,-0.815 4.405,-3.746 3.588,-6.545 z"
   id="path1" /><path
   style="fill:#e2a071"
   d="m 184,273 v 27.469 c 0,5.693 -3.017,10.852 -7.752,13.701 63.754,11.015 100.193,-36.802 103.504,-41.17 z"
   id="path2" /><path
   style="fill:#fdc88e"
   d="m 314.462,260.308 -51.694,21.539 c -9.75,4.062 -20.207,6.154 -30.769,6.154 v 0 c -10.562,0 -21.02,-2.092 -30.77,-6.154 L 149.538,260.309 C 131.651,252.855 120,235.378 120,216 v -72 c 0,-22.091 17.909,-56 40,-56 h 144 c 22.091,0 40,33.909 40,56 v 72 c 0,19.378 -11.651,36.855 -29.538,44.308 z"
   id="path3" /><path
   style="fill:#623f33"
   d="m 176,192 v 0 c -4.4,0 -8,-3.6 -8,-8 v -8 c 0,-4.4 3.6,-8 8,-8 v 0 c 4.4,0 8,3.6 8,8 v 8 c 0,4.4 -3.6,8 -8,8 z"
   id="path4" /><path
   style="fill:#623f33"
   d="m 288,192 v 0 c -4.4,0 -8,-3.6 -8,-8 v -8 c 0,-4.4 3.6,-8 8,-8 v 0 c 4.4,0 8,3.6 8,8 v 8 c 0,4.4 -3.6,8 -8,8 z"
   id="path5" /><g
   id="g6">
		<path
   style="fill:#e2a071"
   d="m 232,248.219 c -14.223,0 -27.527,-3.5 -36.5,-9.605 -3.652,-2.484 -4.602,-7.461 -2.113,-11.113 2.48,-3.648 7.461,-4.598 11.113,-2.113 6.289,4.277 16.57,6.832 27.5,6.832 10.93,0 21.211,-2.555 27.5,-6.832 3.66,-2.492 8.629,-1.539 11.113,2.113 2.488,3.652 1.539,8.629 -2.113,11.113 -8.972,6.105 -22.277,9.605 -36.5,9.605 z"
   id="path6" />
	</g><path
   style="fill:#f6b47b"
   d="M 120,153.14 V 216 c 0,19.377 11.651,36.855 29.538,44.308 l 51.69,21.538 c 2.53,1.054 5.112,1.962 7.727,2.749 -22.844,-16.711 -38.05,-31.32 -46.96,-40.872 C 155.513,236.773 152,227.602 152,218.098 v -44.711 c 22.9,-7.993 82.145,-34.247 82.967,-77.386 0.078,-4.077 0.016,-7.712 -0.164,-10.953 C 197.152,136.513 144.991,150.009 120,153.14 Z"
   id="path7" /><path
   style="fill:#6e4439"
   d="m 370.5,266.092 c 0,-16.951 -13.975,-24.114 -13.975,-38.549 0,-14.435 18.158,-18.318 18.158,-39.958 0,-14.466 -6.446,-25.697 -10.722,-36.047 C 388.34,45.873 296.888,0 272,0 246,0 232,8 232,8 232,8 218,0 192,0 167.112,0 75.66,45.873 100.039,151.537 c -4.276,10.35 -10.722,21.581 -10.722,36.047 0,21.641 18.158,25.523 18.158,39.958 0,14.435 -13.975,21.599 -13.975,38.549 0,16.951 13.46,25.159 17.833,37.912 2,5.833 -0.333,23.33 -0.333,23.33 0,0 14.25,-23.512 6.75,-45.111 -7.5,-21.599 1.2,-23.923 8,-33.355 10.25,-14.217 8.86,-30.168 0.489,-45.67 -5.406,-10.012 -3.983,-19.683 3.594,-26.416 7.975,-7.086 9.845,-19.315 9.856,-19.393 C 177.563,146.3 232,124.087 232,88 c 0,36.087 54.437,58.3 92.31,69.388 0.012,0.077 1.882,12.307 9.856,19.393 7.577,6.733 9,16.404 3.594,26.416 -8.371,15.502 -9.761,31.454 0.489,45.67 6.8,9.432 15.5,11.756 8,33.355 -7.5,21.598 6.75,45.111 6.75,45.111 0,0 -2.333,-17.498 -0.333,-23.33 4.374,-12.753 17.834,-20.961 17.834,-37.911 z"
   id="path8" /><path
   style="fill:#57b9dd"
   d="m 370.802,365.011 c -1.752,-13.142 -9.895,-24.558 -23.304,-31.262 l -15.714,-7.857 c -2.905,-1.452 -5.025,0.886 -7.146,3.345 -42.636,49.431 -92.635,70.767 -92.635,70.767 h -10e-4 -0.001 c 0,0 -49.999,-21.336 -92.635,-70.767 -2.121,-2.459 -4.242,-4.797 -7.146,-3.345 l -15.714,7.857 c -13.41,6.705 -21.552,18.121 -23.304,31.262 L 86.69,413.847 C 107.822,421.124 144,432 144,432 v 32 h 176 v -32 c 0,0 36.178,-10.876 57.313,-18.153 z"
   id="path9" /><path
   style="fill:#43a0c5"
   d="m 143.802,429.556 c -0.489,-9.513 -3.665,-18.705 -9.402,-26.355 L 96.843,353.125 c -1.813,3.734 -3.087,7.708 -3.645,11.887 l -6.341,47.561 z"
   id="path10" /><path
   style="fill:#258cac"
   d="m 80.612,413.991 c -0.817,2.799 0.79,5.73 3.588,6.546 L 144,437.981 V 432 c 0,-3.779 -0.594,-7.481 -1.461,-11.113 l -53.856,-15.71 c -2.798,-0.816 -5.728,0.79 -6.544,3.588 z"
   id="path11" /><path
   style="fill:#43a0c5"
   d="m 320.198,429.556 c 0.489,-9.513 3.665,-18.705 9.402,-26.355 l 37.557,-50.076 c 1.813,3.734 3.087,7.708 3.645,11.887 l 6.341,47.561 z"
   id="path12" /><path
   style="fill:#258cac"
   d="m 383.388,413.991 c 0.817,2.799 -0.79,5.73 -3.588,6.546 L 320,437.981 V 432 c 0,-3.779 0.594,-7.481 1.461,-11.113 l 53.856,-15.71 c 2.798,-0.816 5.728,0.79 6.544,3.588 z"
   id="path13" /><path
   style="fill:#5e342e"
   d="M 192,0 C 167.112,0 75.661,45.873 100.039,151.537 v 0 c -4.276,10.35 -10.722,21.581 -10.722,36.047 0,21.641 18.158,25.523 18.158,39.958 0,14.435 -13.975,21.599 -13.975,38.549 0,16.951 13.46,25.159 17.833,37.912 2,5.833 -0.333,23.33 -0.333,23.33 0,0 14.25,-23.512 6.75,-45.111 -7.5,-21.599 1.2,-23.923 8,-33.355 10.25,-14.217 8.86,-30.168 0.489,-45.67 -5.406,-10.012 -3.983,-19.683 3.594,-26.416 7.975,-7.086 9.845,-19.315 9.856,-19.393 l -0.008,-0.001 c 0.003,-0.001 0.005,-0.002 0.008,-0.002 C 117.089,53.368 207.192,8.083 232,8.004 V 8 c 0,0 -14,-8 -40,-8 z"
   id="path14" />
</svg>
