<?xml version="1.0" encoding="UTF-8" standalone="no"?>
<!-- Uploaded to: SVG Repo, www.svgrepo.com, Generator: SVG Repo Mixer Tools -->

<svg
   height="800px"
   width="800px"
   version="1.1"
   id="Layer_1"
   viewBox="0 0 512 512"
   xml:space="preserve"
   sodipodi:docname="girl-svgrepo-com(14).svg"
   inkscape:version="1.4 (e7c3feb1, 2024-10-09)"
   xmlns:inkscape="http://www.inkscape.org/namespaces/inkscape"
   xmlns:sodipodi="http://sodipodi.sourceforge.net/DTD/sodipodi-0.dtd"
   xmlns="http://www.w3.org/2000/svg"
   xmlns:svg="http://www.w3.org/2000/svg"><defs
   id="defs19">
	
	

	
	

	
	
</defs><sodipodi:namedview
   id="namedview19"
   pagecolor="#ffffff"
   bordercolor="#000000"
   borderopacity="0.25"
   inkscape:showpageshadow="2"
   inkscape:pageopacity="0.0"
   inkscape:pagecheckerboard="0"
   inkscape:deskcolor="#d1d1d1"
   inkscape:zoom="0.0325"
   inkscape:cx="400"
   inkscape:cy="384.61538"
   inkscape:window-width="1104"
   inkscape:window-height="250"
   inkscape:window-x="43"
   inkscape:window-y="25"
   inkscape:window-maximized="0"
   inkscape:current-layer="Layer_1" />
<path
   style="fill:#FF9842;"
   d="M406.069,114.759C388.413,17.655,300.138,0,256,0S123.586,17.655,105.931,114.759  s-44.138,220.69-44.138,220.69c88.276,70.621,167.724,70.621,194.207,70.621s105.931,0,194.207-70.621  C450.207,335.448,423.724,211.862,406.069,114.759z"
   id="path1" />
<path
   style="fill:#E6873C;"
   d="M282.22,1.949C272.579,0.584,263.607,0,256,0c-44.138,0-132.414,17.655-150.069,114.759  s-44.138,220.69-44.138,220.69c58.067,46.454,112.204,62.28,150.069,67.72V176.552C211.862,176.552,219.362,49.897,282.22,1.949z"
   id="path2" />
<path
   style="fill:#FF6472;"
   d="M300.138,326.621v30.82c0,7.883,5.226,14.81,12.804,16.975l73.226,20.921  c22.937,6.553,40.054,25.726,43.977,49.257l7.808,46.847c1.793,10.762-6.505,20.558-17.415,20.558H91.461  c-10.91,0-19.209-9.796-17.415-20.557l7.808-46.847c3.922-23.531,21.038-42.703,43.977-49.257l73.226-20.921  c7.58-2.166,12.804-9.094,12.804-16.975v-30.821H300.138z"
   id="path3" />
<path
   style="fill:#FAD7A5;"
   d="M256,476.69c54.771,0,101.148-35.665,117.362-85.01l-60.419-17.263  c-7.58-2.165-12.804-9.094-12.804-16.975v-30.82h-88.276v30.82c0,7.883-5.226,14.81-12.804,16.975l-60.419,17.263  C154.852,441.025,201.229,476.69,256,476.69z"
   id="path4" />
<path
   style="fill:#F0C891;"
   d="M300.138,335.448l-24.276-8.828h-64v30.82c0,7.883-5.226,14.81-12.804,16.975l-18.71,5.345v0.001  C254.764,415.251,300.138,335.448,300.138,335.448z"
   id="path5" />
<path
   style="fill:#d25566"
   d="m 100.725,409.69 c -9.753,9.111 -16.59,21.223 -18.87,34.905 l -7.808,46.847 C 72.253,502.204 80.551,512 91.461,512 h 49.78 v -30.282 c 0,-9.021 -2.764,-17.824 -7.919,-25.226 z"
   id="path6" /><path
   style="fill:#d25566"
   d="m 411.275,409.69 c 9.753,9.111 16.59,21.223 18.87,34.905 l 7.808,46.847 c 1.793,10.761 -6.505,20.557 -17.415,20.557 h -49.78 v -30.282 c 0,-9.021 2.764,-17.824 7.919,-25.226 z"
   id="path7" />
<path
   style="fill:#FFE1B4;"
   d="M388.413,203.034v-79.448H123.586v79.448c-9.75,0-17.655,7.904-17.655,17.655v17.655  c0,9.75,7.905,17.655,17.655,17.655c0.487,0,0.943-0.105,1.42-0.143c5.282,29.652,25.44,55.026,54.07,66.477l44.138,17.655  c21.046,8.418,44.524,8.418,65.57,0l44.138-17.655c28.631-11.452,48.789-36.825,54.07-66.477c0.477,0.039,0.934,0.143,1.42,0.143  c9.75,0,17.655-7.905,17.655-17.655V220.69C406.069,210.938,398.163,203.034,388.413,203.034z"
   id="path8" />
<path
   style="fill:#FAD7A5;"
   d="M123.586,123.586v79.448c-9.75,0-17.655,7.904-17.655,17.655v17.655  c0,9.75,7.905,17.655,17.655,17.655c0.487,0,0.943-0.105,1.42-0.143c5.282,29.652,25.44,55.026,54.07,66.477l44.138,17.655  c9.963,3.986,20.472,6.018,31.009,6.23c-29.95-13.291-52.14-34.766-66.545-52.321c-12.942-15.775-19.955-35.525-19.955-55.93  v-29.705c0-8.936,6.677-16.462,15.549-17.529l74.382-8.94l4.966,20.966c0,0,67.862-11.034,98.483-23.724l18.483-37.793v-17.655  H123.586z"
   id="path9" />
<path
   style="fill:#D7AF7D;"
   d="M256,300.138c-15.694,0-30.375-3.862-40.276-10.599c-4.03-2.741-5.078-8.233-2.332-12.263  c2.737-4.025,8.233-5.074,12.263-2.332c6.94,4.719,18.284,7.539,30.345,7.539c12.061,0,23.405-2.819,30.345-7.539  c4.039-2.745,9.522-1.703,12.263,2.332c2.745,4.03,1.698,9.522-2.332,12.263C286.374,296.276,271.694,300.138,256,300.138z"
   id="path10" />
<path
   style="fill:#5a4137"
   d="m 189.793,238.345 v 0 c -7.313,0 -13.241,-5.929 -13.241,-13.241 v -8.828 c 0,-7.313 5.929,-13.241 13.241,-13.241 v 0 c 7.313,0 13.241,5.929 13.241,13.241 v 8.828 c 0,7.312 -5.929,13.241 -13.241,13.241 z"
   id="path11" /><path
   style="fill:#5a4137"
   d="m 322.207,238.345 v 0 c -7.313,0 -13.241,-5.929 -13.241,-13.241 v -8.828 c 0,-7.313 5.929,-13.241 13.241,-13.241 v 0 c 7.313,0 13.241,5.929 13.241,13.241 v 8.828 c 0,7.312 -5.929,13.241 -13.241,13.241 z"
   id="path12" />
<path
   style="fill:#FF9842;"
   d="M123.586,203.034c0-8.828,0-35.31,26.483-70.621l8.828,44.138l88.276-8.828l17.655-26.483  l8.828,44.138c0,0,72.276-13.241,79.448-17.655l17.655-26.483c0,0,17.655,26.483,17.655,61.793h17.655l1.628-62.521  c0.389-14.944-11.661-27.249-26.61-27.171l-248.809,1.281c-14.573,0.075-26.347,11.91-26.347,26.483v61.929H123.586z"
   id="path13" />
<path
   style="fill:#ff6472"
   d="m 358.177,94.489 -66.325,2.802 c -4.884,0.206 -7.969,-5.249 -6.15,-10.874 L 300.131,41.8 c 1.82,-5.626 7.513,-8.243 11.352,-5.215 l 52.126,41.107 z"
   id="path14" /><path
   style="fill:#ff6472"
   d="m 371.772,98.886 52.126,41.107 c 3.839,3.027 9.533,0.412 11.352,-5.215 l 14.429,-44.617 c 1.82,-5.626 -1.265,-11.081 -6.15,-10.874 l -66.325,2.802 z"
   id="path15" />
<path
   style="fill:#C95264;"
   d="M416.728,108.786L315.936,76.192c-2.322-0.75-3.592-3.236-2.841-5.558s3.236-3.592,5.558-2.841  l100.792,32.594c2.322,0.75,3.592,3.236,2.841,5.558C421.536,108.265,419.05,109.536,416.728,108.786z"
   id="path16" />
<path
   style="fill:#A5465A;"
   d="M370.658,107.804l-16.799-5.432c-4.639-1.5-7.183-6.476-5.683-11.115l5.432-16.799  c1.5-4.639,6.477-7.183,11.115-5.683l16.799,5.432c4.639,1.5,7.183,6.476,5.683,11.115l-5.432,16.799  C380.273,106.759,375.297,109.303,370.658,107.804z"
   id="path17" />
<path
   style="fill:#D25566;"
   d="M125.831,395.339c-1.409,0.403-2.722,0.994-4.085,1.491l0.119,0.362  c19.094,58.11,72.999,97.153,134.134,97.153s115.04-39.043,134.135-97.153l0.119-0.362c-1.363-0.495-2.677-1.088-4.086-1.491  l-12.807-3.659C357.147,441.025,310.77,476.69,256,476.69s-101.148-35.665-117.362-85.01L125.831,395.339z"
   id="path18" />
<path
   style="fill:#E6873C;"
   d="M221.732,114.162l-89.455,0.46c-14.572,0.076-26.346,11.911-26.346,26.483v61.93h17.655  c0-8.828,0-35.31,26.483-70.621l8.828,44.138l53.394-5.34C213.166,161.567,215.649,139.73,221.732,114.162z"
   id="path19" />
</svg>
