<?xml version="1.0" encoding="UTF-8" standalone="no"?>
<!-- Uploaded to: SVG Repo, www.svgrepo.com, Generator: SVG Repo Mixer Tools -->

<svg
   version="1.1"
   id="Layer_1"
   viewBox="0 0 464.005 464.005"
   xml:space="preserve"
   sodipodi:docname="girl-svgrepo-com(18).svg"
   inkscape:version="1.4 (e7c3feb1, 2024-10-09)"
   xmlns:inkscape="http://www.inkscape.org/namespaces/inkscape"
   xmlns:sodipodi="http://sodipodi.sourceforge.net/DTD/sodipodi-0.dtd"
   xmlns="http://www.w3.org/2000/svg"
   xmlns:svg="http://www.w3.org/2000/svg"><defs
   id="defs12">
	
	
	
	
	
	
	
	
	
	
	
	
</defs><sodipodi:namedview
   id="namedview12"
   pagecolor="#ffffff"
   bordercolor="#000000"
   borderopacity="0.25"
   inkscape:showpageshadow="2"
   inkscape:pageopacity="0.0"
   inkscape:pagecheckerboard="0"
   inkscape:deskcolor="#d1d1d1"
   inkscape:zoom="0.056033878"
   inkscape:cx="232.0025"
   inkscape:cy="223.07933"
   inkscape:window-width="1104"
   inkscape:window-height="250"
   inkscape:window-x="43"
   inkscape:window-y="25"
   inkscape:window-maximized="0"
   inkscape:current-layer="Layer_1" />
<g
   id="g2">
		<path
   style="fill:#5e342e"
   d="m 104.002,184 v 0.004 0 c -17.673,0 -32,14.327 -32,32 0,3.041 0.56,5.924 1.352,8.711 -14.479,3.063 -25.352,15.897 -25.352,31.289 0,5.534 1.532,10.66 4.004,15.201 -7.264,5.866 -12.004,14.735 -12.004,24.8 0,12.687 7.443,23.551 18.148,28.727 -1.33,3.518 -2.147,7.29 -2.147,11.273 0,17.673 14.327,32 32,32 h 144 V 184 Z"
   id="path1" />
		<path
   style="fill:#734a3e"
   d="m 424.002,296.004 c 0,-10.064 -4.74,-18.933 -12.004,-24.8 2.472,-4.541 4.004,-9.667 4.004,-15.201 0,-15.391 -10.873,-28.226 -25.352,-31.289 0.792,-2.787 1.352,-5.67 1.352,-8.711 0,-17.673 -14.327,-32 -32,-32 v 0 V 184 h -128 v 184.004 h 144 c 17.673,0 32,-14.327 32,-32 0,-3.983 -0.818,-7.755 -2.147,-11.273 10.704,-5.176 18.147,-16.04 18.147,-28.727 z"
   id="path2" />
	</g><path
   style="fill:#f6b47b"
   d="m 380.379,436.832 -9.188,-68.908 c -0.875,-6.564 -3.348,-12.664 -7.047,-17.87 1.714,-3.661 0.426,-8.109 -3.128,-10.242 l -26.278,-15.767 c -3.74,-2.244 -8.588,-1.079 -10.9,2.62 l -0.553,0.885 -32.343,-11.9 c -6.534,-2.178 -10.94,-8.292 -10.94,-15.179 V 274.67 l 34.461,-14.359 c 17.887,-7.453 29.539,-24.93 29.539,-44.308 v -72 c 0,-22.091 -17.909,-56 -40,-56 h -144 c -22.091,0 -40,33.909 -40,56 v 72 c 0,19.378 11.651,36.855 29.538,44.308 l 34.462,14.36 v 25.801 c 0,6.887 -4.407,13.001 -10.94,15.179 l -32.343,11.9 -0.553,-0.885 c -2.312,-3.699 -7.16,-4.864 -10.9,-2.62 l -26.278,15.767 c -3.555,2.133 -4.842,6.581 -3.128,10.242 -3.698,5.206 -6.172,11.306 -7.047,17.87 l -9.188,68.908 c -1.918,14.388 9.275,27.172 23.789,27.172 H 356.59 c 14.515,-10e-4 25.708,-12.785 23.789,-27.173 z"
   id="path3" /><path
   style="fill:#e2a071"
   d="m 280.002,274 h -96 v 26.472 c 0,5.693 -3.017,10.852 -7.752,13.701 C 243.175,325.734 280.002,274 280.002,274 Z"
   id="path4" /><g
   id="g5">
		<path
   style="fill:#fdc88e"
   d="M 314.464,260.311 262.77,281.85 c -9.75,4.062 -20.207,6.154 -30.769,6.154 v 0 c -10.562,0 -21.02,-2.092 -30.77,-6.154 L 149.54,260.312 c -17.887,-7.453 -29.538,-24.93 -29.538,-44.308 v -72 c 0,-22.091 17.909,-56 40,-56 h 144 c 22.091,0 40,33.909 40,56 v 72 c 0,19.377 -11.651,36.855 -29.538,44.307 z"
   id="path5" />
	</g><g
   id="g6">
		<path
   style="fill:#623f33"
   d="m 176.002,192.004 v 0 c -4.4,0 -8,-3.6 -8,-8 v -8 c 0,-4.4 3.6,-8 8,-8 v 0 c 4.4,0 8,3.6 8,8 v 8 c 0,4.4 -3.6,8 -8,8 z"
   id="path6" />
	</g><g
   id="g7">
		<path
   style="fill:#623f33"
   d="m 288.002,192.004 v 0 c -4.4,0 -8,-3.6 -8,-8 v -8 c 0,-4.4 3.6,-8 8,-8 v 0 c 4.4,0 8,3.6 8,8 v 8 c 0,4.4 -3.6,8 -8,8 z"
   id="path7" />
	</g><g
   id="g9">
		<g
   id="g8">
			<path
   style="fill:#e2a071"
   d="m 232.002,248.223 c -14.223,0 -27.527,-3.5 -36.5,-9.605 -3.652,-2.484 -4.602,-7.461 -2.113,-11.113 2.48,-3.648 7.461,-4.598 11.113,-2.113 6.289,4.277 16.57,6.832 27.5,6.832 10.93,0 21.211,-2.555 27.5,-6.832 3.66,-2.492 8.629,-1.539 11.113,2.113 2.488,3.652 1.539,8.629 -2.113,11.113 -8.972,6.105 -22.277,9.605 -36.5,9.605 z"
   id="path8" />
		</g>
	</g><path
   style="fill:#f6b47b"
   d="m 232.002,64.004 c 0,0 -22.333,28.329 -74,59.996 -15.884,9.735 -38,30.649 -38,50 v 42.004 c 0,19.378 11.651,36.855 29.538,44.308 l 51.69,21.538 c 2.53,1.054 5.112,1.962 7.727,2.749 -22.844,-16.711 -38.05,-31.32 -46.96,-40.872 -6.482,-6.949 -9.995,-16.121 -9.995,-25.625 V 162.11 c 24.648,-27.081 94.857,-50.104 96,-74.105 0.785,-16.475 -16,-24.001 -16,-24.001 z"
   id="path9" /><g
   id="g10">
		<path
   style="fill:#ff8c51"
   d="m 323.839,326.666 -28.786,46.058 c -4.386,7.017 -12.077,11.28 -20.352,11.28 h -85.396 c -8.275,0 -15.966,-4.263 -20.352,-11.28 l -28.786,-46.058 c -2.312,-3.699 -7.16,-4.864 -10.9,-2.62 l -26.278,15.767 c -3.837,2.302 -5.04,7.305 -2.668,11.1 l 35.682,57.092 h 192 l 35.682,-57.092 c 2.372,-3.795 1.169,-8.797 -2.668,-11.1 l -26.278,-15.767 c -3.74,-2.244 -8.589,-1.079 -10.9,2.62 z"
   id="path10" />
	</g><g
   id="g11">
		<rect
   x="136.002"
   y="408.004"
   style="fill:#ff7941"
   width="192"
   height="56"
   id="rect10" />
	</g><path
   style="fill:#5e342e"
   d="m 120.002,193 c 0,-0.333 0,-0.661 0,-0.996 0,-49.333 112,-89.334 112,-112 v -72 c 0,0 -3.305,-7.704 -24,-8 -10.846,-0.156 -31.75,4.5 -48,16 C 111.344,50.439 92.003,129.086 84.453,193 Z"
   id="path11" /><path
   style="fill:#734a3e"
   d="m 344.002,192.004 c 0,0.335 0,0.663 0,0.996 h 35.549 c -7.55,-63.914 -26.89,-142.561 -75.549,-176.996 -16.25,-11.5 -37.154,-16.156 -48,-16 -20.695,0.296 -24,8 -24,8 v 72 c 0,22.666 112,62.667 112,112 z"
   id="path12" />
</svg>
