<?xml version="1.0" encoding="UTF-8" standalone="no"?>
<!-- Uploaded to: SVG Repo, www.svgrepo.com, Generator: SVG Repo Mixer Tools -->

<svg
   version="1.1"
   id="Capa_1"
   viewBox="0 0 187.568 187.568"
   xml:space="preserve"
   sodipodi:docname="girl-svgrepo-com(20).svg"
   inkscape:version="1.4 (e7c3feb1, 2024-10-09)"
   xmlns:inkscape="http://www.inkscape.org/namespaces/inkscape"
   xmlns:sodipodi="http://sodipodi.sourceforge.net/DTD/sodipodi-0.dtd"
   xmlns="http://www.w3.org/2000/svg"
   xmlns:svg="http://www.w3.org/2000/svg"><defs
   id="defs23">
	
	
</defs><sodipodi:namedview
   id="namedview23"
   pagecolor="#ffffff"
   bordercolor="#000000"
   borderopacity="0.25"
   inkscape:showpageshadow="2"
   inkscape:pageopacity="0.0"
   inkscape:pagecheckerboard="0"
   inkscape:deskcolor="#d1d1d1"
   inkscape:zoom="0.1386164"
   inkscape:cx="93.783997"
   inkscape:cy="97.391073"
   inkscape:window-width="1104"
   inkscape:window-height="250"
   inkscape:window-x="43"
   inkscape:window-y="25"
   inkscape:window-maximized="0"
   inkscape:current-layer="Capa_1" />
<g
   id="g22">
		<circle
   style="fill:#e88542"
   cx="125.447"
   cy="94.069"
   r="10"
   id="circle1" />
		<circle
   style="fill:#e88542"
   cx="125.447"
   cy="107.068"
   r="10"
   id="circle2" />
		<circle
   style="fill:#e88542"
   cx="125.447"
   cy="118.943"
   r="10"
   id="circle3" />
		<circle
   style="fill:#e88542"
   cx="60.264999"
   cy="94.069"
   r="10"
   id="circle4" />
		<circle
   style="fill:#e88542"
   cx="62.581001"
   cy="108.943"
   r="10"
   id="circle5" />
		<path
   style="fill:#f9cdaf"
   d="m 105.115,117.193 c 0,6.282 -5.093,11.375 -11.375,11.375 v 0 c -6.282,0 -11.375,-5.093 -11.375,-11.375 v -16.5 c 0,-6.282 5.093,-11.375 11.375,-11.375 v 0 c 6.282,0 11.375,5.093 11.375,11.375 z"
   id="path5" />
		<path
   style="opacity:0.7;fill:#f9cdaf;enable-background:new"
   d="m 93.74,90.318 c -6.282,0 -11.375,5.093 -11.375,11.375 v 6.375 c 3.668,0.863 7.486,1.334 11.417,1.334 3.901,0 7.691,-0.464 11.333,-1.314 v -6.394 c 0,-6.283 -5.093,-11.376 -11.375,-11.376 z"
   id="path6" />
		<circle
   style="fill:#f9cdaf"
   cx="93.781998"
   cy="55.735001"
   r="49.667"
   id="circle6" />
		
			<ellipse
   transform="matrix(-0.412,-0.9112,0.9112,-0.412,11.5098,118.8931)"
   style="fill:#f9cdaf"
   cx="44.117001"
   cy="55.733002"
   rx="13.667"
   ry="5.1669998"
   id="ellipse6" />
		
			<ellipse
   transform="matrix(-0.412,0.9112,-0.9112,-0.412,253.3312,-52.0216)"
   style="fill:#f9cdaf"
   cx="143.451"
   cy="55.729"
   rx="13.667"
   ry="5.1669998"
   id="ellipse7" />
		
			<rect
   x="43.514"
   y="50.722"
   transform="matrix(0.8474,0.531,-0.531,0.8474,35.4882,-20.0263)"
   style="fill:#575756"
   width="18.135"
   height="1.999"
   id="rect7" />
		
			<rect
   x="134.506"
   y="42.653"
   transform="matrix(0.5313,0.8472,-0.8472,0.5313,107.3339,-90.5578)"
   style="fill:#575756"
   width="2"
   height="18.136"
   id="rect8" />
		<path
   style="fill:#e88542"
   d="m 128.857,20.571 c 0,0 -13.071,14.367 -46.492,15.997 -20.5,1 -37.75,13.5 -36.5,21.25 1.25,7.75 -18.75,-56.784 40.5,-57.784 59.25,-1 42.492,20.537 42.492,20.537 z"
   id="path8" />
		<path
   style="fill:#e88542"
   d="m 121.366,23.822 c 9.499,5.996 23.016,30.038 22.007,34.642 -1.009,4.604 8.784,-44.896 -10.987,-47.396 -19.771,-2.5 -20.518,6.758 -11.02,12.754 z"
   id="path9" />
		<g
   id="g10">
			<circle
   style="fill:#cceae6"
   cx="72.489998"
   cy="58.464001"
   r="12.375"
   id="circle9" />
			<path
   style="fill:#575756"
   d="m 72.49,71.839 c -7.375,0 -13.375,-6 -13.375,-13.375 0,-7.375 6,-13.375 13.375,-13.375 7.375,0 13.375,6 13.375,13.375 0,7.375 -6,13.375 -13.375,13.375 z m 0,-24.75 c -6.272,0 -11.375,5.103 -11.375,11.375 0,6.272 5.103,11.375 11.375,11.375 6.272,0 11.375,-5.103 11.375,-11.375 0,-6.272 -5.103,-11.375 -11.375,-11.375 z"
   id="path10" />
		</g>
		<g
   id="g11">
			<circle
   style="fill:#cceae6"
   cx="115.447"
   cy="58.464001"
   r="12.375"
   id="circle10" />
			<path
   style="fill:#575756"
   d="m 115.447,71.839 c -7.375,0 -13.375,-6 -13.375,-13.375 0,-7.375 6,-13.375 13.375,-13.375 7.375,0 13.375,6 13.375,13.375 0,7.375 -6,13.375 -13.375,13.375 z m 0,-24.75 c -6.272,0 -11.375,5.103 -11.375,11.375 0,6.272 5.103,11.375 11.375,11.375 6.272,0 11.375,-5.103 11.375,-11.375 0,-6.272 -5.103,-11.375 -11.375,-11.375 z"
   id="path11" />
		</g>
		<rect
   x="84.864998"
   y="58.402"
   style="fill:#575756"
   width="18.247"
   height="2"
   id="rect11" />
		<path
   style="fill:#81aa79"
   d="m 137.279,187.568 v -55.5 c 0,-8.284 -6.715,-15 -15,-15 H 65.285 c -8.284,0 -15,6.716 -15,15 v 55.5 z"
   id="path12" />
		<rect
   x="64.780998"
   y="117.069"
   style="fill:#575756"
   width="11.5"
   height="21"
   id="rect12" />
		<circle
   style="fill:#e88542"
   cx="65.780998"
   cy="122.07"
   r="10"
   id="circle12" />
		<rect
   x="82.364998"
   y="110.402"
   style="fill:#81aa79"
   width="22.75"
   height="11"
   id="rect13" />
		<rect
   x="111.115"
   y="117.068"
   style="fill:#575756"
   width="11.5"
   height="21"
   id="rect14" />
		<polyline
   style="fill:#575756"
   points="64.781,136.568 122.615,136.568 127.281,151.401 127.281,187.568 60.115,187.568     60.115,151.568   "
   id="polyline14" />
		<polygon
   style="fill:#9c9b9b"
   points="93.782,176.568 109.865,169.235 109.865,148.735 77.699,148.735 77.699,169.235 "
   id="polygon14" />
		<g
   id="g20">
			<g
   id="g19">
				<polygon
   style="fill:#575756"
   points="79.041,149.901 80.541,149.901 80.541,150.901 80.041,150.901 80.041,151.401 79.041,151.401 "
   id="polygon15" />
				<path
   style="fill:#575756"
   d="m 80.041,165.664 h -1 v -1.782 h 1 z m 0,-3.566 h -1 v -1.783 h 1 z m 0,-3.565 h -1 v -1.783 h 1 z m 0,-3.565 h -1 v -1.783 h 1 z"
   id="path15" />
				<polygon
   style="fill:#575756"
   points="79.041,167.446 80.041,167.446 80.041,168.125 80.657,168.406 80.242,169.316 79.041,168.767 "
   id="polygon16" />
				<path
   style="fill:#575756"
   d="m 90.819,174.137 -1.763,-0.803 0.414,-0.91 1.763,0.803 z m -3.526,-1.606 -1.763,-0.804 0.415,-0.91 1.763,0.804 z m -3.525,-1.607 -1.763,-0.804 0.415,-0.91 1.763,0.804 z"
   id="path16" />
				<polygon
   style="fill:#575756"
   points="92.995,174.031 93.698,174.351 94.4,174.031 94.815,174.941 93.698,175.451 92.58,174.941 "
   id="polygon17" />
				<path
   style="fill:#575756"
   d="m 96.577,174.137 -0.414,-0.91 1.763,-0.804 0.414,0.91 z m 3.525,-1.607 -0.414,-0.91 1.763,-0.803 0.414,0.91 z m 3.527,-1.606 -0.416,-0.91 1.762,-0.804 0.416,0.91 z"
   id="path17" />
				<polygon
   style="fill:#575756"
   points="107.356,168.125 107.356,167.446 108.356,167.446 108.356,168.767 107.153,169.316 106.739,168.406 "
   id="polygon18" />
				<path
   style="fill:#575756"
   d="m 108.356,165.663 h -1 v -1.783 h 1 z m 0,-3.566 h -1 v -1.783 h 1 z m 0,-3.565 h -1 v -1.783 h 1 z m 0,-3.566 h -1 v -1.782 h 1 z"
   id="path18" />
				<polygon
   style="fill:#575756"
   points="107.356,150.901 106.856,150.901 106.856,149.901 108.356,149.901 108.356,151.401 107.356,151.401 "
   id="polygon19" />
				<path
   style="fill:#575756"
   d="m 104.831,150.901 h -2.024 v -1 h 2.024 z m -4.049,0 h -2.023 v -1 h 2.023 z m -4.048,0 H 94.71 v -1 h 2.024 z m -4.048,0 h -2.024 v -1 h 2.024 z m -4.049,0 h -2.024 v -1 h 2.024 z m -4.048,0 h -2.024 v -1 h 2.024 z"
   id="path19" />
			</g>
		</g>
		<path
   style="fill:#e88542"
   d="m 72.49,132.07 c -4.096,0 -7.416,5.485 -7.416,12.251 0,5.811 2.452,10.665 5.738,11.923 -0.386,-0.203 -2.093,-1.381 -0.905,-5.84 0,0 1.166,4.834 2.583,6.167 0.433,0 0.855,-0.074 1.269,-0.191 0.008,-0.047 0.647,-3.825 0.482,-6.393 -0.167,-2.582 1.866,3.785 1.684,5.186 2.366,-2.047 3.982,-6.135 3.982,-10.852 0,-6.766 -3.321,-12.251 -7.417,-12.251 z"
   id="path20" />
		<path
   style="fill:#cceae6"
   d="m 75,129.482 c 0.819,1.977 -0.12,4.244 -2.097,5.063 l -2.31,0.957 c -1.977,0.818 -4.244,-0.12 -5.063,-2.097 v 0 c -0.819,-1.977 0.12,-4.244 2.097,-5.063 l 2.31,-0.957 c 1.977,-0.819 4.244,0.12 5.063,2.097 z"
   id="path21" />
		<circle
   style="fill:#575756"
   cx="143.19"
   cy="65.402"
   r="1.8329999"
   id="circle21" />
		<circle
   style="fill:#575756"
   cx="44.896999"
   cy="65.402"
   r="1.8329999"
   id="circle22" />
	</g><path
   style="fill:#ad3661"
   d="m 96.338,84.069 c -0.968,0 -1.82,0.478 -2.35,1.205 -0.528,-0.727 -1.38,-1.205 -2.348,-1.205 -1.457,0 -6.172,2.216 -6.172,2.216 0,0.07 4.193,5.591 8.52,5.591 4.328,0 8.52,-5.591 8.52,-5.591 0.001,-0.193 -4.714,-2.216 -6.17,-2.216 z"
   id="path22" />
</svg>
