<?xml version="1.0" encoding="UTF-8" standalone="no"?>
<!-- Uploaded to: SVG Repo, www.svgrepo.com, Generator: SVG Repo Mixer Tools -->

<svg
   version="1.1"
   id="Layer_1"
   viewBox="0 0 464.004 464.004"
   xml:space="preserve"
   sodipodi:docname="girl-svgrepo-com(28).svg"
   inkscape:version="1.4 (e7c3feb1, 2024-10-09)"
   xmlns:inkscape="http://www.inkscape.org/namespaces/inkscape"
   xmlns:sodipodi="http://sodipodi.sourceforge.net/DTD/sodipodi-0.dtd"
   xmlns="http://www.w3.org/2000/svg"
   xmlns:svg="http://www.w3.org/2000/svg"><defs
   id="defs16">
	
	
	
	
	
	
	
	
	
	
	
	
	
	
	
	
	
</defs><sodipodi:namedview
   id="namedview16"
   pagecolor="#ffffff"
   bordercolor="#000000"
   borderopacity="0.25"
   inkscape:showpageshadow="2"
   inkscape:pageopacity="0.0"
   inkscape:pagecheckerboard="0"
   inkscape:deskcolor="#d1d1d1"
   inkscape:zoom="0.056034"
   inkscape:cx="232.002"
   inkscape:cy="240.92515"
   inkscape:window-width="1104"
   inkscape:window-height="250"
   inkscape:window-x="43"
   inkscape:window-y="25"
   inkscape:window-maximized="0"
   inkscape:current-layer="Layer_1" />
<g
   id="g2">
		<path
   style="fill:#5e342e"
   d="m 101.941,153.004 c -7.98,19.92 -15.94,48.624 -15.94,83.892 0,46.747 118.667,67.037 148,67.037 V 153.004 Z"
   id="path1" />
		<path
   style="fill:#683f39"
   d="m 234.001,153.004 v 150.929 c 29.333,0 148,-20.29 148,-67.037 0,-35.268 -7.96,-63.972 -15.94,-83.892 z"
   id="path2" />
	</g><path
   style="fill:#f6b47b"
   d="m 384.379,436.832 -9.188,-68.908 c -1.962,-14.712 -11.908,-27.128 -25.837,-32.253 l -54.412,-20.02 c -6.533,-2.178 -10.94,-8.292 -10.94,-15.179 V 274.67 l 34.461,-14.359 c 17.887,-7.453 29.539,-24.93 29.539,-44.308 v -8 c 13.255,0 24,-10.745 24,-24 0,-13.255 -10.745,-24 -24,-24 v -16 c 0,-22.091 -17.909,-56 -40,-56 h -144 c -22.091,0 -40,33.909 -40,56 v 16 c -13.255,0 -24,10.745 -24,24 0,13.255 10.745,24 24,24 v 8 c 0,19.378 11.651,36.855 29.538,44.308 l 34.462,14.359 v 25.801 c 0,6.887 -4.407,13.001 -10.94,15.179 l -54.412,20.02 c -13.929,5.125 -23.875,17.541 -25.837,32.253 l -9.188,68.908 c -1.918,14.388 9.275,27.172 23.789,27.172 H 360.59 c 14.515,0.001 25.708,-12.783 23.789,-27.171 z"
   id="path3" /><path
   style="fill:#e2a071"
   d="m 284.002,274.671 -96,0.001 v 25.801 c 0,5.693 -3.017,10.852 -7.752,13.701 66.924,11.562 103.752,-39.503 103.752,-39.503 z"
   id="path4" /><path
   style="fill:#ffab3b"
   d="M 120.193,164.31 H 76.009 c -5.66,0 -9.53,5.716 -7.428,10.971 l 8.123,20.307 c 1.83,4.574 7.319,6.424 11.544,3.889 l 31.945,-19.167 z"
   id="path5" /><path
   style="fill:#ffc84a"
   d="M 120.193,164.31 H 76.009 c -5.66,0 -9.53,-5.716 -7.428,-10.971 l 8.123,-20.307 c 1.83,-4.574 7.319,-6.424 11.544,-3.889 l 31.945,19.167 z"
   id="path6" /><path
   style="fill:#ffab3b"
   d="m 343.811,164.31 h 44.184 c 5.66,0 9.53,5.716 7.428,10.971 l -8.123,20.307 c -1.83,4.574 -7.319,6.424 -11.544,3.889 L 343.811,180.31 Z"
   id="path7" /><path
   style="fill:#ffc84a"
   d="m 343.811,164.31 h 44.184 c 5.66,0 9.53,-5.716 7.428,-10.971 L 387.3,133.032 c -1.83,-4.574 -7.319,-6.424 -11.544,-3.889 l -31.945,19.167 z"
   id="path8" /><path
   style="fill:#fdc88e"
   d="M 318.464,260.312 266.77,281.85 c -9.749,4.062 -20.207,6.154 -30.769,6.154 v 0 c -10.562,0 -21.02,-2.092 -30.77,-6.154 L 153.54,260.312 c -17.887,-7.453 -29.538,-24.93 -29.538,-44.308 v -72 c 0,-22.091 17.909,-56 40,-56 h 144 c 22.091,0 40,33.909 40,56 v 72 c 0,19.378 -11.651,36.855 -29.538,44.308 z"
   id="path9" /><circle
   style="fill:#fdc88e"
   cx="348.00201"
   cy="184.004"
   r="24"
   id="circle9" /><path
   style="fill:#623f33"
   d="m 180.001,192.004 v 0 c -4.4,0 -8,-3.6 -8,-8 v -8 c 0,-4.4 3.6,-8 8,-8 v 0 c 4.4,0 8,3.6 8,8 v 8 c 0,4.4 -3.6,8 -8,8 z"
   id="path10" /><path
   style="fill:#623f33"
   d="m 292.002,192.004 v 0 c -4.4,0 -8,-3.6 -8,-8 v -8 c 0,-4.4 3.6,-8 8,-8 v 0 c 4.4,0 8,3.6 8,8 v 8 c 0,4.4 -3.6,8 -8,8 z"
   id="path11" /><path
   style="fill:#e2a071"
   d="m 236.001,248.223 c -14.223,0 -27.527,-3.5 -36.5,-9.605 -3.652,-2.484 -4.602,-7.461 -2.113,-11.113 2.48,-3.648 7.461,-4.598 11.113,-2.113 6.289,4.277 16.57,6.832 27.5,6.832 10.93,0 21.211,-2.555 27.5,-6.832 3.66,-2.492 8.629,-1.539 11.113,2.113 2.488,3.652 1.539,8.629 -2.113,11.113 -8.971,6.105 -22.276,9.605 -36.5,9.605 z"
   id="path12" /><path
   style="fill:#f6b47b"
   d="m 257.002,85.004 -133,59 v 16 c -13.255,0 -24,10.745 -24,24 0,13.255 10.745,24 24,24 v 8 c 0,19.378 11.651,36.855 29.538,44.308 l 51.69,21.538 c 2.53,1.054 5.112,1.962 7.727,2.749 -22.844,-16.711 -38.05,-31.32 -46.96,-40.872 -6.482,-6.95 -9.995,-16.121 -9.995,-25.625 v -51.427 c 27.547,-6.414 108.033,-35.437 128,-70.674 z"
   id="path13" /><path
   style="fill:#00ab9a"
   d="m 327.839,326.666 -28.786,46.058 c -4.386,7.017 -12.077,11.28 -20.352,11.28 h -85.396 c -8.275,0 -15.966,-4.263 -20.352,-11.28 l -28.786,-46.058 c -2.312,-3.699 -7.16,-4.864 -10.9,-2.62 l -26.278,15.767 c -3.837,2.302 -5.04,7.305 -2.668,11.1 l 35.682,57.092 h 192 l 35.682,-57.092 c 2.372,-3.795 1.169,-8.797 -2.668,-11.1 l -26.278,-15.767 c -3.74,-2.244 -8.589,-1.079 -10.9,2.62 z"
   id="path14" /><rect
   x="140.00101"
   y="408.004"
   style="fill:#00bea4"
   width="192"
   height="56"
   id="rect14" /><path
   style="fill:#683f39"
   d="M 292.002,8 C 280.424,8 272.176,9.597 266.3,11.78 257.984,4.669 245.807,0 228.001,0 c -39,0 -128,27 -128,112 0,38.667 24,48.004 24,48.004 0,0 102.78,-28.697 143.585,-66.52 30.374,47.957 80.415,66.52 80.415,66.52 0,0 16,-22.004 16,-64.004 0,-42 -44.665,-88 -71.999,-88 z"
   id="path15" /><path
   style="fill:#5e342e"
   d="m 228.001,0 c -39,0 -128,27 -128,112 0,38.667 24,48.004 24,48.004 0,0 0.314,-0.088 0.884,-0.251 19.806,-16.702 110.02,-94.271 141.657,-147.623 -0.498,-0.435 -1.003,-0.899 -1.516,-1.384 C 256.756,4.223 244.925,0 228.001,0 Z"
   id="path16" />
</svg>
