<?xml version="1.0" encoding="UTF-8" standalone="no"?>
<!-- Uploaded to: SVG Repo, www.svgrepo.com, Generator: SVG Repo Mixer Tools -->

<svg
   height="800px"
   width="800px"
   version="1.1"
   id="Layer_1"
   viewBox="0 0 464 464"
   xml:space="preserve"
   sodipodi:docname="girl-svgrepo-com(2).svg"
   inkscape:version="1.4 (e7c3feb1, 2024-10-09)"
   xmlns:inkscape="http://www.inkscape.org/namespaces/inkscape"
   xmlns:sodipodi="http://sodipodi.sourceforge.net/DTD/sodipodi-0.dtd"
   xmlns="http://www.w3.org/2000/svg"
   xmlns:svg="http://www.w3.org/2000/svg"><defs
   id="defs21">
	
	
	
	
	
	
	
	
	
	
	
	
	
	
	
	
	
	
	
	

		
	
		
	
		
	
		
	
		
	
		
	
		
	
		
	
		
	
		
	
		
	
		
	
		
	
		
	</defs><sodipodi:namedview
   id="namedview21"
   pagecolor="#ffffff"
   bordercolor="#000000"
   borderopacity="0.25"
   inkscape:showpageshadow="2"
   inkscape:pageopacity="0.0"
   inkscape:pagecheckerboard="0"
   inkscape:deskcolor="#d1d1d1"
   inkscape:zoom="0.0325"
   inkscape:cx="400"
   inkscape:cy="384.61538"
   inkscape:window-width="1104"
   inkscape:window-height="250"
   inkscape:window-x="43"
   inkscape:window-y="25"
   inkscape:window-maximized="0"
   inkscape:current-layer="Layer_1" />
<path
   style="fill:#956e55"
   d="m 380.378,436.829 -9.188,-68.908 c -1.962,-14.712 -11.908,-27.128 -25.837,-32.253 l -54.412,-20.02 c -6.534,-2.178 -10.94,-8.292 -10.94,-15.179 v -25.802 l 34.461,-14.359 C 332.349,252.855 344,235.378 344,216 v -8 c 13.255,0 24,-10.745 24,-24 0,-13.255 -10.745,-24 -24,-24 V 144 C 344,121.908 326.091,88 304,88 H 160 c -22.091,0 -40,33.909 -40,56 v 16 c -13.255,0 -24,10.745 -24,24 0,13.255 10.745,24 24,24 v 8 c 0,19.378 11.651,36.855 29.538,44.308 L 184,274.667 v 25.801 c 0,6.887 -4.407,13.001 -10.94,15.179 l -54.412,20.02 c -13.929,5.125 -23.875,17.541 -25.837,32.253 l -9.188,68.908 C 81.705,451.216 92.898,464 107.413,464 h 249.175 c 14.515,0 25.708,-12.784 23.79,-27.171 z"
   id="path1" /><path
   style="fill:#6e4439"
   d="m 320,32 c 0,0 23.5,-32 64,-32 40.5,0 64,30.667 64,72 0,41.967 -46.667,154.667 -24,224 0,0 -60,-20.667 -80,-104 -18.34,-76.418 8,-128 8,-128 z"
   id="path2" /><path
   style="fill:#5e342e"
   d="m 347,40 c 0,0 26.5,-19 45,-8 40.721,24.213 7.454,90.732 0,128 -10,50 -6,98 32,136 0,0 -60,-20.667 -80,-104 -18.34,-76.418 3,-128 3,-128 z"
   id="path3" /><path
   style="fill:#bd445a"
   d="m 356.092,50.666 v 0 c 3.293,-2.946 3.574,-8.004 0.628,-11.296 L 337.259,17.62 c -2.946,-3.293 -8.004,-3.574 -11.296,-0.628 v 0 c -3.293,2.946 -3.574,8.004 -0.628,11.296 l 19.461,21.75 c 2.945,3.293 8.003,3.574 11.296,0.628 z"
   id="path4" /><path
   style="fill:#6e4439"
   d="M 144,32 C 144,32 120.5,0 80,0 39.5,0 16,30.667 16,72 c 0,41.967 46.667,154.667 24,224 0,0 60,-20.667 80,-104 18.34,-76.418 -8,-128 -8,-128 z"
   id="path5" /><path
   style="fill:#5e342e"
   d="m 117,40 c 0,0 -26.5,-19 -45,-8 -40.721,24.213 -7.454,90.732 0,128 10,50 6,98 -32,136 0,0 60,-20.667 80,-104 18.34,-76.418 -3,-128 -3,-128 z"
   id="path6" /><path
   style="fill:#bd445a"
   d="m 107.909,50.666 v 0 c -3.293,-2.946 -3.574,-8.004 -0.628,-11.296 l 19.461,-21.75 c 2.946,-3.293 8.004,-3.574 11.296,-0.628 v 0 c 3.293,2.946 3.574,8.004 0.628,11.296 l -19.461,21.75 c -2.946,3.293 -8.003,3.574 -11.296,0.628 z"
   id="path7" /><path
   style="fill:#7c5a49"
   d="m 280,274.667 -96,-21.334 v 47.135 c 0,5.759 -3.186,10.831 -8.017,13.659 C 243.077,325.871 280,274.667 280,274.667 Z"
   id="path8" /><path
   style="fill:#a2795c"
   d="M 344,160 V 144 C 344,121.908 326.091,88 304,88 H 160 c -22.091,0 -40,33.909 -40,56 v 16 c -13.255,0 -24,10.745 -24,24 0,13.255 10.745,24 24,24 v 8 c 0,19.378 11.651,36.855 29.538,44.308 l 51.691,21.538 c 9.75,4.063 20.208,6.154 30.77,6.154 v 0 c 10.562,0 21.019,-2.091 30.769,-6.154 l 51.694,-21.539 C 332.349,252.855 344,235.378 344,216 v -8 c 13.255,0 24,-10.745 24,-24 0,-13.255 -10.745,-24 -24,-24 z"
   id="path9" /><path
   style="fill:#623f33"
   d="m 176,192 v 0 c -4.4,0 -8,-3.6 -8,-8 v -8 c 0,-4.4 3.6,-8 8,-8 v 0 c 4.4,0 8,3.6 8,8 v 8 c 0,4.4 -3.6,8 -8,8 z"
   id="path10" /><path
   style="fill:#623f33"
   d="m 288,192 v 0 c -4.4,0 -8,-3.6 -8,-8 v -8 c 0,-4.4 3.6,-8 8,-8 v 0 c 4.4,0 8,3.6 8,8 v 8 c 0,4.4 -3.6,8 -8,8 z"
   id="path11" /><g
   id="g12">
			<path
   style="fill:#7c5a49"
   d="m 232,248.219 c -14.223,0 -27.527,-3.5 -36.5,-9.605 -3.652,-2.484 -4.602,-7.461 -2.113,-11.113 2.48,-3.648 7.461,-4.598 11.113,-2.113 6.289,4.277 16.57,6.832 27.5,6.832 10.93,0 21.211,-2.555 27.5,-6.832 3.66,-2.492 8.629,-1.539 11.113,2.113 2.488,3.652 1.539,8.629 -2.113,11.113 -8.972,6.105 -22.277,9.605 -36.5,9.605 z"
   id="path12" />
		</g><path
   style="fill:#956e55"
   d="M 239.943,97.356 230,84 c -23.667,54 -86.783,63.591 -110,64.795 V 160 c -13.255,0 -24,10.745 -24,24 0,13.255 10.745,24 24,24 v 8 c 0,19.378 11.651,36.855 29.538,44.308 l 51.69,21.538 c 2.53,1.054 5.112,1.962 7.727,2.749 -22.844,-16.711 -38.05,-31.32 -46.96,-40.872 C 155.513,236.773 152,227.602 152,218.098 v -44.711 c 22.658,-7.909 85.818,-33.699 87.943,-76.031 z"
   id="path13" /><path
   style="fill:#6e4439"
   d="m 272,0 c -26,0 -40,8 -40,8 0,0 -14,-8 -40,-8 -26,0 -124.667,50.055 -88,166.055 0,0 128,-22.722 128,-78.055 0,55.333 128,78.055 128,78.055 C 396.667,50.055 298,0 272,0 Z"
   id="path14" /><path
   style="fill:#653c34"
   d="M 232,8.004 V 8 c 0,0 -14,-8 -40,-8 -26,0 -124.666,50.055 -88,166.055 0,0 15.495,-2.757 35.69,-8.67 C 117.089,53.368 207.192,8.084 232,8.004 Z"
   id="path15" /><g
   id="g16">
			<path
   style="fill:#bd445a"
   d="m 137.155,379.991 -17.606,-44.603 c -1.159,-2.935 0.282,-6.254 3.217,-7.412 l 19.14,-7.555 c 2.935,-1.159 6.254,0.282 7.412,3.217 l 17.605,44.603 z"
   id="path16" />
		</g><g
   id="g18">
			<path
   style="fill:#bd445a"
   d="m 326.846,379.991 17.605,-44.603 c 1.159,-2.935 -0.282,-6.254 -3.217,-7.412 l -19.14,-7.555 c -2.935,-1.159 -6.254,0.282 -7.412,3.217 l -17.605,44.603 z"
   id="path17" />
		</g><path
   style="fill:#f05467"
   d="M 312,368 H 152 c -8.837,0 -16,7.163 -16,16 v 80 h 192 v -80 c 0,-8.836 -7.163,-16 -16,-16 z"
   id="path19" /><polygon
   style="fill:#ffc84a"
   points="184,384 136,408 136,424 184,400 232,424 280,400 328,424 328,408 280,384 232,408 "
   id="polygon20" /><polygon
   style="fill:#ffa34e"
   points="184,416 136,440 136,456 184,432 232,456 280,432 328,456 328,440 280,416 232,440 "
   id="polygon21" />
</svg>
