<?xml version="1.0" encoding="UTF-8" standalone="no"?>
<!-- Uploaded to: SVG Repo, www.svgrepo.com, Generator: SVG Repo Mixer Tools -->

<svg
   version="1.1"
   id="Layer_1"
   viewBox="0 0 360 360"
   xml:space="preserve"
   sodipodi:docname="girl-svgrepo-com(7).svg"
   inkscape:version="1.4 (e7c3feb1, 2024-10-09)"
   xmlns:inkscape="http://www.inkscape.org/namespaces/inkscape"
   xmlns:sodipodi="http://sodipodi.sourceforge.net/DTD/sodipodi-0.dtd"
   xmlns="http://www.w3.org/2000/svg"
   xmlns:svg="http://www.w3.org/2000/svg"><defs
   id="defs1">
	
	
	
	
	
	
	
	
	
	
	
	
	
	
	
	
	
	
	
	
</defs><sodipodi:namedview
   id="namedview1"
   pagecolor="#ffffff"
   bordercolor="#000000"
   borderopacity="0.25"
   inkscape:showpageshadow="2"
   inkscape:pageopacity="0.0"
   inkscape:pagecheckerboard="0"
   inkscape:deskcolor="#d1d1d1"
   inkscape:zoom="0.072222222"
   inkscape:cx="180"
   inkscape:cy="173.07692"
   inkscape:window-width="1104"
   inkscape:window-height="250"
   inkscape:window-x="43"
   inkscape:window-y="25"
   inkscape:window-maximized="0"
   inkscape:current-layer="Layer_1" />
<path
   id="XMLID_1774_"
   style="fill:#f285b9"
   d="m 201,260 h -21 -21 c -38.107,0 -69,30.893 -69,69 v 31 h 90 90 v -31 c 0,-38.107 -30.893,-69 -69,-69 z" /><g
   id="XMLID_1775_">
		<path
   id="XMLID_1776_"
   style="fill:#ea348b"
   d="m 180,260 h -21 c -38.107,0 -69,30.893 -69,69 v 31 h 90 z" />
	</g><g
   id="XMLID_1777_">
		<path
   id="XMLID_1778_"
   style="fill:#ffc170"
   d="m 210,260 c 0,16.568 -13.432,30 -30,30 v 0 c -16.568,0 -30,-13.432 -30,-30 v -30 c 0,-16.568 13.432,-30 30,-30 v 0 c 16.568,0 30,13.432 30,30 z" />
	</g><path
   id="XMLID_1779_"
   style="fill:#50412e"
   d="M 308.25,146.196 C 315.305,141.777 320,133.939 320,125 320,114.26 313.225,105.104 303.717,101.564 307.624,97.154 310,91.355 310,85 310,71.193 298.807,60 285,60 c -1.943,0 -3.833,0.229 -5.648,0.648 C 279.772,58.832 280,56.943 280,55 280,41.193 268.807,30 255,30 c -1.854,0 -3.657,0.208 -5.395,0.59 C 247.52,18.889 237.301,10 225,10 218.99,10 213.477,12.122 209.166,15.655 202.896,6.221 192.176,0 180,0 167.824,0 157.104,6.221 150.834,15.655 146.523,12.122 141.01,10 135,10 122.699,10 112.479,18.889 110.396,30.59 108.657,30.208 106.854,30 105,30 91.193,30 80,41.193 80,55 c 0,1.943 0.229,3.832 0.648,5.648 C 78.833,60.229 76.943,60 75,60 61.193,60 50,71.193 50,85 c 0,6.355 2.376,12.154 6.283,16.564 C 46.775,105.104 40,114.26 40,125 c 0,8.939 4.695,16.777 11.75,21.196 C 44.607,151.68 40,160.3 40,170 c 0,16.568 13.432,30 30,30 16.568,0 30,-13.432 30,-30 0,-12.073 -7.136,-22.475 -17.416,-27.232 C 87.162,138.236 90,131.95 90,125 90,118.645 87.624,112.846 83.717,108.436 93.225,104.896 100,95.74 100,85 100,83.057 99.771,81.168 99.352,79.352 101.167,79.771 103.057,80 105,80 c 12.301,0 22.521,-8.889 24.605,-20.59 1.738,0.382 3.541,0.59 5.395,0.59 6.01,0 11.523,-2.122 15.834,-5.655 C 157.104,63.779 167.824,70 180,70 192.176,70 202.896,63.779 209.166,54.345 213.477,57.878 242.699,80 255,80 c 1.943,0 3.833,-0.229 5.648,-0.648 C 260.228,81.168 260,83.057 260,85 c 0,10.74 6.775,19.896 16.283,23.436 -3.907,4.41 -6.283,10.209 -6.283,16.564 0,6.95 2.838,13.236 7.416,17.768 C 267.136,147.525 260,157.927 260,170 c 0,16.568 13.432,30 30,30 16.568,0 30,-13.432 30,-30 0,-9.7 -4.607,-18.32 -11.75,-23.804 z" /><path
   id="XMLID_1780_"
   d="M 150.834,15.655 C 146.523,12.122 141.01,10 135,10 122.699,10 112.479,18.889 110.396,30.59 108.657,30.208 106.854,30 105,30 91.193,30 80,41.193 80,55 c 0,1.943 0.229,3.832 0.648,5.648 C 78.833,60.229 76.943,60 75,60 61.193,60 50,71.193 50,85 c 0,6.355 2.376,12.154 6.283,16.564 C 46.775,105.104 40,114.26 40,125 c 0,8.939 4.695,16.777 11.75,21.196 C 44.608,151.68 40,160.3 40,170 c 0,16.568 13.432,30 30,30 16.568,0 30,-13.432 30,-30 0,-12.073 -7.136,-22.475 -17.417,-27.232 C 87.162,138.236 90,131.95 90,125 90,118.645 87.624,112.846 83.717,108.436 93.225,104.896 103.057,80 105,80 117.301,80 146.523,57.878 150.834,54.345 157.104,63.779 167.824,70 180,70 V 0 c -12.176,0 -22.896,6.221 -29.166,15.655 z" /><g
   id="XMLID_1781_">
		<circle
   id="XMLID_1782_"
   cx="115"
   cy="300.009"
   r="25" />
	</g><path
   id="XMLID_1783_"
   d="M 115,150 C 97.922,150 70.02,172.223 70.049,173.328 63.727,182.284 60,193.204 60,205 c 0,25.051 17.09,48.358 40,55 l 15.333,6.334 L 130,260 150,170 Z" /><path
   id="XMLID_1784_"
   style="fill:#50412e"
   d="M 289.951,173.328 C 289.98,172.223 262.078,150 245,150 l -35,20 20,90 16.333,6.334 L 260,260 c 22.91,-6.642 40,-29.949 40,-55 0,-11.796 -3.727,-22.716 -10.049,-31.672 z" /><g
   id="XMLID_1785_">
		<ellipse
   id="XMLID_1786_"
   style="fill:#ffc170"
   cx="180"
   cy="155"
   rx="100"
   ry="105" />
	</g><g
   id="XMLID_1787_">
		<path
   id="XMLID_1788_"
   style="fill:#e8667d"
   d="m 180,225.858 c -17.42,0 -33.58,-9.436 -42.176,-24.627 -0.68,-1.202 -0.257,-2.727 0.944,-3.407 1.2,-0.68 2.727,-0.258 3.407,0.944 7.71,13.626 22.203,22.09 37.824,22.09 15.622,0 30.115,-8.464 37.824,-22.09 0.68,-1.201 2.204,-1.623 3.407,-0.944 1.201,0.68 1.624,2.205 0.944,3.407 -8.593,15.191 -24.753,24.627 -42.174,24.627 z" />
	</g><g
   id="XMLID_1789_">
		<g
   id="XMLID_1790_">
			<ellipse
   id="XMLID_1791_"
   style="fill:#ffad41"
   cx="145"
   cy="180"
   rx="15"
   ry="10" />
		</g>
		<g
   id="XMLID_1792_">
			<circle
   id="XMLID_1793_"
   style="fill:#50412e"
   cx="145"
   cy="157.5"
   r="7.5" />
		</g>
	</g><g
   id="XMLID_1794_">
		<g
   id="XMLID_1795_">
			<ellipse
   id="XMLID_1796_"
   style="fill:#ffad41"
   cx="215"
   cy="180"
   rx="15"
   ry="10" />
		</g>
		<g
   id="XMLID_1797_">
			<circle
   id="XMLID_1798_"
   style="fill:#50412e"
   cx="215"
   cy="157.5"
   r="7.5" />
		</g>
	</g><g
   id="XMLID_1799_">
		<path
   id="XMLID_1800_"
   style="fill:#ffad41"
   d="m 180,248 c -22.528,0 -44.084,-4.358 -63.959,-12.295 C 133.376,250.872 155.67,260 180,260 c 24.33,0 46.624,-9.128 63.959,-24.295 C 224.084,243.642 202.528,248 180,248 Z" />
	</g><g
   id="XMLID_1801_">
		<circle
   id="XMLID_1802_"
   style="fill:#ffc170"
   cx="80"
   cy="170"
   r="20" />
	</g><g
   id="XMLID_1803_">
		<circle
   id="XMLID_1804_"
   style="fill:#ffc170"
   cx="280"
   cy="170"
   r="20" />
	</g><path
   id="XMLID_1805_"
   style="fill:#50412e"
   d="m 280,90 c -3.897,0 -7.614,0.751 -11.029,2.102 C 269.637,89.85 270,87.469 270,85 270,71.193 258.807,60 245,60 c -6.355,0 -29.26,-10 -40,-10 -5.7,0 -35,-10 -35,-10 0,0 10,26.894 10,35 0,13.807 11.193,25 25,25 6.355,0 12.154,-2.376 16.564,-6.283 3.54,9.508 12.696,16.283 23.436,16.283 2.468,0 4.851,-0.363 7.102,-1.029 -1.351,3.415 -2.102,7.133 -2.102,11.029 0,16.568 13.432,30 30,30 16.568,0 16.568,-60 0,-60 z" /><path
   id="XMLID_1806_"
   d="m 115,60 c -13.807,0 -25,11.193 -25,25 0,2.469 0.363,4.85 1.029,7.102 C 87.614,90.751 83.896,90 80,90 c -16.568,0 -16.568,60 0,60 16.568,0 30,-13.432 30,-30 0,-3.896 -0.751,-7.614 -2.103,-11.029 2.252,0.666 4.635,1.029 7.103,1.029 10.74,0 19.896,-6.775 23.436,-16.283 4.41,3.907 10.209,6.283 16.564,6.283 13.807,0 25,-11.193 25,-25 0,-5.68 0,-55 0,-55 0,0 -58.645,40 -65,40 z" /><g
   id="XMLID_1807_">
		<rect
   id="XMLID_1808_"
   x="100"
   y="260"
   style="fill:#00d7df"
   width="30"
   height="20" />
	</g><g
   id="XMLID_1809_">
		<circle
   id="XMLID_1810_"
   style="fill:#50412e"
   cx="245"
   cy="300.009"
   r="25" />
	</g><g
   id="XMLID_1811_">
		<rect
   id="XMLID_1812_"
   x="230"
   y="260"
   style="fill:#00d7df"
   width="30"
   height="20" />
	</g>
</svg>
